<svg width="257" height="21" viewBox="0 0 257 21" fill="none" xmlns="http://www.w3.org/2000/svg">
<path d="M5.25018 17.1989C4.1801 17.1989 3.26864 16.9077 2.5158 16.3254C1.76296 15.7382 1.18768 14.8883 0.78995 13.7756C0.392223 12.6582 0.193359 11.3088 0.193359 9.72735C0.193359 8.15538 0.392223 6.81305 0.78995 5.70036C1.19241 4.58294 1.77006 3.73067 2.5229 3.14354C3.28048 2.55169 4.18957 2.25576 5.25018 2.25576C6.31078 2.25576 7.21751 2.55169 7.97035 3.14354C8.72792 3.73067 9.30558 4.58294 9.7033 5.70036C10.1058 6.81305 10.307 8.15538 10.307 9.72735C10.307 11.3088 10.1081 12.6582 9.71041 13.7756C9.31268 14.8883 8.73739 15.7382 7.98455 16.3254C7.23171 16.9077 6.32025 17.1989 5.25018 17.1989ZM5.25018 15.6364C6.31078 15.6364 7.13465 15.1251 7.72177 14.1024C8.30889 13.0796 8.60245 11.6213 8.60245 9.72735C8.60245 8.46788 8.46751 7.39544 8.19762 6.51002C7.93247 5.6246 7.54895 4.94989 7.04705 4.48587C6.54989 4.02186 5.95094 3.78985 5.25018 3.78985C4.19904 3.78985 3.37754 4.30832 2.78569 5.34525C2.19383 6.37744 1.8979 7.83815 1.8979 9.72735C1.8979 10.9868 2.03048 12.0569 2.29563 12.9376C2.56078 13.8183 2.94194 14.4882 3.4391 14.9475C3.94099 15.4068 4.54468 15.6364 5.25018 15.6364Z" fill="#747474"/>
<path d="M23.1763 17.1989C22.343 17.1989 21.5925 17.0332 20.9249 16.7018C20.2573 16.3703 19.7222 15.9158 19.3198 15.3381C18.9173 14.7605 18.6971 14.1024 18.6593 13.3637H20.3638C20.4301 14.0219 20.7284 14.5664 21.2587 14.9972C21.7937 15.4234 22.4329 15.6364 23.1763 15.6364C23.7729 15.6364 24.3032 15.4968 24.7672 15.2174C25.236 14.9381 25.6029 14.5545 25.8681 14.0668C26.138 13.5744 26.2729 13.0181 26.2729 12.3978C26.2729 11.7633 26.1332 11.1975 25.8539 10.7004C25.5792 10.1985 25.2005 9.80311 24.7175 9.51428C24.2346 9.22546 23.6829 9.07868 23.0627 9.07394C22.6176 9.06921 22.1607 9.13786 21.6919 9.27991C21.2232 9.41722 20.8373 9.59478 20.5343 9.81258L18.8865 9.61371L19.7672 2.45462H27.324V4.01712H21.2445L20.7331 8.3069H20.8184C21.1167 8.07015 21.4907 7.87366 21.9405 7.71741C22.3903 7.56116 22.8591 7.48303 23.3468 7.48303C24.2369 7.48303 25.03 7.6961 25.726 8.12224C26.4268 8.54364 26.976 9.12129 27.3738 9.85519C27.7762 10.5891 27.9774 11.4272 27.9774 12.3694C27.9774 13.2974 27.7691 14.126 27.3524 14.8552C26.9405 15.5796 26.3723 16.1525 25.6479 16.5739C24.9235 16.9906 24.0996 17.1989 23.1763 17.1989Z" fill="#747474"/>
<path d="M30.4579 14.0171V12.5683L36.85 2.45462H37.9011V4.69894H37.1909L32.3613 12.341V12.4546H40.9693V14.0171H30.4579ZM37.3045 17.0001V13.5768V12.9021V2.45462H38.9806V17.0001H37.3045Z" fill="#747474"/>
<path d="M43.29 14.0171V12.5683L49.682 2.45462H50.7331V4.69894H50.0229L45.1934 12.341V12.4546H53.8013V14.0171H43.29ZM50.1365 17.0001V13.5768V12.9021V2.45462H51.8127V17.0001H50.1365Z" fill="#747474"/>
<path d="M61.2924 17.1989C60.6958 17.1895 60.0993 17.0758 59.5027 16.858C58.9061 16.6402 58.3616 16.2733 57.8691 15.7572C57.3767 15.2363 56.9814 14.5332 56.6831 13.6478C56.3848 12.7577 56.2356 11.6402 56.2356 10.2955C56.2356 9.00765 56.3564 7.86656 56.5978 6.87224C56.8393 5.87318 57.1897 5.03275 57.649 4.35093C58.1083 3.66438 58.6622 3.14354 59.3109 2.78843C59.9643 2.43332 60.7006 2.25576 61.5197 2.25576C62.3341 2.25576 63.0585 2.41911 63.693 2.74582C64.3322 3.06779 64.853 3.5176 65.2555 4.09525C65.658 4.6729 65.9184 5.33815 66.0368 6.09099H64.3038C64.1428 5.43758 63.8303 4.89544 63.3663 4.46457C62.9023 4.0337 62.2868 3.81826 61.5197 3.81826C60.3928 3.81826 59.505 4.30832 58.8564 5.28843C58.2124 6.26854 57.8881 7.64402 57.8833 9.41485H57.997C58.2621 9.01239 58.577 8.66911 58.9416 8.38502C59.3109 8.0962 59.7181 7.87366 60.1632 7.71741C60.6083 7.56116 61.0794 7.48303 61.5765 7.48303C62.4099 7.48303 63.1722 7.69137 63.8635 8.10803C64.5547 8.51996 65.1087 9.09051 65.5254 9.81968C65.9421 10.5441 66.1504 11.3751 66.1504 12.3126C66.1504 13.2122 65.9492 14.0361 65.5467 14.7842C65.1442 15.5275 64.5784 16.1194 63.8493 16.5597C63.1248 16.9953 62.2726 17.2084 61.2924 17.1989ZM61.2924 15.6364C61.889 15.6364 62.4241 15.4873 62.8976 15.189C63.3758 14.8907 63.7522 14.4906 64.0268 13.9887C64.3062 13.4868 64.4458 12.9281 64.4458 12.3126C64.4458 11.7113 64.3109 11.1644 64.041 10.672C63.7759 10.1748 63.4089 9.77943 62.9402 9.48587C62.4762 9.19231 61.9458 9.04553 61.3493 9.04553C60.8994 9.04553 60.4804 9.1355 60.0922 9.31542C59.7039 9.49061 59.363 9.73209 59.0694 10.0399C58.7806 10.3476 58.5533 10.7004 58.3876 11.0981C58.2219 11.4911 58.139 11.9054 58.139 12.341C58.139 12.9186 58.274 13.4584 58.5439 13.9603C58.8185 14.4622 59.1925 14.867 59.666 15.1748C60.1442 15.4826 60.6864 15.6364 61.2924 15.6364Z" fill="#747474"/>
<path d="M79.3979 17.1989C78.8013 17.1895 78.2047 17.0758 77.6081 16.858C77.0115 16.6402 76.467 16.2733 75.9746 15.7572C75.4822 15.2363 75.0868 14.5332 74.7885 13.6478C74.4902 12.7577 74.3411 11.6402 74.3411 10.2955C74.3411 9.00765 74.4618 7.86656 74.7033 6.87224C74.9448 5.87318 75.2952 5.03275 75.7544 4.35093C76.2137 3.66438 76.7677 3.14354 77.4164 2.78843C78.0698 2.43332 78.806 2.25576 79.6252 2.25576C80.4396 2.25576 81.164 2.41911 81.7985 2.74582C82.4377 3.06779 82.9585 3.5176 83.361 4.09525C83.7634 4.6729 84.0238 5.33815 84.1422 6.09099H82.4093C82.2483 5.43758 81.9358 4.89544 81.4718 4.46457C81.0078 4.0337 80.3922 3.81826 79.6252 3.81826C78.4983 3.81826 77.6105 4.30832 76.9618 5.28843C76.3179 6.26854 75.9936 7.64402 75.9888 9.41485H76.1024C76.3676 9.01239 76.6825 8.66911 77.0471 8.38502C77.4164 8.0962 77.8236 7.87366 78.2686 7.71741C78.7137 7.56116 79.1848 7.48303 79.682 7.48303C80.5153 7.48303 81.2776 7.69137 81.9689 8.10803C82.6602 8.51996 83.2142 9.09051 83.6309 9.81968C84.0475 10.5441 84.2559 11.3751 84.2559 12.3126C84.2559 13.2122 84.0546 14.0361 83.6522 14.7842C83.2497 15.5275 82.6839 16.1194 81.9547 16.5597C81.2303 16.9953 80.378 17.2084 79.3979 17.1989ZM79.3979 15.6364C79.9945 15.6364 80.5295 15.4873 81.003 15.189C81.4812 14.8907 81.8577 14.4906 82.1323 13.9887C82.4116 13.4868 82.5513 12.9281 82.5513 12.3126C82.5513 11.7113 82.4164 11.1644 82.1465 10.672C81.8813 10.1748 81.5144 9.77943 81.0456 9.48587C80.5816 9.19231 80.0513 9.04553 79.4547 9.04553C79.0049 9.04553 78.5859 9.1355 78.1976 9.31542C77.8094 9.49061 77.4685 9.73209 77.1749 10.0399C76.8861 10.3476 76.6588 10.7004 76.4931 11.0981C76.3274 11.4911 76.2445 11.9054 76.2445 12.341C76.2445 12.9186 76.3794 13.4584 76.6493 13.9603C76.9239 14.4622 77.298 14.867 77.7715 15.1748C78.2497 15.4826 78.7918 15.6364 79.3979 15.6364Z" fill="#747474"/>
<path d="M91.8784 17.1989C91.2818 17.1895 90.6852 17.0758 90.0886 16.858C89.492 16.6402 88.9475 16.2733 88.4551 15.7572C87.9627 15.2363 87.5673 14.5332 87.269 13.6478C86.9707 12.7577 86.8216 11.6402 86.8216 10.2955C86.8216 9.00765 86.9423 7.86656 87.1838 6.87224C87.4252 5.87318 87.7756 5.03275 88.2349 4.35093C88.6942 3.66438 89.2482 3.14354 89.8968 2.78843C90.5502 2.43332 91.2865 2.25576 92.1056 2.25576C92.92 2.25576 93.6445 2.41911 94.2789 2.74582C94.9181 3.06779 95.439 3.5176 95.8414 4.09525C96.2439 4.6729 96.5043 5.33815 96.6227 6.09099H94.8897C94.7287 5.43758 94.4162 4.89544 93.9522 4.46457C93.4882 4.0337 92.8727 3.81826 92.1056 3.81826C90.9788 3.81826 90.091 4.30832 89.4423 5.28843C88.7984 6.26854 88.474 7.64402 88.4693 9.41485H88.5829C88.8481 9.01239 89.1629 8.66911 89.5275 8.38502C89.8968 8.0962 90.304 7.87366 90.7491 7.71741C91.1942 7.56116 91.6653 7.48303 92.1625 7.48303C92.9958 7.48303 93.7581 7.69137 94.4494 8.10803C95.1407 8.51996 95.6947 9.09051 96.1113 9.81968C96.528 10.5441 96.7363 11.3751 96.7363 12.3126C96.7363 13.2122 96.5351 14.0361 96.1326 14.7842C95.7302 15.5275 95.1644 16.1194 94.4352 16.5597C93.7108 16.9953 92.8585 17.2084 91.8784 17.1989ZM91.8784 15.6364C92.475 15.6364 93.01 15.4873 93.4835 15.189C93.9617 14.8907 94.3381 14.4906 94.6127 13.9887C94.8921 13.4868 95.0318 12.9281 95.0318 12.3126C95.0318 11.7113 94.8968 11.1644 94.627 10.672C94.3618 10.1748 93.9949 9.77943 93.5261 9.48587C93.0621 9.19231 92.5318 9.04553 91.9352 9.04553C91.4854 9.04553 91.0663 9.1355 90.6781 9.31542C90.2898 9.49061 89.9489 9.73209 89.6554 10.0399C89.3665 10.3476 89.1393 10.7004 88.9735 11.0981C88.8078 11.4911 88.725 11.9054 88.725 12.341C88.725 12.9186 88.8599 13.4584 89.1298 13.9603C89.4044 14.4622 89.7785 14.867 90.252 15.1748C90.7302 15.4826 91.2723 15.6364 91.8784 15.6364Z" fill="#747474"/>
<path d="M104.359 17.1989C103.762 17.1895 103.166 17.0758 102.569 16.858C101.972 16.6402 101.428 16.2733 100.936 15.7572C100.443 15.2363 100.048 14.5332 99.7495 13.6478C99.4512 12.7577 99.302 11.6402 99.302 10.2955C99.302 9.00765 99.4228 7.86656 99.6642 6.87224C99.9057 5.87318 100.256 5.03275 100.715 4.35093C101.175 3.66438 101.729 3.14354 102.377 2.78843C103.031 2.43332 103.767 2.25576 104.586 2.25576C105.401 2.25576 106.125 2.41911 106.759 2.74582C107.399 3.06779 107.919 3.5176 108.322 4.09525C108.724 4.6729 108.985 5.33815 109.103 6.09099H107.37C107.209 5.43758 106.897 4.89544 106.433 4.46457C105.969 4.0337 105.353 3.81826 104.586 3.81826C103.459 3.81826 102.571 4.30832 101.923 5.28843C101.279 6.26854 100.954 7.64402 100.95 9.41485H101.063C101.329 9.01239 101.643 8.66911 102.008 8.38502C102.377 8.0962 102.785 7.87366 103.23 7.71741C103.675 7.56116 104.146 7.48303 104.643 7.48303C105.476 7.48303 106.239 7.69137 106.93 8.10803C107.621 8.51996 108.175 9.09051 108.592 9.81968C109.008 10.5441 109.217 11.3751 109.217 12.3126C109.217 13.2122 109.016 14.0361 108.613 14.7842C108.211 15.5275 107.645 16.1194 106.916 16.5597C106.191 16.9953 105.339 17.2084 104.359 17.1989ZM104.359 15.6364C104.955 15.6364 105.49 15.4873 105.964 15.189C106.442 14.8907 106.819 14.4906 107.093 13.9887C107.373 13.4868 107.512 12.9281 107.512 12.3126C107.512 11.7113 107.377 11.1644 107.107 10.672C106.842 10.1748 106.475 9.77943 106.007 9.48587C105.543 9.19231 105.012 9.04553 104.416 9.04553C103.966 9.04553 103.547 9.1355 103.159 9.31542C102.77 9.49061 102.429 9.73209 102.136 10.0399C101.847 10.3476 101.62 10.7004 101.454 11.0981C101.288 11.4911 101.205 11.9054 101.205 12.341C101.205 12.9186 101.34 13.4584 101.61 13.9603C101.885 14.4622 102.259 14.867 102.732 15.1748C103.211 15.4826 103.753 15.6364 104.359 15.6364Z" fill="#747474"/>
<path d="M116.839 17.1989C116.243 17.1895 115.646 17.0758 115.05 16.858C114.453 16.6402 113.908 16.2733 113.416 15.7572C112.924 15.2363 112.528 14.5332 112.23 13.6478C111.932 12.7577 111.782 11.6402 111.782 10.2955C111.782 9.00765 111.903 7.86656 112.145 6.87224C112.386 5.87318 112.737 5.03275 113.196 4.35093C113.655 3.66438 114.209 3.14354 114.858 2.78843C115.511 2.43332 116.247 2.25576 117.067 2.25576C117.881 2.25576 118.605 2.41911 119.24 2.74582C119.879 3.06779 120.4 3.5176 120.802 4.09525C121.205 4.6729 121.465 5.33815 121.584 6.09099H119.851C119.69 5.43758 119.377 4.89544 118.913 4.46457C118.449 4.0337 117.834 3.81826 117.067 3.81826C115.94 3.81826 115.052 4.30832 114.403 5.28843C113.759 6.26854 113.435 7.64402 113.43 9.41485H113.544C113.809 9.01239 114.124 8.66911 114.488 8.38502C114.858 8.0962 115.265 7.87366 115.71 7.71741C116.155 7.56116 116.626 7.48303 117.123 7.48303C117.957 7.48303 118.719 7.69137 119.41 8.10803C120.102 8.51996 120.656 9.09051 121.072 9.81968C121.489 10.5441 121.697 11.3751 121.697 12.3126C121.697 13.2122 121.496 14.0361 121.094 14.7842C120.691 15.5275 120.125 16.1194 119.396 16.5597C118.672 16.9953 117.819 17.2084 116.839 17.1989ZM116.839 15.6364C117.436 15.6364 117.971 15.4873 118.444 15.189C118.923 14.8907 119.299 14.4906 119.574 13.9887C119.853 13.4868 119.993 12.9281 119.993 12.3126C119.993 11.7113 119.858 11.1644 119.588 10.672C119.323 10.1748 118.956 9.77943 118.487 9.48587C118.023 9.19231 117.493 9.04553 116.896 9.04553C116.446 9.04553 116.027 9.1355 115.639 9.31542C115.251 9.49061 114.91 9.73209 114.616 10.0399C114.327 10.3476 114.1 10.7004 113.934 11.0981C113.769 11.4911 113.686 11.9054 113.686 12.341C113.686 12.9186 113.821 13.4584 114.091 13.9603C114.365 14.4622 114.739 14.867 115.213 15.1748C115.691 15.4826 116.233 15.6364 116.839 15.6364Z" fill="#747474"/>
<path d="M134.11 17.2001C132.99 17.2001 132.123 16.9467 131.51 16.4401C130.896 15.9201 130.47 15.2201 130.23 14.3401C129.99 13.4467 129.87 12.4334 129.87 11.3001C129.87 9.99341 129.99 8.94008 130.23 8.14008C130.483 7.34008 130.85 6.76008 131.33 6.40008C131.81 6.02674 132.396 5.84008 133.09 5.84008C133.556 5.84008 133.95 5.92008 134.27 6.08008C134.603 6.24008 134.836 6.50674 134.97 6.88008H135.05C135.183 6.49341 135.423 6.22674 135.77 6.08008C136.116 5.92008 136.523 5.84008 136.99 5.84008C137.856 5.84008 138.523 6.07341 138.99 6.54008C139.47 6.99341 139.71 7.69341 139.71 8.64008V17.0001H137.93V8.66008C137.93 8.14008 137.816 7.78674 137.59 7.60008C137.363 7.41341 137.076 7.32008 136.73 7.32008C136.343 7.32008 136.056 7.41341 135.87 7.60008C135.696 7.78674 135.59 8.09341 135.55 8.52008H134.43C134.376 8.05341 134.236 7.74008 134.01 7.58008C133.783 7.40674 133.53 7.32008 133.25 7.32008C132.716 7.32008 132.316 7.63341 132.05 8.26008C131.783 8.87341 131.65 9.89341 131.65 11.3201C131.65 12.2401 131.716 13.0267 131.85 13.6801C131.996 14.3334 132.263 14.8401 132.65 15.2001C133.036 15.5467 133.596 15.7201 134.33 15.7201C134.596 15.7201 134.816 15.7067 134.99 15.6801C135.163 15.6534 135.33 15.6201 135.49 15.5801L135.67 16.9401C135.47 17.0334 135.23 17.1001 134.95 17.1401C134.67 17.1801 134.39 17.2001 134.11 17.2001Z" fill="#747474"/>
<path d="M137.686 4.30008V0.0800781H139.446V4.30008H137.686Z" fill="#747474"/>
<path d="M146.824 17.2001C145.384 17.2001 144.304 16.8267 143.584 16.0801C142.878 15.3201 142.524 14.1334 142.524 12.5201C142.524 12.2534 142.531 11.9667 142.544 11.6601C142.571 11.3401 142.598 11.0267 142.624 10.7201H146.824V12.1201H144.304V12.5201C144.304 13.3601 144.398 14.0201 144.584 14.5001C144.771 14.9667 145.044 15.2934 145.404 15.4801C145.778 15.6667 146.238 15.7601 146.784 15.7601C147.384 15.7601 147.904 15.6467 148.344 15.4201C148.784 15.1934 149.124 14.7801 149.364 14.1801C149.604 13.5801 149.724 12.7201 149.724 11.6001C149.724 10.6134 149.618 9.80674 149.404 9.18008C149.191 8.55341 148.838 8.08674 148.344 7.78008C147.864 7.47341 147.211 7.32008 146.384 7.32008C145.958 7.32008 145.544 7.36008 145.144 7.44008C144.744 7.50674 144.358 7.61341 143.984 7.76008C143.611 7.89341 143.244 8.06674 142.884 8.28008V6.62008C143.151 6.47341 143.478 6.34674 143.864 6.24008C144.251 6.12008 144.678 6.02674 145.144 5.96008C145.611 5.88008 146.098 5.84008 146.604 5.84008C147.778 5.84008 148.724 6.08008 149.444 6.56008C150.178 7.02674 150.711 7.69341 151.044 8.56008C151.378 9.41341 151.544 10.4267 151.544 11.6001C151.544 12.7734 151.391 13.7801 151.084 14.6201C150.778 15.4601 150.278 16.1001 149.584 16.5401C148.904 16.9801 147.984 17.2001 146.824 17.2001Z" fill="#747474"/>
<path d="M165.053 2.45462V17.0001H163.292V4.30121H163.206L159.655 6.65917V4.8694L163.292 2.45462H165.053Z" fill="#747474"/>
<path d="M174.066 17.1989C173.469 17.1895 172.873 17.0758 172.276 16.858C171.68 16.6402 171.135 16.2733 170.643 15.7572C170.15 15.2363 169.755 14.5332 169.456 13.6478C169.158 12.7577 169.009 11.6402 169.009 10.2955C169.009 9.00765 169.13 7.86656 169.371 6.87224C169.613 5.87318 169.963 5.03275 170.422 4.35093C170.882 3.66438 171.436 3.14354 172.084 2.78843C172.738 2.43332 173.474 2.25576 174.293 2.25576C175.108 2.25576 175.832 2.41911 176.466 2.74582C177.106 3.06779 177.626 3.5176 178.029 4.09525C178.431 4.6729 178.692 5.33815 178.81 6.09099H177.077C176.916 5.43758 176.604 4.89544 176.14 4.46457C175.676 4.0337 175.06 3.81826 174.293 3.81826C173.166 3.81826 172.278 4.30832 171.63 5.28843C170.986 6.26854 170.662 7.64402 170.657 9.41485H170.77C171.036 9.01239 171.35 8.66911 171.715 8.38502C172.084 8.0962 172.492 7.87366 172.937 7.71741C173.382 7.56116 173.853 7.48303 174.35 7.48303C175.183 7.48303 175.946 7.69137 176.637 8.10803C177.328 8.51996 177.882 9.09051 178.299 9.81968C178.715 10.5441 178.924 11.3751 178.924 12.3126C178.924 13.2122 178.723 14.0361 178.32 14.7842C177.918 15.5275 177.352 16.1194 176.623 16.5597C175.898 16.9953 175.046 17.2084 174.066 17.1989ZM174.066 15.6364C174.662 15.6364 175.198 15.4873 175.671 15.189C176.149 14.8907 176.526 14.4906 176.8 13.9887C177.08 13.4868 177.219 12.9281 177.219 12.3126C177.219 11.7113 177.084 11.1644 176.814 10.672C176.549 10.1748 176.182 9.77943 175.714 9.48587C175.25 9.19231 174.719 9.04553 174.123 9.04553C173.673 9.04553 173.254 9.1355 172.866 9.31542C172.477 9.49061 172.136 9.73209 171.843 10.0399C171.554 10.3476 171.327 10.7004 171.161 11.0981C170.995 11.4911 170.912 11.9054 170.912 12.341C170.912 12.9186 171.047 13.4584 171.317 13.9603C171.592 14.4622 171.966 14.867 172.439 15.1748C172.918 15.4826 173.46 15.6364 174.066 15.6364Z" fill="#747474"/>
<path d="M186.376 17.1989C185.401 17.1989 184.539 17.0261 183.791 16.6805C183.047 16.3301 182.467 15.8495 182.051 15.2387C181.634 14.6232 181.428 13.9224 181.433 13.1364C181.428 12.5209 181.549 11.9527 181.795 11.4319C182.041 10.9063 182.377 10.4684 182.803 10.118C183.234 9.76286 183.715 9.53796 184.245 9.44326V9.35803C183.549 9.17811 182.995 8.78748 182.583 8.18616C182.171 7.5801 181.968 6.89118 181.972 6.1194C181.968 5.38076 182.155 4.72025 182.534 4.13786C182.912 3.55548 183.433 3.0962 184.096 2.76002C184.764 2.42385 185.524 2.25576 186.376 2.25576C187.219 2.25576 187.972 2.42385 188.634 2.76002C189.297 3.0962 189.818 3.55548 190.197 4.13786C190.58 4.72025 190.775 5.38076 190.779 6.1194C190.775 6.89118 190.564 7.5801 190.147 8.18616C189.735 8.78748 189.188 9.17811 188.507 9.35803V9.44326C189.032 9.53796 189.506 9.76286 189.927 10.118C190.348 10.4684 190.685 10.9063 190.936 11.4319C191.186 11.9527 191.314 12.5209 191.319 13.1364C191.314 13.9224 191.101 14.6232 190.68 15.2387C190.263 15.8495 189.683 16.3301 188.94 16.6805C188.201 17.0261 187.347 17.1989 186.376 17.1989ZM186.376 15.6364C187.034 15.6364 187.602 15.5299 188.08 15.3168C188.559 15.1038 188.928 14.8031 189.188 14.4149C189.449 14.0266 189.581 13.572 189.586 13.0512C189.581 12.502 189.439 12.0167 189.16 11.5952C188.881 11.1738 188.499 10.8424 188.017 10.6009C187.538 10.3595 186.991 10.2387 186.376 10.2387C185.756 10.2387 185.202 10.3595 184.714 10.6009C184.231 10.8424 183.85 11.1738 183.57 11.5952C183.296 12.0167 183.161 12.502 183.166 13.0512C183.161 13.572 183.286 14.0266 183.542 14.4149C183.803 14.8031 184.174 15.1038 184.657 15.3168C185.14 15.5299 185.713 15.6364 186.376 15.6364ZM186.376 8.73303C186.897 8.73303 187.358 8.62887 187.761 8.42053C188.168 8.2122 188.488 7.92101 188.72 7.54695C188.952 7.1729 189.07 6.73493 189.075 6.23303C189.07 5.74061 188.954 5.3121 188.727 4.94752C188.499 4.5782 188.185 4.29411 187.782 4.09525C187.38 3.89165 186.911 3.78985 186.376 3.78985C185.831 3.78985 185.356 3.89165 184.948 4.09525C184.541 4.29411 184.226 4.5782 184.004 4.94752C183.781 5.3121 183.672 5.74061 183.677 6.23303C183.672 6.73493 183.784 7.1729 184.011 7.54695C184.243 7.92101 184.562 8.2122 184.97 8.42053C185.377 8.62887 185.846 8.73303 186.376 8.73303Z" fill="#747474"/>
<path d="M199.155 2.45462V17.0001H197.393V4.30121H197.308L193.757 6.65917V4.8694L197.393 2.45462H199.155Z" fill="#747474"/>
<path d="M205.007 15.0114L204.893 15.7785C204.813 16.3183 204.69 16.8959 204.524 17.5114C204.363 18.127 204.195 18.707 204.02 19.2515C203.845 19.796 203.7 20.2292 203.586 20.5512H202.308C202.37 20.2482 202.45 19.8481 202.55 19.3509C202.649 18.8538 202.748 18.2974 202.848 17.6819C202.952 17.0711 203.037 16.4461 203.104 15.8069L203.189 15.0114H205.007Z" fill="#747474"/>
<path d="M218.823 2.45462V17.0001H217.061V4.30121H216.976L213.425 6.65917V4.8694L217.061 2.45462H218.823Z" fill="#747474"/>
<path d="M227.835 17.1989C227.239 17.1895 226.642 17.0758 226.046 16.858C225.449 16.6402 224.905 16.2733 224.412 15.7572C223.92 15.2363 223.524 14.5332 223.226 13.6478C222.928 12.7577 222.779 11.6402 222.779 10.2955C222.779 9.00765 222.899 7.86656 223.141 6.87224C223.382 5.87318 223.733 5.03275 224.192 4.35093C224.651 3.66438 225.205 3.14354 225.854 2.78843C226.507 2.43332 227.244 2.25576 228.063 2.25576C228.877 2.25576 229.602 2.41911 230.236 2.74582C230.875 3.06779 231.396 3.5176 231.798 4.09525C232.201 4.6729 232.461 5.33815 232.58 6.09099H230.847C230.686 5.43758 230.373 4.89544 229.909 4.46457C229.445 4.0337 228.83 3.81826 228.063 3.81826C226.936 3.81826 226.048 4.30832 225.399 5.28843C224.755 6.26854 224.431 7.64402 224.426 9.41485H224.54C224.805 9.01239 225.12 8.66911 225.485 8.38502C225.854 8.0962 226.261 7.87366 226.706 7.71741C227.151 7.56116 227.622 7.48303 228.12 7.48303C228.953 7.48303 229.715 7.69137 230.406 8.10803C231.098 8.51996 231.652 9.09051 232.068 9.81968C232.485 10.5441 232.693 11.3751 232.693 12.3126C232.693 13.2122 232.492 14.0361 232.09 14.7842C231.687 15.5275 231.121 16.1194 230.392 16.5597C229.668 16.9953 228.816 17.2084 227.835 17.1989ZM227.835 15.6364C228.432 15.6364 228.967 15.4873 229.441 15.189C229.919 14.8907 230.295 14.4906 230.57 13.9887C230.849 13.4868 230.989 12.9281 230.989 12.3126C230.989 11.7113 230.854 11.1644 230.584 10.672C230.319 10.1748 229.952 9.77943 229.483 9.48587C229.019 9.19231 228.489 9.04553 227.892 9.04553C227.442 9.04553 227.023 9.1355 226.635 9.31542C226.247 9.49061 225.906 9.73209 225.612 10.0399C225.324 10.3476 225.096 10.7004 224.931 11.0981C224.765 11.4911 224.682 11.9054 224.682 12.341C224.682 12.9186 224.817 13.4584 225.087 13.9603C225.361 14.4622 225.736 14.867 226.209 15.1748C226.687 15.4826 227.229 15.6364 227.835 15.6364Z" fill="#747474"/>
<path d="M240.145 17.1989C239.17 17.1989 238.308 17.0261 237.56 16.6805C236.817 16.3301 236.237 15.8495 235.82 15.2387C235.403 14.6232 235.198 13.9224 235.202 13.1364C235.198 12.5209 235.318 11.9527 235.564 11.4319C235.811 10.9063 236.147 10.4684 236.573 10.118C237.004 9.76286 237.484 9.53796 238.015 9.44326V9.35803C237.319 9.17811 236.765 8.78748 236.353 8.18616C235.941 7.5801 235.737 6.89118 235.742 6.1194C235.737 5.38076 235.924 4.72025 236.303 4.13786C236.682 3.55548 237.203 3.0962 237.866 2.76002C238.533 2.42385 239.293 2.25576 240.145 2.25576C240.988 2.25576 241.741 2.42385 242.404 2.76002C243.067 3.0962 243.588 3.55548 243.966 4.13786C244.35 4.72025 244.544 5.38076 244.549 6.1194C244.544 6.89118 244.333 7.5801 243.917 8.18616C243.505 8.78748 242.958 9.17811 242.276 9.35803V9.44326C242.802 9.53796 243.275 9.76286 243.697 10.118C244.118 10.4684 244.454 10.9063 244.705 11.4319C244.956 11.9527 245.084 12.5209 245.089 13.1364C245.084 13.9224 244.871 14.6232 244.449 15.2387C244.033 15.8495 243.453 16.3301 242.709 16.6805C241.971 17.0261 241.116 17.1989 240.145 17.1989ZM240.145 15.6364C240.804 15.6364 241.372 15.5299 241.85 15.3168C242.328 15.1038 242.698 14.8031 242.958 14.4149C243.218 14.0266 243.351 13.572 243.356 13.0512C243.351 12.502 243.209 12.0167 242.93 11.5952C242.65 11.1738 242.269 10.8424 241.786 10.6009C241.308 10.3595 240.761 10.2387 240.145 10.2387C239.525 10.2387 238.971 10.3595 238.483 10.6009C238.001 10.8424 237.619 11.1738 237.34 11.5952C237.065 12.0167 236.93 12.502 236.935 13.0512C236.93 13.572 237.056 14.0266 237.312 14.4149C237.572 14.8031 237.944 15.1038 238.427 15.3168C238.91 15.5299 239.483 15.6364 240.145 15.6364ZM240.145 8.73303C240.666 8.73303 241.128 8.62887 241.53 8.42053C241.938 8.2122 242.257 7.92101 242.489 7.54695C242.721 7.1729 242.84 6.73493 242.844 6.23303C242.84 5.74061 242.724 5.3121 242.496 4.94752C242.269 4.5782 241.954 4.29411 241.552 4.09525C241.149 3.89165 240.68 3.78985 240.145 3.78985C239.601 3.78985 239.125 3.89165 238.718 4.09525C238.311 4.29411 237.996 4.5782 237.773 4.94752C237.551 5.3121 237.442 5.74061 237.447 6.23303C237.442 6.73493 237.553 7.1729 237.78 7.54695C238.012 7.92101 238.332 8.2122 238.739 8.42053C239.146 8.62887 239.615 8.73303 240.145 8.73303Z" fill="#747474"/>
<path d="M247.811 17.0001V15.7217L252.612 10.466C253.175 9.85046 253.639 9.31542 254.004 8.86087C254.368 8.40159 254.638 7.97072 254.813 7.56826C254.993 7.16106 255.083 6.73493 255.083 6.28985C255.083 5.77849 254.96 5.33578 254.714 4.96173C254.472 4.58767 254.141 4.29885 253.72 4.09525C253.298 3.89165 252.825 3.78985 252.299 3.78985C251.74 3.78985 251.253 3.90585 250.836 4.13786C250.424 4.36513 250.105 4.68474 249.877 5.09667C249.655 5.5086 249.544 5.99156 249.544 6.54553H247.867C247.867 5.69326 248.064 4.94515 248.457 4.30121C248.85 3.65727 249.385 3.15538 250.062 2.79553C250.744 2.43568 251.508 2.25576 252.356 2.25576C253.208 2.25576 253.963 2.43568 254.622 2.79553C255.28 3.15538 255.796 3.6407 256.17 4.2515C256.544 4.86229 256.731 5.54174 256.731 6.28985C256.731 6.82489 256.634 7.34809 256.44 7.85945C256.25 8.36608 255.919 8.9319 255.445 9.5569C254.977 10.1772 254.326 10.9347 253.492 11.8296L250.225 15.3239V15.4376H256.987V17.0001H247.811Z" fill="#747474"/>
</svg>
