<svg width="206" height="32" viewBox="0 0 206 32" fill="none" xmlns="http://www.w3.org/2000/svg">
<path d="M7.90007 31.3599C5.88407 31.3599 4.32407 30.9039 3.22007 29.9919C2.11607 29.0559 1.34807 27.7959 0.916066 26.2119C0.484066 24.6039 0.268066 22.7799 0.268066 20.7399C0.268066 18.3879 0.484066 16.4919 0.916066 15.0519C1.37207 13.6119 2.03207 12.5679 2.89607 11.9199C3.76007 11.2479 4.81607 10.9119 6.06407 10.9119C6.90407 10.9119 7.61207 11.0559 8.18807 11.3439C8.78807 11.6319 9.20807 12.1119 9.44807 12.7839H9.59207C9.83207 12.0879 10.2641 11.6079 10.8881 11.3439C11.5121 11.0559 12.2441 10.9119 13.0841 10.9119C14.6441 10.9119 15.8441 11.3319 16.6841 12.1719C17.5481 12.9879 17.9801 14.2479 17.9801 15.9519V30.9999H14.7761V15.9879C14.7761 15.0519 14.5721 14.4159 14.1641 14.0799C13.7561 13.7439 13.2401 13.5759 12.6161 13.5759C11.9201 13.5759 11.4041 13.7439 11.0681 14.0799C10.7561 14.4159 10.5641 14.9679 10.4921 15.7359H8.47607C8.38007 14.8959 8.12807 14.3319 7.72007 14.0439C7.31207 13.7319 6.85607 13.5759 6.35207 13.5759C5.39207 13.5759 4.67207 14.1399 4.19207 15.2679C3.71207 16.3719 3.47207 18.2079 3.47207 20.7759C3.47207 22.4319 3.59207 23.8479 3.83207 25.0239C4.09607 26.1999 4.57607 27.1119 5.27207 27.7599C5.96807 28.3839 6.97607 28.6959 8.29607 28.6959C8.77607 28.6959 9.17207 28.6719 9.48407 28.6239C9.79607 28.5759 10.0961 28.5159 10.3841 28.4439L10.7081 30.8919C10.3481 31.0599 9.91607 31.1799 9.41207 31.2519C8.90807 31.3239 8.40407 31.3599 7.90007 31.3599Z" fill="black"/>
<path d="M2.24216 8.13994V6.73594L4.87016 5.58394H17.5422V8.13994H2.24216Z" fill="black"/>
<path d="M30.5348 31.3599C28.6148 31.3599 27.1028 30.9159 25.9988 30.0279C24.9188 29.1159 24.1508 27.8919 23.6948 26.3559C23.2628 24.8199 23.0468 23.1279 23.0468 21.2799C23.0468 19.2399 23.2508 17.5599 23.6588 16.2399C24.0908 14.8959 24.6908 13.8399 25.4588 13.0719C26.2508 12.2799 27.1868 11.7279 28.2668 11.4159C29.3708 11.0799 30.5828 10.9119 31.9028 10.9119C33.8228 10.9119 35.3828 11.1999 36.5828 11.7759C37.8068 12.3279 38.7068 13.1199 39.2828 14.1519C39.8588 15.1839 40.1468 16.4199 40.1468 17.8599V30.9999H36.9788V18.1479C36.9788 16.6599 36.6068 15.5319 35.8628 14.7639C35.1188 13.9719 33.8348 13.5759 32.0108 13.5759C30.9068 13.5759 29.9108 13.7799 29.0228 14.1879C28.1588 14.5959 27.4748 15.3519 26.9708 16.4559C26.4908 17.5599 26.2508 19.1799 26.2508 21.3159C26.2508 22.7079 26.3828 23.9679 26.6468 25.0959C26.9348 26.1999 27.4268 27.0759 28.1228 27.7239C28.8188 28.3719 29.7908 28.6959 31.0388 28.6959C31.3988 28.6959 31.7348 28.6719 32.0468 28.6239C32.3588 28.5759 32.6588 28.5039 32.9468 28.4079L33.2708 30.8919C32.8868 31.0599 32.4428 31.1799 31.9388 31.2519C31.4588 31.3239 30.9908 31.3599 30.5348 31.3599Z" fill="black"/>
<path d="M52.9704 31.3599C50.9544 31.3599 49.3944 30.9039 48.2904 29.9919C47.1864 29.0559 46.4184 27.7959 45.9864 26.2119C45.5544 24.6039 45.3384 22.7799 45.3384 20.7399C45.3384 18.3879 45.5544 16.4919 45.9864 15.0519C46.4424 13.6119 47.1024 12.5679 47.9664 11.9199C48.8304 11.2479 49.8864 10.9119 51.1344 10.9119C51.9744 10.9119 52.6824 11.0559 53.2584 11.3439C53.8584 11.6319 54.2784 12.1119 54.5184 12.7839H54.6624C54.9024 12.0879 55.3344 11.6079 55.9584 11.3439C56.5824 11.0559 57.3144 10.9119 58.1544 10.9119C59.7144 10.9119 60.9144 11.3319 61.7544 12.1719C62.6184 12.9879 63.0504 14.2479 63.0504 15.9519V30.9999H59.8464V15.9879C59.8464 15.0519 59.6424 14.4159 59.2344 14.0799C58.8264 13.7439 58.3104 13.5759 57.6864 13.5759C56.9904 13.5759 56.4744 13.7439 56.1384 14.0799C55.8264 14.4159 55.6344 14.9679 55.5624 15.7359H53.5464C53.4504 14.8959 53.1984 14.3319 52.7904 14.0439C52.3824 13.7319 51.9264 13.5759 51.4224 13.5759C50.4624 13.5759 49.7424 14.1399 49.2624 15.2679C48.7824 16.3719 48.5424 18.2079 48.5424 20.7759C48.5424 22.4319 48.6624 23.8479 48.9024 25.0239C49.1664 26.1999 49.6464 27.1119 50.3424 27.7599C51.0384 28.3839 52.0464 28.6959 53.3664 28.6959C53.8464 28.6959 54.2424 28.6719 54.5544 28.6239C54.8664 28.5759 55.1664 28.5159 55.4544 28.4439L55.7784 30.8919C55.4184 31.0599 54.9864 31.1799 54.4824 31.2519C53.9784 31.3239 53.4744 31.3599 52.9704 31.3599Z" fill="black"/>
<path d="M59.4085 8.13994V0.543945H62.5765V8.13994H59.4085Z" fill="black"/>
<path d="M75.8571 31.3599C73.2651 31.3599 71.3211 30.6879 70.0251 29.3439C68.7531 27.9759 68.1171 25.8399 68.1171 22.9359C68.1171 22.4559 68.1291 21.9399 68.1531 21.3879C68.2011 20.8119 68.2491 20.2479 68.2971 19.6959H75.8571V22.2159H71.3211V22.9359C71.3211 24.4479 71.4891 25.6359 71.8251 26.4999C72.1611 27.3399 72.6531 27.9279 73.3011 28.2639C73.9731 28.5999 74.8011 28.7679 75.7851 28.7679C76.8651 28.7679 77.8011 28.5639 78.5931 28.1559C79.3851 27.7479 79.9971 27.0039 80.4291 25.9239C80.8611 24.8439 81.0771 23.2959 81.0771 21.2799C81.0771 19.5039 80.8851 18.0519 80.5011 16.9239C80.1171 15.7959 79.4811 14.9559 78.5931 14.4039C77.7291 13.8519 76.5531 13.5759 75.0651 13.5759C74.2971 13.5759 73.5531 13.6479 72.8331 13.7919C72.1131 13.9119 71.4171 14.1039 70.7451 14.3679C70.0731 14.6079 69.4131 14.9199 68.7651 15.3039V12.3159C69.2451 12.0519 69.8331 11.8239 70.5291 11.6319C71.2251 11.4159 71.9931 11.2479 72.8331 11.1279C73.6731 10.9839 74.5491 10.9119 75.4611 10.9119C77.5731 10.9119 79.2771 11.3439 80.5731 12.2079C81.8931 13.0479 82.8531 14.2479 83.4531 15.8079C84.0531 17.3439 84.3531 19.1679 84.3531 21.2799C84.3531 23.3919 84.0771 25.2039 83.5251 26.7159C82.9731 28.2279 82.0731 29.3799 80.8251 30.1719C79.6011 30.9639 77.9451 31.3599 75.8571 31.3599Z" fill="black"/>
<path d="M101.101 30.9999V17.8599C101.101 16.2999 100.741 15.1959 100.021 14.5479C99.325 13.8759 98.149 13.5399 96.493 13.5399C95.293 13.5399 94.141 13.7079 93.037 14.0439C91.957 14.3559 90.925 14.7999 89.941 15.3759V12.3879C90.637 12.0279 91.573 11.6919 92.749 11.3799C93.949 11.0679 95.293 10.9119 96.781 10.9119C98.053 10.9119 99.133 11.0559 100.021 11.3439C100.933 11.6319 101.605 12.1599 102.037 12.9279C102.877 13.3119 103.453 13.9119 103.765 14.7279C104.101 15.5439 104.269 16.5279 104.269 17.6799V30.9999H101.101ZM94.909 31.3599C92.797 31.3599 91.177 30.8799 90.049 29.9199C88.945 28.9359 88.393 27.5319 88.393 25.7079C88.393 23.7159 89.113 22.1799 90.553 21.0999C92.017 20.0199 94.381 19.3839 97.645 19.1919L101.749 18.9399V21.6039L98.077 21.8559C95.629 22.0239 93.937 22.4079 93.001 23.0079C92.089 23.6079 91.633 24.4839 91.633 25.6359C91.633 26.7159 91.969 27.5079 92.641 28.0119C93.337 28.5159 94.297 28.7679 95.521 28.7679C95.929 28.7679 96.301 28.7439 96.637 28.6959C96.973 28.6239 97.297 28.5399 97.609 28.4439L98.113 30.8559C97.657 31.0239 97.153 31.1439 96.601 31.2159C96.073 31.3119 95.509 31.3599 94.909 31.3599ZM101.929 14.0439L100.129 12.3519C100.753 12.2559 101.341 12.0159 101.893 11.6319C102.445 11.2479 102.721 10.6959 102.721 9.97594H105.853C105.853 10.7199 105.673 11.3799 105.313 11.9559C104.977 12.5079 104.509 12.9639 103.909 13.3239C103.309 13.6599 102.649 13.8999 101.929 14.0439Z" fill="black"/>
<path d="M117.131 31.3599C114.539 31.3599 112.595 30.6879 111.299 29.3439C110.027 27.9759 109.391 25.8399 109.391 22.9359C109.391 22.4559 109.403 21.9399 109.427 21.3879C109.475 20.8119 109.523 20.2479 109.571 19.6959H117.131V22.2159H112.595V22.9359C112.595 24.4479 112.763 25.6359 113.099 26.4999C113.435 27.3399 113.927 27.9279 114.575 28.2639C115.247 28.5999 116.075 28.7679 117.059 28.7679C118.139 28.7679 119.075 28.5639 119.867 28.1559C120.659 27.7479 121.271 27.0039 121.703 25.9239C122.135 24.8439 122.351 23.2959 122.351 21.2799C122.351 19.5039 122.159 18.0519 121.775 16.9239C121.391 15.7959 120.755 14.9559 119.867 14.4039C119.003 13.8519 117.827 13.5759 116.339 13.5759C115.571 13.5759 114.827 13.6479 114.107 13.7919C113.387 13.9119 112.691 14.1039 112.019 14.3679C111.347 14.6079 110.687 14.9199 110.039 15.3039V12.3159C110.519 12.0519 111.107 11.8239 111.803 11.6319C112.499 11.4159 113.267 11.2479 114.107 11.1279C114.947 10.9839 115.823 10.9119 116.735 10.9119C118.847 10.9119 120.551 11.3439 121.847 12.2079C123.167 13.0479 124.127 14.2479 124.727 15.8079C125.327 17.3439 125.627 19.1679 125.627 21.2799C125.627 23.3919 125.351 25.2039 124.799 26.7159C124.247 28.2279 123.347 29.3799 122.099 30.1719C120.875 30.9639 119.219 31.3599 117.131 31.3599Z" fill="black"/>
<path d="M138.738 31.3599C135.906 31.3599 133.878 30.7119 132.654 29.4159C131.43 28.1199 130.818 26.2719 130.818 23.8719V11.2719H134.022V23.9079C134.022 25.5159 134.406 26.7159 135.174 27.5079C135.942 28.2999 137.13 28.6959 138.738 28.6959C140.37 28.6959 141.57 28.2999 142.338 27.5079C143.13 26.7159 143.526 25.5159 143.526 23.9079V11.2719H146.73V23.8719C146.73 26.2719 146.106 28.1199 144.858 29.4159C143.634 30.7119 141.594 31.3599 138.738 31.3599Z" fill="black"/>
<path d="M156.613 31.3599C155.941 31.3599 155.293 31.2519 154.669 31.0359C154.069 30.8199 153.577 30.4359 153.193 29.8839C152.833 29.3319 152.653 28.5639 152.653 27.5799V24.0879C152.653 22.5999 152.965 21.5199 153.589 20.8479C154.237 20.1759 155.077 19.7079 156.109 19.4439L156.145 19.3359L152.005 17.8239V16.6359C152.005 15.6519 152.329 14.7279 152.977 13.8639C153.625 12.9759 154.549 12.2679 155.749 11.7399C156.973 11.1879 158.437 10.9119 160.141 10.9119C161.629 10.9119 162.997 11.1519 164.245 11.6319C165.493 12.0879 166.489 12.8199 167.233 13.8279C168.001 14.8119 168.385 16.1079 168.385 17.7159V30.9999H165.181V18.0399C165.181 16.4319 164.689 15.2919 163.705 14.6199C162.721 13.9239 161.521 13.5759 160.105 13.5759C158.617 13.5759 157.441 13.8879 156.577 14.5119C155.713 15.1119 155.281 15.8799 155.281 16.8159L159.385 18.7599L159.097 20.4879C158.209 20.5119 157.441 20.7399 156.793 21.1719C156.169 21.5799 155.857 22.4199 155.857 23.6919V27.2199C155.857 27.7479 155.977 28.1319 156.217 28.3719C156.457 28.6119 156.841 28.7319 157.369 28.7319C157.609 28.7319 157.837 28.7199 158.053 28.6959C158.293 28.6479 158.509 28.5879 158.701 28.5159L159.169 30.8199C158.713 31.0359 158.269 31.1799 157.837 31.2519C157.429 31.3239 157.021 31.3599 156.613 31.3599Z" fill="black"/>
<path d="M179.781 30.9999V16.9959C179.781 15.8199 179.505 14.9559 178.953 14.4039C178.425 13.8519 177.525 13.5759 176.253 13.5759C175.389 13.5759 174.573 13.6959 173.805 13.9359C173.061 14.1519 172.341 14.4639 171.645 14.8719V11.9919C172.125 11.7519 172.809 11.5119 173.697 11.2719C174.585 11.0319 175.641 10.9119 176.865 10.9119C178.113 10.9119 179.193 11.0919 180.105 11.4519C181.017 11.8119 181.725 12.4119 182.229 13.2519C182.733 14.0679 182.985 15.1599 182.985 16.5279V30.9999H179.781Z" fill="black"/>
<path d="M198.33 31.3599C196.794 31.3599 195.462 31.0599 194.334 30.4599C193.23 29.8359 192.474 28.9719 192.066 27.8679H191.922L191.742 30.9999H189.114V11.2719H192.318V22.6839C192.318 23.8839 192.522 24.9399 192.93 25.8519C193.362 26.7399 193.974 27.4359 194.766 27.9399C195.582 28.4199 196.554 28.6599 197.682 28.6599C199.098 28.6599 200.154 28.2879 200.85 27.5439C201.546 26.7999 201.894 25.7079 201.894 24.2679V11.2719H205.098V24.4839C205.098 26.0679 204.822 27.3639 204.27 28.3719C203.742 29.3799 202.974 30.1359 201.966 30.6399C200.958 31.1199 199.746 31.3599 198.33 31.3599Z" fill="black"/>
</svg>
