<svg width="246" height="31" viewBox="0 0 246 31" fill="none" xmlns="http://www.w3.org/2000/svg">
<path d="M0.204102 29.9999V10.2719H3.4081V18.8039H3.5161L11.7241 10.2719H15.4681V10.3799L3.4081 22.5839V29.9999H0.204102ZM12.4441 29.9999V23.0519C12.4441 21.6359 12.0121 20.5319 11.1481 19.7399C10.2841 18.9479 8.8561 18.5519 6.8641 18.5519L8.7361 16.2119C10.2481 16.2119 11.5081 16.4879 12.5161 17.0399C13.5481 17.5679 14.3281 18.3359 14.8561 19.3439C15.3841 20.3519 15.6481 21.5639 15.6481 22.9799V29.9999H12.4441Z" fill="black"/>
<path d="M30.549 30.3599C29.013 30.3599 27.681 30.0599 26.553 29.4599C25.449 28.8359 24.693 27.9719 24.285 26.8679H24.141L23.961 29.9999H21.333V10.2719H24.537V21.6839C24.537 22.8839 24.741 23.9399 25.149 24.8519C25.581 25.7399 26.193 26.4359 26.985 26.9399C27.801 27.4199 28.773 27.6599 29.901 27.6599C31.317 27.6599 32.373 27.2879 33.069 26.5439C33.765 25.7999 34.113 24.7079 34.113 23.2679V10.2719H37.317V23.4839C37.317 25.0679 37.041 26.3639 36.489 27.3719C35.961 28.3799 35.193 29.1359 34.185 29.6399C33.177 30.1199 31.965 30.3599 30.549 30.3599Z" fill="black"/>
<path d="M48.7383 29.9999V15.9959C48.7383 14.8199 48.4623 13.9559 47.9103 13.4039C47.3823 12.8519 46.4823 12.5759 45.2103 12.5759C44.3463 12.5759 43.5303 12.6959 42.7623 12.9359C42.0183 13.1519 41.2983 13.4639 40.6023 13.8719V10.9919C41.0823 10.7519 41.7663 10.5119 42.6543 10.2719C43.5423 10.0319 44.5983 9.91192 45.8223 9.91192C47.0703 9.91192 48.1503 10.0919 49.0623 10.4519C49.9743 10.8119 50.6823 11.4119 51.1863 12.2519C51.6903 13.0679 51.9423 14.1599 51.9423 15.5279V29.9999H48.7383Z" fill="black"/>
<path d="M65.3793 30.3239C63.4353 30.3239 61.8753 30.0719 60.6993 29.5679C59.5473 29.0639 58.7073 28.3559 58.1793 27.4439C57.6753 26.5319 57.4233 25.4519 57.4233 24.2039C57.4233 23.0999 57.5793 22.2239 57.8913 21.5759C58.2273 20.9039 58.6353 20.4119 59.1153 20.0999C59.6193 19.7879 60.1353 19.5839 60.6633 19.4879V19.3439C60.1833 19.1999 59.6793 18.9599 59.1513 18.6239C58.6233 18.2879 58.1793 17.8199 57.8193 17.2199C57.4833 16.6199 57.3153 15.8639 57.3153 14.9519C57.3153 14.1119 57.5073 13.3199 57.8913 12.5759C58.2753 11.8319 58.8993 11.2199 59.7633 10.7399C60.6273 10.2599 61.7673 10.0199 63.1833 10.0199C63.7593 10.0199 64.3593 10.0679 64.9833 10.1639C65.6073 10.2359 66.0873 10.3679 66.4233 10.5599L65.8473 13.0439C65.5833 12.9479 65.2353 12.8639 64.8033 12.7919C64.3953 12.6959 63.9633 12.6479 63.5073 12.6479C62.4993 12.6479 61.7553 12.8879 61.2753 13.3679C60.7953 13.8239 60.5553 14.4359 60.5553 15.2039C60.5553 16.0439 60.7593 16.6799 61.1673 17.1119C61.5993 17.5439 62.1393 17.8439 62.7873 18.0119C63.4593 18.1559 64.1553 18.2279 64.8753 18.2279H65.5593V20.5679H64.8753C63.4353 20.5679 62.3673 20.8319 61.6713 21.3599C60.9993 21.8639 60.6633 22.7159 60.6633 23.9159C60.6633 24.6119 60.7953 25.2479 61.0593 25.8239C61.3473 26.3999 61.8273 26.8559 62.4993 27.1919C63.1953 27.5279 64.1553 27.6959 65.3793 27.6959C66.6033 27.6959 67.5513 27.5279 68.2233 27.1919C68.9193 26.8559 69.4113 26.3759 69.6993 25.7519C69.9873 25.1039 70.1313 24.3359 70.1313 23.4479V10.2719H73.3353V23.2319C73.3353 25.7519 72.6873 27.5639 71.3913 28.6679C70.1193 29.7719 68.1153 30.3239 65.3793 30.3239Z" fill="black"/>
<path d="M83.6223 30.3599C82.9743 30.3599 82.3503 30.2519 81.7503 30.0359C81.1503 29.8199 80.6583 29.4359 80.2743 28.8839C79.8903 28.3319 79.6983 27.5639 79.6983 26.5799V10.2719H82.9023V26.1839C82.9023 26.7359 83.0223 27.1319 83.2623 27.3719C83.5023 27.6119 83.8863 27.7319 84.4143 27.7319C84.6303 27.7319 84.8583 27.7079 85.0983 27.6599C85.3383 27.6119 85.5663 27.5519 85.7823 27.4799L86.2143 29.8199C85.7583 30.0359 85.3143 30.1799 84.8823 30.2519C84.4503 30.3239 84.0303 30.3599 83.6223 30.3599Z" fill="black"/>
<path d="M100.98 29.9999V16.8599C100.98 15.2999 100.62 14.1959 99.8999 13.5479C99.2039 12.8759 98.0279 12.5399 96.3719 12.5399C95.1719 12.5399 94.0199 12.7079 92.9159 13.0439C91.8359 13.3559 90.8039 13.7999 89.8199 14.3759V11.3879C90.5159 11.0279 91.4519 10.6919 92.6279 10.3799C93.8279 10.0679 95.1719 9.91192 96.6599 9.91192C97.9319 9.91192 99.0359 10.0559 99.9719 10.3439C100.908 10.6079 101.676 11.0159 102.276 11.5679C102.9 12.1199 103.368 12.8279 103.68 13.6919C103.992 14.5319 104.148 15.5279 104.148 16.6799V29.9999H100.98ZM94.7879 30.3599C92.6759 30.3599 91.0559 29.8799 89.9279 28.9199C88.8239 27.9359 88.2719 26.5319 88.2719 24.7079C88.2719 22.7159 88.9919 21.1799 90.4319 20.0999C91.8959 19.0199 94.2599 18.3839 97.5239 18.1919L101.628 17.9399V20.6039L97.9559 20.8559C95.5079 21.0239 93.8159 21.4079 92.8799 22.0079C91.9679 22.6079 91.5119 23.4839 91.5119 24.6359C91.5119 25.7159 91.8479 26.5079 92.5199 27.0119C93.2159 27.5159 94.1759 27.7679 95.3999 27.7679C95.8079 27.7679 96.1799 27.7439 96.5159 27.6959C96.8519 27.6239 97.1759 27.5399 97.4879 27.4439L97.9919 29.8559C97.5359 30.0239 97.0319 30.1439 96.4799 30.2159C95.9519 30.3119 95.3879 30.3599 94.7879 30.3599Z" fill="black"/>
<path d="M116.938 30.3599C114.682 30.3599 112.93 29.8199 111.682 28.7399C110.458 27.6359 109.846 25.9919 109.846 23.8079V21.6119C109.846 20.4119 110.014 19.4639 110.35 18.7679C110.686 18.0719 111.046 17.4719 111.43 16.9679C111.838 16.4159 112.186 15.9359 112.474 15.5279C112.786 15.1199 112.942 14.6279 112.942 14.0519C112.942 13.5479 112.81 13.1879 112.546 12.9719C112.306 12.7559 111.994 12.6479 111.61 12.6479C111.322 12.6479 111.01 12.6959 110.674 12.7919C110.362 12.8879 110.05 13.0079 109.738 13.1519L109.018 10.8479C109.45 10.5599 109.978 10.3559 110.602 10.2359C111.25 10.1159 111.814 10.0559 112.294 10.0559C113.182 10.0559 113.89 10.2119 114.418 10.5239C114.97 10.8359 115.366 11.2679 115.606 11.8199C115.846 12.3479 115.966 12.9719 115.966 13.6919C115.966 14.5799 115.81 15.3119 115.498 15.8879C115.21 16.4639 114.862 17.0279 114.454 17.5799C114.046 18.1799 113.71 18.7559 113.446 19.3079C113.182 19.8599 113.05 20.5799 113.05 21.4679V23.5919C113.05 24.6959 113.23 25.5479 113.59 26.1479C113.95 26.7479 114.43 27.1679 115.03 27.4079C115.63 27.6239 116.266 27.7319 116.938 27.7319C118.138 27.7319 119.05 27.4559 119.674 26.9039C120.322 26.3279 120.646 25.4519 120.646 24.2759V10.2719H123.85V24.4559C123.85 26.3039 123.262 27.7559 122.086 28.8119C120.934 29.8439 119.218 30.3599 116.938 30.3599Z" fill="black"/>
<path d="M130.722 13.8719V6.81592C130.722 5.37592 130.374 4.34392 129.678 3.71992C129.006 3.09592 128.142 2.78392 127.086 2.78392V1.41592L129.75 0.263916H139.362V2.78392H132.054L132.018 2.92792C132.546 3.28792 132.99 3.83992 133.35 4.58392C133.734 5.30392 133.926 6.25191 133.926 7.42792V13.8719H130.722ZM134.646 30.3599C133.998 30.3599 133.374 30.2519 132.774 30.0359C132.174 29.8199 131.682 29.4359 131.298 28.8839C130.914 28.3319 130.722 27.5639 130.722 26.5799V10.2719H133.926V26.1839C133.926 26.7359 134.046 27.1319 134.286 27.3719C134.526 27.6119 134.91 27.7319 135.438 27.7319C135.654 27.7319 135.882 27.7079 136.122 27.6599C136.362 27.6119 136.59 27.5519 136.806 27.4799L137.238 29.8199C136.782 30.0359 136.338 30.1799 135.906 30.2519C135.474 30.3239 135.054 30.3599 134.646 30.3599Z" fill="black"/>
<path d="M140.86 29.9999V10.2719H143.092L143.668 13.4039H143.812C144.22 12.3239 144.964 11.4719 146.044 10.8479C147.124 10.2239 148.432 9.91192 149.968 9.91192C151.408 9.91192 152.632 10.1639 153.64 10.6679C154.672 11.1479 155.464 11.8919 156.016 12.8999C156.568 13.9079 156.844 15.2159 156.844 16.8239V29.9999H153.64V17.0039C153.64 15.5639 153.28 14.4719 152.56 13.7279C151.84 12.9839 150.772 12.6119 149.356 12.6119C148.228 12.6119 147.268 12.8759 146.476 13.4039C145.684 13.9319 145.084 14.6519 144.676 15.5639C144.268 16.4519 144.064 17.4599 144.064 18.5879V29.9999H140.86Z" fill="black"/>
<path d="M168.234 30.3599C166.818 30.3599 165.498 30.2279 164.274 29.9639C163.074 29.6759 162.054 29.3399 161.214 28.9559L162.15 26.3639C162.654 26.5559 163.23 26.7599 163.878 26.9759C164.526 27.1919 165.222 27.3719 165.966 27.5159C166.734 27.6359 167.514 27.6959 168.306 27.6959C169.578 27.6959 170.634 27.4559 171.474 26.9759C172.314 26.4959 172.734 25.7999 172.734 24.8879C172.734 24.3359 172.578 23.8679 172.266 23.4839C171.978 23.0759 171.522 22.7039 170.898 22.3679C170.274 22.0319 169.47 21.7079 168.486 21.3959C166.974 20.9159 165.69 20.4119 164.634 19.8839C163.602 19.3319 162.81 18.6839 162.258 17.9399C161.73 17.1719 161.466 16.2239 161.466 15.0959C161.466 14.0879 161.73 13.1999 162.258 12.4319C162.81 11.6399 163.65 11.0279 164.778 10.5959C165.93 10.1399 167.394 9.91192 169.17 9.91192C170.322 9.91192 171.402 10.0199 172.41 10.2359C173.442 10.4279 174.246 10.7039 174.822 11.0639V13.7639C174.414 13.5719 173.898 13.3799 173.274 13.1879C172.674 12.9959 172.014 12.8399 171.294 12.7199C170.574 12.5999 169.83 12.5399 169.062 12.5399C167.454 12.5399 166.314 12.7919 165.642 13.2959C164.994 13.7759 164.67 14.3279 164.67 14.9519C164.67 15.4799 164.814 15.9239 165.102 16.2839C165.414 16.6439 165.93 16.9919 166.65 17.3279C167.394 17.6639 168.39 18.0479 169.638 18.4799C170.79 18.8639 171.846 19.3079 172.806 19.8119C173.766 20.3159 174.522 20.9519 175.074 21.7199C175.65 22.4639 175.938 23.4239 175.938 24.5999C175.938 25.6079 175.686 26.5559 175.182 27.4439C174.702 28.3079 173.898 29.0159 172.77 29.5679C171.642 30.0959 170.13 30.3599 168.234 30.3599Z" fill="black"/>
<path d="M180.268 29.9999V17.3999C180.268 14.9759 180.916 13.1279 182.212 11.8559C183.508 10.5599 185.572 9.91192 188.404 9.91192C189.748 9.91192 190.9 10.0799 191.86 10.4159C192.82 10.7279 193.576 11.2679 194.128 12.0359C194.992 12.4679 195.604 13.1519 195.964 14.0879C196.348 15.0239 196.54 16.1279 196.54 17.3999V29.9999H193.336V17.3999C193.336 15.7919 192.916 14.5919 192.076 13.7999C191.26 12.9839 190.036 12.5759 188.404 12.5759C186.772 12.5759 185.536 12.9839 184.696 13.7999C183.88 14.5919 183.472 15.7919 183.472 17.3999V21.3959L183.58 21.4319C184.132 20.4959 184.78 19.8839 185.524 19.5959C186.292 19.2839 187.372 19.1279 188.764 19.1279H189.952V21.7559H188.764C187.324 21.7559 186.22 21.9599 185.452 22.3679C184.684 22.7759 184.156 23.3159 183.868 23.9879C183.604 24.6359 183.472 25.3679 183.472 26.1839V29.9999H180.268ZM194.128 13.0439L192.328 11.3519C192.952 11.2559 193.54 11.0159 194.092 10.6319C194.644 10.2479 194.92 9.69592 194.92 8.97591H198.052C198.052 9.71992 197.872 10.3799 197.512 10.9559C197.152 11.5079 196.672 11.9639 196.072 12.3239C195.496 12.6599 194.848 12.8999 194.128 13.0439Z" fill="black"/>
<path d="M191.794 7.13992C190.786 7.13992 189.982 6.99592 189.382 6.70792C188.782 6.41992 188.35 6.04792 188.086 5.59192C187.798 5.13592 187.654 4.65592 187.654 4.15192C187.654 3.79192 187.714 3.40792 187.834 2.99992C187.93 2.56792 188.062 2.21992 188.23 1.95592L190.93 2.42392C190.882 2.51992 190.834 2.68792 190.786 2.92792C190.738 3.14392 190.714 3.34792 190.714 3.53992C190.714 3.85191 190.81 4.12792 191.002 4.36792C191.194 4.58392 191.518 4.69192 191.974 4.69192H201.082V7.13992H191.794Z" fill="black"/>
<path d="M204.997 29.9999L201.433 10.2719H204.709L206.113 18.8399C206.233 19.5359 206.353 20.4359 206.473 21.5399C206.593 22.6439 206.737 23.9519 206.905 25.4639H207.013C207.229 24.4319 207.433 23.5079 207.625 22.6919C207.841 21.8759 208.033 21.1439 208.201 20.4959C208.393 19.8239 208.561 19.2359 208.705 18.7319L211.117 10.2719H213.745L216.193 18.7319C216.337 19.2359 216.493 19.8239 216.661 20.4959C216.853 21.1439 217.045 21.8759 217.237 22.6919C217.453 23.5079 217.669 24.4319 217.885 25.4639H218.029C218.173 23.9519 218.305 22.6439 218.425 21.5399C218.545 20.4359 218.665 19.5359 218.785 18.8399L220.225 10.2719H223.501L219.937 29.9999H216.805L213.493 19.2719C213.325 18.6719 213.157 18.0479 212.989 17.3999C212.845 16.7519 212.701 15.8999 212.557 14.8439H212.413C212.317 15.5399 212.209 16.1519 212.089 16.6799C211.969 17.2079 211.849 17.6759 211.729 18.0839C211.609 18.4919 211.489 18.8879 211.369 19.2719L208.129 29.9999H204.997Z" fill="black"/>
<path d="M228.012 29.9999V10.2719H230.244L230.82 13.4039H230.964C231.372 12.3239 232.116 11.4719 233.196 10.8479C234.276 10.2239 235.584 9.91192 237.12 9.91192C238.56 9.91192 239.784 10.1639 240.792 10.6679C241.824 11.1479 242.616 11.8919 243.168 12.8999C243.72 13.9079 243.996 15.2159 243.996 16.8239V29.9999H240.792V17.0039C240.792 15.5639 240.432 14.4719 239.712 13.7279C238.992 12.9839 237.924 12.6119 236.508 12.6119C235.38 12.6119 234.42 12.8759 233.628 13.4039C232.836 13.9319 232.236 14.6519 231.828 15.5639C231.42 16.4519 231.216 17.4599 231.216 18.5879V29.9999H228.012Z" fill="black"/>
<path d="M237.712 8.18392C237.544 7.91992 237.412 7.58392 237.316 7.17592C237.196 6.74392 237.136 6.32392 237.136 5.91592C237.136 5.41191 237.244 4.94392 237.46 4.51192C237.676 4.05592 238.06 3.68392 238.612 3.39592C239.164 3.10792 239.932 2.96392 240.916 2.96392H245.848V5.44792H241.744C241.264 5.44792 240.88 5.54392 240.592 5.73592C240.304 5.90392 240.16 6.20391 240.16 6.63591C240.16 6.80392 240.196 6.98392 240.268 7.17592C240.316 7.36792 240.388 7.55992 240.484 7.75192L237.712 8.18392Z" fill="black"/>
</svg>
