<svg width="103" height="63" viewBox="0 0 103 63" fill="none" xmlns="http://www.w3.org/2000/svg">
<ellipse cx="41.3859" cy="31.5" rx="41.3859" ry="31.5" fill="#FF611D"/>
<ellipse cx="73.6529" cy="32.2159" rx="28.7597" ry="26.4886" fill="#60038B"/>
<path d="M21.1416 13.6787L23.1256 13.6307L23.2536 14.3347C22.6563 14.3987 22.2883 14.4627 22.1496 14.5267C22.0216 14.58 21.9576 14.724 21.9576 14.9587V23.2147C21.9576 23.652 22.0483 23.94 22.2296 24.0787C22.411 24.2174 22.6776 24.2867 23.0296 24.2867H24.5816C25.3923 24.2867 26.027 24.1 26.4856 23.7267C26.9443 23.3427 27.307 22.756 27.5736 21.9667L28.1176 22.0627C28.1176 22.2547 27.979 22.7987 27.7016 23.6947C27.4243 24.58 27.227 25.0227 27.1096 25.0227L23.0296 25.0547L21.0776 25.0227L19.3016 25.0707L19.1736 24.3667C19.7816 24.3027 20.155 24.2387 20.2936 24.1747C20.4323 24.1107 20.5016 23.9667 20.5016 23.7427V14.9587C20.5016 14.7347 20.427 14.5854 20.2776 14.5107C20.1283 14.436 19.7816 14.3774 19.2376 14.3347L19.0936 13.6307L21.1416 13.6787ZM31.7218 24.3187C32.2658 24.3187 32.6711 24.1374 32.9378 23.7747V21.9827C32.0204 22.1427 31.4071 22.324 31.0978 22.5267C30.7884 22.7187 30.6338 22.996 30.6338 23.3587C30.6551 23.6894 30.7671 23.9347 30.9698 24.0947C31.1724 24.244 31.4231 24.3187 31.7218 24.3187ZM34.9698 24.2227H35.3058C35.3591 24.2227 35.3964 24.2174 35.4178 24.2067C35.4604 24.484 35.4978 24.6547 35.5298 24.7187C35.4018 24.7827 35.1084 24.884 34.6498 25.0227C34.2018 25.1507 33.8711 25.2147 33.6578 25.2147C33.4444 25.2147 33.2951 25.14 33.2098 24.9907C33.1244 24.8307 33.0604 24.5534 33.0178 24.1587C32.8364 24.4147 32.5644 24.6494 32.2018 24.8627C31.8498 25.076 31.4924 25.1934 31.1298 25.2147H31.0498C30.5378 25.2147 30.0951 25.0707 29.7218 24.7827C29.3591 24.4947 29.1778 24.0787 29.1778 23.5347C29.1778 22.9907 29.4284 22.5747 29.9298 22.2867C30.4418 21.988 31.4444 21.7 32.9378 21.4227V20.4627C32.9378 19.3107 32.5058 18.7347 31.6418 18.7347C31.3431 18.7347 31.0604 18.8094 30.7938 18.9587V20.0467C30.7938 20.1 30.6498 20.1534 30.3618 20.2067C30.0844 20.26 29.8978 20.2867 29.8018 20.2867C29.7164 20.2867 29.6311 20.276 29.5458 20.2547C29.4604 20.1694 29.4178 19.9774 29.4178 19.6787C29.4178 19.38 29.5031 19.1347 29.6738 18.9427C29.8338 18.7294 30.2178 18.5107 30.8258 18.2867C31.4338 18.0627 31.9084 17.9507 32.2498 17.9507C33.5938 17.9507 34.2658 18.708 34.2658 20.2227V23.4227C34.2658 23.764 34.3298 23.9827 34.4578 24.0787C34.5964 24.1747 34.7671 24.2227 34.9698 24.2227ZM36.4929 19.1187L36.2529 19.1347L36.1089 18.6707C36.8556 18.4894 37.4049 18.308 37.7569 18.1267C38.1089 17.9454 38.3062 17.844 38.3489 17.8227C38.4876 17.8227 38.5676 17.8334 38.5889 17.8547C38.6316 17.8974 38.6636 18.2387 38.6849 18.8787C39.1969 18.5694 39.6449 18.34 40.0289 18.1907C40.4236 18.0307 40.8502 17.9507 41.3089 17.9507C42.7916 17.9507 43.5329 18.7454 43.5329 20.3347V23.8867C43.5329 24.0787 43.5809 24.212 43.6769 24.2867C43.7729 24.3507 44.0076 24.3987 44.3809 24.4307L44.5249 25.0707L42.9569 25.0227L41.2289 25.0707L41.1009 24.4307C41.6129 24.388 41.9169 24.3454 42.0129 24.3027C42.1196 24.2494 42.1729 24.1107 42.1729 23.8867V20.8787C42.1729 20.196 42.0396 19.7214 41.7729 19.4547C41.5062 19.188 41.0849 19.0547 40.5089 19.0547C39.9329 19.0547 39.3356 19.204 38.7169 19.5027V23.8867C38.7169 24.0787 38.7649 24.212 38.8609 24.2867C38.9569 24.3507 39.1916 24.3987 39.5649 24.4307L39.7089 25.0707L38.1409 25.0227L36.4129 25.0707L36.2849 24.4307C36.7969 24.388 37.1009 24.3454 37.1969 24.3027C37.3036 24.2494 37.3569 24.1107 37.3569 23.8867V20.1427C37.3569 19.7587 37.2876 19.492 37.1489 19.3427C37.0102 19.1934 36.7916 19.1187 36.4929 19.1187ZM51.1353 20.3507C51.1353 21.14 50.8686 21.7747 50.3353 22.2547C49.8019 22.724 49.1566 22.9587 48.3993 22.9587C48.2286 22.9587 48.0526 22.9534 47.8713 22.9427C47.7006 22.9214 47.5246 22.964 47.3433 23.0707C47.1619 23.1774 47.0713 23.3054 47.0713 23.4547C47.0713 23.7107 47.2899 23.9027 47.7273 24.0307C47.9833 24.0947 48.5006 24.164 49.2793 24.2387C50.0579 24.3134 50.5966 24.4147 50.8953 24.5427C51.5459 24.82 51.8713 25.3747 51.8713 26.2067C51.8713 27.0387 51.4979 27.764 50.7513 28.3827C50.0153 29.0014 49.1139 29.3107 48.0473 29.3107C47.2579 29.3107 46.5646 29.1294 45.9673 28.7667C45.3699 28.4147 45.0713 27.8707 45.0713 27.1347C45.0713 26.7934 45.1459 26.5427 45.2953 26.3827C45.4553 26.2334 45.6206 26.0894 45.7913 25.9507C45.9726 25.812 46.1806 25.6574 46.4153 25.4867C46.6499 25.316 46.7886 25.2147 46.8313 25.1827C46.5646 25.076 46.3246 24.9107 46.1113 24.6867C45.8979 24.452 45.7913 24.244 45.7913 24.0627C45.7913 23.8814 45.8339 23.748 45.9193 23.6627C46.1326 23.4494 46.5273 23.1454 47.1033 22.7507C46.6766 22.5587 46.3193 22.276 46.0313 21.9027C45.7433 21.5294 45.5993 21.092 45.5993 20.5907C45.5993 19.8334 45.8659 19.204 46.3993 18.7027C46.9326 18.2014 47.5779 17.9507 48.3353 17.9507C48.7513 17.9507 49.1353 18.004 49.4873 18.1107C49.9566 18.2067 50.4259 18.2547 50.8953 18.2547C51.3646 18.2547 51.8019 18.244 52.2073 18.2227C52.2073 18.3294 52.1859 18.5054 52.1433 18.7507C52.1006 18.9854 52.0419 19.1507 51.9673 19.2467L50.7513 19.0227C51.0073 19.4174 51.1353 19.86 51.1353 20.3507ZM48.4473 28.5107C49.0553 28.5107 49.5513 28.3454 49.9353 28.0147C50.3193 27.6947 50.5113 27.2894 50.5113 26.7987C50.5113 26.308 50.2926 25.9454 49.8553 25.7107C49.4179 25.4867 48.7353 25.3747 47.8073 25.3747C47.5619 25.3747 47.3539 25.428 47.1833 25.5347C47.0126 25.6414 46.8846 25.7267 46.7993 25.7907C46.7139 25.8547 46.6179 25.9774 46.5113 26.1587C46.4046 26.34 46.3513 26.548 46.3513 26.7827C46.3513 27.2734 46.5486 27.684 46.9433 28.0147C47.3486 28.3454 47.8499 28.5107 48.4473 28.5107ZM48.4953 22.2547C49.4446 22.2547 49.9193 21.7107 49.9193 20.6227C49.9193 20.0147 49.7753 19.5294 49.4873 19.1667C49.2099 18.804 48.8259 18.6227 48.3353 18.6227C47.8446 18.6227 47.4659 18.7614 47.1993 19.0387C46.9433 19.316 46.8153 19.7374 46.8153 20.3027C46.8153 20.868 46.9753 21.3374 47.2953 21.7107C47.6153 22.0734 48.0153 22.2547 48.4953 22.2547ZM56.0399 25.2147C54.5146 25.2147 53.7519 24.4094 53.7519 22.7987V19.2467C53.7519 19.0654 53.6986 18.9427 53.5919 18.8787C53.4852 18.804 53.2452 18.7454 52.8719 18.7027L52.7599 18.0947C53.0479 18.1267 53.4372 18.1427 53.9279 18.1427C54.4292 18.1427 54.8239 18.1267 55.1119 18.0947V22.2547C55.1119 23.492 55.6772 24.1107 56.8079 24.1107C57.1066 24.1107 57.4106 24.052 57.7199 23.9347C58.0292 23.8067 58.2746 23.652 58.4559 23.4707V19.2467C58.4559 19.0547 58.4026 18.9267 58.2959 18.8627C58.1999 18.7987 57.9706 18.7454 57.6079 18.7027L57.4639 18.0947C57.7306 18.1267 58.1199 18.1427 58.6319 18.1427C59.1546 18.1427 59.5492 18.1267 59.8159 18.0947V23.2307C59.8159 23.5827 59.8692 23.8387 59.9759 23.9987C60.0932 24.1587 60.2799 24.2387 60.5359 24.2387H61.1119L61.2239 24.7507C61.0959 24.772 60.8612 24.8094 60.5199 24.8627C60.1892 24.9054 59.9599 24.9374 59.8319 24.9587C59.7039 24.98 59.5226 25.0227 59.2879 25.0867C59.0639 25.1614 58.8932 25.2094 58.7759 25.2307C58.6372 25.2307 58.5679 25.1934 58.5679 25.1187L58.5199 24.1267C58.3492 24.2974 58.2319 24.4094 58.1679 24.4627C58.1039 24.5054 58.0132 24.5694 57.8959 24.6547C57.7892 24.74 57.6719 24.8094 57.5439 24.8627C57.4266 24.916 57.2879 24.9694 57.1279 25.0227C56.8079 25.1507 56.4452 25.2147 56.0399 25.2147ZM64.7218 24.3187C65.2658 24.3187 65.6711 24.1374 65.9378 23.7747V21.9827C65.0204 22.1427 64.4071 22.324 64.0978 22.5267C63.7884 22.7187 63.6338 22.996 63.6338 23.3587C63.6551 23.6894 63.7671 23.9347 63.9698 24.0947C64.1724 24.244 64.4231 24.3187 64.7218 24.3187ZM67.9698 24.2227H68.3058C68.3591 24.2227 68.3964 24.2174 68.4178 24.2067C68.4604 24.484 68.4978 24.6547 68.5298 24.7187C68.4018 24.7827 68.1084 24.884 67.6498 25.0227C67.2018 25.1507 66.8711 25.2147 66.6578 25.2147C66.4444 25.2147 66.2951 25.14 66.2098 24.9907C66.1244 24.8307 66.0604 24.5534 66.0178 24.1587C65.8364 24.4147 65.5644 24.6494 65.2018 24.8627C64.8498 25.076 64.4924 25.1934 64.1298 25.2147H64.0498C63.5378 25.2147 63.0951 25.0707 62.7218 24.7827C62.3591 24.4947 62.1778 24.0787 62.1778 23.5347C62.1778 22.9907 62.4284 22.5747 62.9298 22.2867C63.4418 21.988 64.4444 21.7 65.9378 21.4227V20.4627C65.9378 19.3107 65.5058 18.7347 64.6418 18.7347C64.3431 18.7347 64.0604 18.8094 63.7938 18.9587V20.0467C63.7938 20.1 63.6498 20.1534 63.3618 20.2067C63.0844 20.26 62.8978 20.2867 62.8018 20.2867C62.7164 20.2867 62.6311 20.276 62.5458 20.2547C62.4604 20.1694 62.4178 19.9774 62.4178 19.6787C62.4178 19.38 62.5031 19.1347 62.6738 18.9427C62.8338 18.7294 63.2178 18.5107 63.8258 18.2867C64.4338 18.0627 64.9084 17.9507 65.2498 17.9507C66.5938 17.9507 67.2658 18.708 67.2658 20.2227V23.4227C67.2658 23.764 67.3298 23.9827 67.4578 24.0787C67.5964 24.1747 67.7671 24.2227 67.9698 24.2227ZM74.9009 20.3507C74.9009 21.14 74.6342 21.7747 74.1009 22.2547C73.5676 22.724 72.9222 22.9587 72.1649 22.9587C71.9942 22.9587 71.8182 22.9534 71.6369 22.9427C71.4662 22.9214 71.2902 22.964 71.1089 23.0707C70.9276 23.1774 70.8369 23.3054 70.8369 23.4547C70.8369 23.7107 71.0556 23.9027 71.4929 24.0307C71.7489 24.0947 72.2662 24.164 73.0449 24.2387C73.8236 24.3134 74.3622 24.4147 74.6609 24.5427C75.3116 24.82 75.6369 25.3747 75.6369 26.2067C75.6369 27.0387 75.2636 27.764 74.5169 28.3827C73.7809 29.0014 72.8796 29.3107 71.8129 29.3107C71.0236 29.3107 70.3302 29.1294 69.7329 28.7667C69.1356 28.4147 68.8369 27.8707 68.8369 27.1347C68.8369 26.7934 68.9116 26.5427 69.0609 26.3827C69.2209 26.2334 69.3862 26.0894 69.5569 25.9507C69.7382 25.812 69.9462 25.6574 70.1809 25.4867C70.4156 25.316 70.5542 25.2147 70.5969 25.1827C70.3302 25.076 70.0902 24.9107 69.8769 24.6867C69.6636 24.452 69.5569 24.244 69.5569 24.0627C69.5569 23.8814 69.5996 23.748 69.6849 23.6627C69.8982 23.4494 70.2929 23.1454 70.8689 22.7507C70.4422 22.5587 70.0849 22.276 69.7969 21.9027C69.5089 21.5294 69.3649 21.092 69.3649 20.5907C69.3649 19.8334 69.6316 19.204 70.1649 18.7027C70.6982 18.2014 71.3436 17.9507 72.1009 17.9507C72.5169 17.9507 72.9009 18.004 73.2529 18.1107C73.7222 18.2067 74.1916 18.2547 74.6609 18.2547C75.1302 18.2547 75.5676 18.244 75.9729 18.2227C75.9729 18.3294 75.9516 18.5054 75.9089 18.7507C75.8662 18.9854 75.8076 19.1507 75.7329 19.2467L74.5169 19.0227C74.7729 19.4174 74.9009 19.86 74.9009 20.3507ZM72.2129 28.5107C72.8209 28.5107 73.3169 28.3454 73.7009 28.0147C74.0849 27.6947 74.2769 27.2894 74.2769 26.7987C74.2769 26.308 74.0582 25.9454 73.6209 25.7107C73.1836 25.4867 72.5009 25.3747 71.5729 25.3747C71.3276 25.3747 71.1196 25.428 70.9489 25.5347C70.7782 25.6414 70.6502 25.7267 70.5649 25.7907C70.4796 25.8547 70.3836 25.9774 70.2769 26.1587C70.1702 26.34 70.1169 26.548 70.1169 26.7827C70.1169 27.2734 70.3142 27.684 70.7089 28.0147C71.1142 28.3454 71.6156 28.5107 72.2129 28.5107ZM72.2609 22.2547C73.2102 22.2547 73.6849 21.7107 73.6849 20.6227C73.6849 20.0147 73.5409 19.5294 73.2529 19.1667C72.9756 18.804 72.5916 18.6227 72.1009 18.6227C71.6102 18.6227 71.2316 18.7614 70.9649 19.0387C70.7089 19.316 70.5809 19.7374 70.5809 20.3027C70.5809 20.868 70.7409 21.3374 71.0609 21.7107C71.3809 22.0734 71.7809 22.2547 72.2609 22.2547ZM82.9895 21.1347H78.3495V21.3427C78.3495 22.1214 78.5682 22.7987 79.0055 23.3747C79.4429 23.94 80.0242 24.2227 80.7495 24.2227C81.4749 24.2227 82.0722 23.988 82.5415 23.5187C82.5735 23.4867 82.6002 23.4707 82.6215 23.4707C82.6429 23.4707 82.6695 23.4867 82.7015 23.5187L83.0535 23.9187C82.2535 24.7827 81.3255 25.2147 80.2695 25.2147C79.2242 25.2147 78.3975 24.884 77.7895 24.2227C77.1922 23.5614 76.8935 22.6814 76.8935 21.5827C76.8935 20.4734 77.2349 19.5934 77.9175 18.9427C78.6002 18.2814 79.3789 17.9507 80.2535 17.9507C81.1282 17.9507 81.8162 18.2174 82.3175 18.7507C82.8189 19.2734 83.0695 20.0094 83.0695 20.9587C83.0695 21.076 83.0429 21.1347 82.9895 21.1347ZM81.4695 20.3827C81.4695 19.2094 81.0162 18.6227 80.1095 18.6227C79.6295 18.6227 79.2402 18.7934 78.9415 19.1347C78.6429 19.4654 78.4615 19.8814 78.3975 20.3827H81.4695ZM25.5576 35.2387C24.0856 35.2387 22.9763 35.7027 22.2296 36.6307C21.4936 37.548 21.1256 38.7374 21.1256 40.1987C21.1256 41.6494 21.5576 42.8814 22.4216 43.8947C23.2856 44.908 24.4056 45.4147 25.7816 45.4147C27.6696 45.4147 28.9496 44.5987 29.6216 42.9667L30.0856 43.0627C30.0856 43.18 29.979 43.5854 29.7656 44.2787C29.563 44.9614 29.4136 45.3027 29.3176 45.3027C28.2403 45.9107 26.955 46.2147 25.4616 46.2147C23.6803 46.2147 22.2296 45.6867 21.1096 44.6307C20.0003 43.5747 19.4456 42.22 19.4456 40.5667C19.4456 38.6894 20.0216 37.2067 21.1736 36.1187C22.3363 35.02 23.835 34.4707 25.6696 34.4707C26.3416 34.4707 27.1363 34.5667 28.0536 34.7587C28.9816 34.94 29.4936 35.036 29.5896 35.0467C29.6643 35.2067 29.7016 35.564 29.7016 36.1187C29.7016 36.6734 29.675 37.244 29.6216 37.8307L29.1736 37.7827C29.0883 37.164 28.9123 36.684 28.6456 36.3427C28.0696 35.6067 27.0403 35.2387 25.5576 35.2387ZM37.5051 42.1347H32.8651V42.3427C32.8651 43.1214 33.0838 43.7987 33.5211 44.3747C33.9585 44.94 34.5398 45.2227 35.2651 45.2227C35.9905 45.2227 36.5878 44.988 37.0571 44.5187C37.0891 44.4867 37.1158 44.4707 37.1371 44.4707C37.1585 44.4707 37.1851 44.4867 37.2171 44.5187L37.5691 44.9187C36.7691 45.7827 35.8411 46.2147 34.7851 46.2147C33.7398 46.2147 32.9131 45.884 32.3051 45.2227C31.7078 44.5614 31.4091 43.6814 31.4091 42.5827C31.4091 41.4734 31.7505 40.5934 32.4331 39.9427C33.1158 39.2814 33.8945 38.9507 34.7691 38.9507C35.6438 38.9507 36.3318 39.2174 36.8331 39.7507C37.3345 40.2734 37.5851 41.0094 37.5851 41.9587C37.5851 42.076 37.5585 42.1347 37.5051 42.1347ZM35.9851 41.3827C35.9851 40.2094 35.5318 39.6227 34.6251 39.6227C34.1451 39.6227 33.7558 39.7934 33.4571 40.1347C33.1585 40.4654 32.9771 40.8814 32.9131 41.3827H35.9851ZM38.9929 40.1187L38.7529 40.1347L38.6089 39.6707C39.3556 39.4894 39.9049 39.308 40.2569 39.1267C40.6089 38.9454 40.8062 38.844 40.8489 38.8227C40.9876 38.8227 41.0676 38.8334 41.0889 38.8547C41.1316 38.8974 41.1636 39.2387 41.1849 39.8787C41.6969 39.5694 42.1449 39.34 42.5289 39.1907C42.9236 39.0307 43.3502 38.9507 43.8089 38.9507C45.2916 38.9507 46.0329 39.7454 46.0329 41.3347V44.8867C46.0329 45.0787 46.0809 45.212 46.1769 45.2867C46.2729 45.3507 46.5076 45.3987 46.8809 45.4307L47.0249 46.0707L45.4569 46.0227L43.7289 46.0707L43.6009 45.4307C44.1129 45.388 44.4169 45.3454 44.5129 45.3027C44.6196 45.2494 44.6729 45.1107 44.6729 44.8867V41.8787C44.6729 41.196 44.5396 40.7214 44.2729 40.4547C44.0062 40.188 43.5849 40.0547 43.0089 40.0547C42.4329 40.0547 41.8356 40.204 41.2169 40.5027V44.8867C41.2169 45.0787 41.2649 45.212 41.3609 45.2867C41.4569 45.3507 41.6916 45.3987 42.0649 45.4307L42.2089 46.0707L40.6409 46.0227L38.9129 46.0707L38.7849 45.4307C39.2969 45.388 39.6009 45.3454 39.6969 45.3027C39.8036 45.2494 39.8569 45.1107 39.8569 44.8867V41.1427C39.8569 40.7587 39.7876 40.492 39.6489 40.3427C39.5102 40.1934 39.2916 40.1187 38.9929 40.1187ZM49.8913 43.7667C49.8913 44.2787 49.9819 44.6734 50.1633 44.9507C50.3446 45.2174 50.5899 45.3507 50.8993 45.3507C51.2193 45.3507 51.5126 45.2654 51.7793 45.0947C51.8219 45.0734 51.8646 45.084 51.9073 45.1267L52.1953 45.5587C51.6086 45.996 51.0006 46.2147 50.3713 46.2147C49.7526 46.2147 49.2886 46.0227 48.9793 45.6387C48.6806 45.244 48.5313 44.78 48.5313 44.2467V40.2307C48.5313 40.1027 48.5099 40.0227 48.4673 39.9907C48.4353 39.9587 48.3873 39.9427 48.3233 39.9427H47.7633L47.6193 39.4787C48.0673 39.34 48.4299 39.116 48.7073 38.8067C48.9953 38.4974 49.2726 38.0814 49.5393 37.5587H49.7153C49.7899 37.5587 49.8273 37.5907 49.8273 37.6547L49.8913 38.9347C49.8913 39.0734 49.9606 39.1427 50.0993 39.1427H51.9233L52.0673 39.9427H50.0673C49.9606 39.9427 49.9073 40.0227 49.9073 40.1827C49.9073 40.1934 49.9073 40.1987 49.9073 40.1987V40.2307L49.8913 43.7667ZM53.462 40.1187L53.222 40.1347L53.078 39.6707C53.8247 39.4894 54.374 39.308 54.726 39.1267C55.078 38.9454 55.2754 38.844 55.318 38.8227C55.4567 38.8227 55.542 38.8334 55.574 38.8547C55.5847 38.876 55.6167 39.2814 55.67 40.0707C56.2994 39.324 56.9234 38.9507 57.542 38.9507C58.1607 38.9507 58.534 39.0734 58.662 39.3187C58.662 39.5534 58.4754 39.9107 58.102 40.3907C57.9847 40.5507 57.9154 40.6307 57.894 40.6307L56.614 40.1667H56.518C56.2834 40.1667 56.086 40.284 55.926 40.5187C55.766 40.7534 55.686 41.084 55.686 41.5107V44.8867C55.686 45.0787 55.766 45.2174 55.926 45.3027C56.086 45.388 56.4167 45.4307 56.918 45.4307L57.062 46.0707L55.206 46.0227L53.382 46.0707L53.254 45.4307C53.766 45.388 54.07 45.3454 54.166 45.3027C54.2727 45.2494 54.326 45.1107 54.326 44.8867V41.1427C54.326 40.7587 54.2567 40.492 54.118 40.3427C53.9794 40.1934 53.7607 40.1187 53.462 40.1187ZM65.3645 42.1347H60.7245V42.3427C60.7245 43.1214 60.9432 43.7987 61.3805 44.3747C61.8179 44.94 62.3992 45.2227 63.1245 45.2227C63.8499 45.2227 64.4472 44.988 64.9165 44.5187C64.9485 44.4867 64.9752 44.4707 64.9965 44.4707C65.0179 44.4707 65.0445 44.4867 65.0765 44.5187L65.4285 44.9187C64.6285 45.7827 63.7005 46.2147 62.6445 46.2147C61.5992 46.2147 60.7725 45.884 60.1645 45.2227C59.5672 44.5614 59.2685 43.6814 59.2685 42.5827C59.2685 41.4734 59.6099 40.5934 60.2925 39.9427C60.9752 39.2814 61.7539 38.9507 62.6285 38.9507C63.5032 38.9507 64.1912 39.2174 64.6925 39.7507C65.1939 40.2734 65.4445 41.0094 65.4445 41.9587C65.4445 42.076 65.4179 42.1347 65.3645 42.1347ZM63.8445 41.3827C63.8445 40.2094 63.3912 39.6227 62.4845 39.6227C62.0045 39.6227 61.6152 39.7934 61.3165 40.1347C61.0179 40.4654 60.8365 40.8814 60.7725 41.3827H63.8445Z" fill="white"/>
</svg>
