<svg width="71" height="30" viewBox="0 0 71 30" fill="none" xmlns="http://www.w3.org/2000/svg">
<path d="M8.90009 29.36C6.30809 29.36 4.36409 28.688 3.06809 27.344C1.79609 25.976 1.16009 23.84 1.16009 20.936C1.16009 20.456 1.17209 19.94 1.19609 19.388C1.24409 18.812 1.29209 18.248 1.34009 17.696H8.90009V20.216H4.36409V20.936C4.36409 22.448 4.53209 23.636 4.86809 24.5C5.20409 25.34 5.69609 25.928 6.34409 26.264C7.01609 26.6 7.84409 26.768 8.82809 26.768C9.90809 26.768 10.8441 26.564 11.6361 26.156C12.4281 25.748 13.0401 25.004 13.4721 23.924C13.9041 22.844 14.1201 21.296 14.1201 19.28C14.1201 17.504 13.9281 16.052 13.5441 14.924C13.1601 13.796 12.5241 12.956 11.6361 12.404C10.7721 11.852 9.59609 11.576 8.10809 11.576C7.34009 11.576 6.59609 11.648 5.87609 11.792C5.15609 11.912 4.46009 12.104 3.78809 12.368C3.11609 12.608 2.45609 12.92 1.80809 13.304V10.316C2.28809 10.052 2.87609 9.82397 3.57209 9.63197C4.26809 9.41597 5.03609 9.24797 5.87609 9.12797C6.71609 8.98397 7.59209 8.91197 8.50409 8.91197C10.6161 8.91197 12.3201 9.34397 13.6161 10.208C14.9361 11.048 15.8961 12.248 16.4961 13.808C17.0961 15.344 17.3961 17.168 17.3961 19.28C17.3961 21.392 17.1201 23.204 16.5681 24.716C16.0161 26.228 15.1161 27.38 13.8681 28.172C12.6441 28.964 10.9881 29.36 8.90009 29.36Z" fill="black"/>
<path d="M0.816406 6.13997V4.73597L3.44441 3.58397H16.1164V6.13997H0.816406ZM13.1284 4.73597V0.667969H16.1524V4.73597H13.1284Z" fill="black"/>
<path d="M27.052 29.36C26.404 29.36 25.78 29.252 25.18 29.036C24.58 28.82 24.088 28.436 23.704 27.884C23.32 27.332 23.128 26.564 23.128 25.58V9.27197H26.332V25.184C26.332 25.736 26.452 26.132 26.692 26.372C26.932 26.612 27.316 26.732 27.844 26.732C28.06 26.732 28.288 26.708 28.528 26.66C28.768 26.612 28.996 26.552 29.212 26.48L29.644 28.82C29.188 29.036 28.744 29.18 28.312 29.252C27.88 29.324 27.46 29.36 27.052 29.36Z" fill="black"/>
<path d="M42.7092 29.36C41.1732 29.36 39.8412 29.06 38.7132 28.46C37.6092 27.836 36.8532 26.972 36.4452 25.868H36.3012L36.1212 29H33.4932V9.27197H36.6972V20.684C36.6972 21.884 36.9012 22.94 37.3092 23.852C37.7412 24.74 38.3532 25.436 39.1452 25.94C39.9612 26.42 40.9332 26.66 42.0612 26.66C43.4772 26.66 44.5332 26.288 45.2292 25.544C45.9252 24.8 46.2732 23.708 46.2732 22.268V9.27197H49.4772V22.484C49.4772 24.068 49.2012 25.364 48.6492 26.372C48.1212 27.38 47.3532 28.136 46.3452 28.64C45.3372 29.12 44.1252 29.36 42.7092 29.36Z" fill="black"/>
<path d="M66.8744 29V15.86C66.8744 14.3 66.5144 13.196 65.7944 12.548C65.0984 11.876 63.9224 11.54 62.2664 11.54C61.0664 11.54 59.9144 11.708 58.8104 12.044C57.7304 12.356 56.6984 12.8 55.7144 13.376V10.388C56.4104 10.028 57.3464 9.69197 58.5224 9.37997C59.7224 9.06797 61.0664 8.91197 62.5544 8.91197C63.8264 8.91197 64.9304 9.05597 65.8664 9.34397C66.8024 9.60797 67.5704 10.016 68.1704 10.568C68.7944 11.12 69.2624 11.828 69.5744 12.692C69.8864 13.532 70.0424 14.528 70.0424 15.68V29H66.8744ZM60.6824 29.36C58.5704 29.36 56.9504 28.88 55.8224 27.92C54.7184 26.936 54.1664 25.532 54.1664 23.708C54.1664 21.716 54.8864 20.18 56.3264 19.1C57.7904 18.02 60.1544 17.384 63.4184 17.192L67.5224 16.94V19.604L63.8504 19.856C61.4024 20.024 59.7104 20.408 58.7744 21.008C57.8624 21.608 57.4064 22.484 57.4064 23.636C57.4064 24.716 57.7424 25.508 58.4144 26.012C59.1104 26.516 60.0704 26.768 61.2944 26.768C61.7024 26.768 62.0744 26.744 62.4104 26.696C62.7464 26.624 63.0704 26.54 63.3824 26.444L63.8864 28.856C63.4304 29.024 62.9264 29.144 62.3744 29.216C61.8464 29.312 61.2824 29.36 60.6824 29.36Z" fill="black"/>
</svg>
