<svg width="477" height="46" viewBox="0 0 477 46" fill="none" xmlns="http://www.w3.org/2000/svg">
<path d="M0.620089 15.9999V8.99992C0.620089 7.65326 0.980089 6.62659 1.70009 5.91992C2.42009 5.19992 3.56676 4.83992 5.14009 4.83992C5.88676 4.83992 6.52676 4.93326 7.06009 5.11992C7.59342 5.29326 8.01342 5.59326 8.32009 6.01992C8.80009 6.25992 9.14009 6.63992 9.34009 7.15992C9.55342 7.67992 9.66009 8.29326 9.66009 8.99992V15.9999H7.88009V8.99992C7.88009 8.10659 7.64676 7.43992 7.18009 6.99992C6.72676 6.54659 6.04676 6.31992 5.14009 6.31992C4.23342 6.31992 3.54676 6.54659 3.08009 6.99992C2.62676 7.43992 2.40009 8.10659 2.40009 8.99992V11.2199L2.46009 11.2399C2.76676 10.7199 3.12676 10.3799 3.54009 10.2199C3.96676 10.0466 4.56676 9.95992 5.34009 9.95992H6.00009V11.4199H5.34009C4.54009 11.4199 3.92676 11.5333 3.50009 11.7599C3.07342 11.9866 2.78009 12.2866 2.62009 12.6599C2.47342 13.0199 2.40009 13.4266 2.40009 13.8799V15.9999H0.620089ZM8.32009 6.57992L7.32009 5.63992C7.66676 5.58659 7.99342 5.45326 8.30009 5.23992C8.60676 5.02659 8.76009 4.71992 8.76009 4.31992H10.5001C10.5001 4.73325 10.4001 5.09992 10.2001 5.41992C10.0001 5.72659 9.73342 5.97992 9.40009 6.17992C9.08009 6.36659 8.72009 6.49992 8.32009 6.57992Z" fill="#747474"/>
<path d="M6.86618 21.2999C6.01285 21.2999 5.36618 21.1266 4.92618 20.7799C4.47285 20.4466 4.24618 19.9666 4.24618 19.3399V18.9999C4.24618 18.7733 4.19285 18.6333 4.08618 18.5799C3.96618 18.5399 3.80618 18.5466 3.60618 18.5999L3.48618 17.3999C3.67285 17.3466 3.85952 17.3133 4.04618 17.2999C4.21952 17.2866 4.35285 17.2799 4.44618 17.2799C4.92618 17.2799 5.27285 17.3866 5.48618 17.5999C5.68618 17.8133 5.78618 18.1133 5.78618 18.4999V19.1799C5.78618 19.4333 5.86618 19.6466 6.02618 19.8199C6.18618 19.9933 6.45952 20.0799 6.84618 20.0799C7.24618 20.0799 7.52618 19.9933 7.68618 19.8199C7.83285 19.6466 7.90618 19.4333 7.90618 19.1799V17.3399H9.46618V19.2799C9.46618 19.9333 9.24618 20.4333 8.80618 20.7799C8.36618 21.1266 7.71952 21.2999 6.86618 21.2999Z" fill="#747474"/>
<path d="M16.9587 16.1999C16.172 16.1999 15.492 16.0666 14.9187 15.7999C14.3587 15.5199 13.9253 15.0999 13.6187 14.5399C13.3253 13.9799 13.1787 13.2533 13.1787 12.3599V5.03992H14.9587V12.2599C14.9587 13.0599 15.1587 13.6666 15.5587 14.0799C15.972 14.4933 16.5654 14.6999 17.3387 14.6999C18.272 14.6999 18.992 14.3999 19.4987 13.7999C20.0187 13.1999 20.2787 12.3933 20.2787 11.3799V5.03992H22.0587V15.9999H20.5787L20.4987 14.3799H20.3987C20.1587 14.9133 19.7387 15.3533 19.1387 15.6999C18.552 16.0333 17.8253 16.1999 16.9587 16.1999Z" fill="#747474"/>
<path d="M29.6643 16.1799C28.5843 16.1799 27.7176 16.0399 27.0643 15.7599C26.4243 15.4799 25.9576 15.0866 25.6643 14.5799C25.3843 14.0733 25.2443 13.4733 25.2443 12.7799C25.2443 12.1666 25.331 11.6799 25.5043 11.3199C25.691 10.9466 25.9176 10.6733 26.1843 10.4999C26.4643 10.3266 26.751 10.2133 27.0443 10.1599V10.0799C26.7776 9.99992 26.4976 9.86659 26.2043 9.67992C25.911 9.49326 25.6643 9.23326 25.4643 8.89992C25.2776 8.56659 25.1843 8.14659 25.1843 7.63992C25.1843 7.17326 25.291 6.73326 25.5043 6.31992C25.7176 5.90659 26.0643 5.56659 26.5443 5.29992C27.0243 5.03326 27.6576 4.89992 28.4443 4.89992C28.7643 4.89992 29.0976 4.92659 29.4443 4.97992C29.791 5.01992 30.0576 5.09326 30.2443 5.19992L29.9243 6.57992C29.7776 6.52659 29.5843 6.47992 29.3443 6.43992C29.1176 6.38659 28.8776 6.35992 28.6243 6.35992C28.0643 6.35992 27.651 6.49326 27.3843 6.75992C27.1176 7.01326 26.9843 7.35326 26.9843 7.77992C26.9843 8.24659 27.0976 8.59992 27.3243 8.83992C27.5643 9.07992 27.8643 9.24659 28.2243 9.33992C28.5976 9.41992 28.9843 9.45992 29.3843 9.45992H29.7643V10.7599H29.3843C28.5843 10.7599 27.991 10.9066 27.6043 11.1999C27.231 11.4799 27.0443 11.9533 27.0443 12.6199C27.0443 13.0066 27.1176 13.3599 27.2643 13.6799C27.4243 13.9999 27.691 14.2533 28.0643 14.4399C28.451 14.6266 28.9843 14.7199 29.6643 14.7199C30.3443 14.7199 30.871 14.6266 31.2443 14.4399C31.631 14.2533 31.9043 13.9866 32.0643 13.6399C32.2243 13.2799 32.3043 12.8533 32.3043 12.3599V5.03992H34.0843V12.2399C34.0843 13.6399 33.7243 14.6466 33.0043 15.2599C32.2976 15.8733 31.1843 16.1799 29.6643 16.1799Z" fill="#747474"/>
<path d="M30.7956 3.87992C30.7022 3.73326 30.6289 3.54659 30.5756 3.31992C30.5089 3.07992 30.4756 2.84659 30.4756 2.61992C30.4756 2.33992 30.5356 2.07992 30.6556 1.83992C30.7756 1.58659 30.9889 1.37992 31.2956 1.21992C31.6022 1.05992 32.0289 0.979922 32.5756 0.979922H35.3156V2.35992H33.0356C32.7689 2.35992 32.5556 2.41326 32.3956 2.51992C32.2356 2.61326 32.1556 2.77992 32.1556 3.01992C32.1556 3.11326 32.1756 3.21326 32.2156 3.31992C32.2422 3.42659 32.2822 3.53326 32.3356 3.63992L30.7956 3.87992Z" fill="#747474"/>
<path d="M37.4593 16.1999C37.2193 16.1999 36.986 16.1733 36.7593 16.1199C36.5326 16.0799 36.306 16.0066 36.0793 15.8999L36.2793 14.6599C36.3726 14.6866 36.4793 14.7133 36.5993 14.7399C36.7193 14.7666 36.8326 14.7799 36.9393 14.7799C37.1526 14.7799 37.306 14.7199 37.3993 14.5999C37.4926 14.4666 37.5393 14.2599 37.5393 13.9799V12.1199C37.5393 11.2933 37.6926 10.6999 37.9993 10.3399C38.306 9.96659 38.746 9.71326 39.3193 9.57992L39.3393 9.51992L37.0393 8.67992V8.01992C37.0393 7.47326 37.2126 6.95992 37.5593 6.47992C37.9193 5.98659 38.4393 5.59326 39.1193 5.29992C39.7993 4.99326 40.6126 4.83992 41.5593 4.83992C42.386 4.83992 43.146 4.97326 43.8393 5.23992C44.5326 5.49325 45.086 5.89992 45.4993 6.45992C45.926 7.00659 46.1393 7.72659 46.1393 8.61992V15.9999H44.3593V8.79992C44.3593 7.90659 44.086 7.27326 43.5393 6.89992C42.9926 6.51326 42.326 6.31992 41.5393 6.31992C40.7126 6.31992 40.0593 6.49326 39.5793 6.83992C39.0993 7.17326 38.8593 7.59992 38.8593 8.11992L41.1393 9.19992L40.9793 10.1599C40.486 10.1599 40.086 10.3199 39.7793 10.6399C39.4726 10.9599 39.3193 11.4733 39.3193 12.1799V14.1199C39.3193 14.9333 39.1393 15.4866 38.7793 15.7799C38.4193 16.0599 37.9793 16.1999 37.4593 16.1999Z" fill="#747474"/>
<path d="M52.4701 15.9999V8.21992C52.4701 7.56659 52.3168 7.08659 52.0101 6.77992C51.7168 6.47326 51.2168 6.31992 50.5101 6.31992C50.0301 6.31992 49.5768 6.38659 49.1501 6.51992C48.7368 6.63992 48.3368 6.81326 47.9501 7.03992V5.43992C48.2168 5.30659 48.5968 5.17325 49.0901 5.03992C49.5834 4.90659 50.1701 4.83992 50.8501 4.83992C51.5434 4.83992 52.1434 4.93992 52.6501 5.13992C53.1568 5.33992 53.5501 5.67326 53.8301 6.13992C54.1101 6.59326 54.2501 7.19992 54.2501 7.95992V15.9999H52.4701Z" fill="#747474"/>
<path d="M62.0551 16.1999C60.9618 16.1999 60.0751 16.0333 59.3951 15.6999C58.7284 15.3666 58.2418 14.8866 57.9351 14.2599C57.6418 13.6199 57.4951 12.8466 57.4951 11.9399V5.03992H59.2751V11.9599C59.2751 12.8933 59.4951 13.5866 59.9351 14.0399C60.3751 14.4933 61.0818 14.7199 62.0551 14.7199C63.0284 14.7199 63.7351 14.4933 64.1751 14.0399C64.6151 13.5866 64.8351 12.8933 64.8351 11.9599V5.03992H66.6151V11.9399C66.6151 12.8466 66.4618 13.6199 66.1551 14.2599C65.8618 14.8866 65.3818 15.3666 64.7151 15.6999C64.0484 16.0333 63.1618 16.1999 62.0551 16.1999ZM63.2751 11.4799C62.7151 11.4799 62.2684 11.3999 61.9351 11.2399C61.6151 11.0666 61.3884 10.8466 61.2551 10.5799C61.1218 10.3133 61.0551 10.0333 61.0551 9.73992C61.0551 9.53992 61.0818 9.33326 61.1351 9.11992C61.1884 8.90659 61.2618 8.72659 61.3551 8.57992L62.7951 8.83992C62.7684 8.89326 62.7418 8.97992 62.7151 9.09992C62.6884 9.20659 62.6751 9.31326 62.6751 9.41992C62.6751 9.59326 62.7218 9.75326 62.8151 9.89992C62.9218 10.0466 63.1018 10.1199 63.3551 10.1199H67.8951V11.4799H63.2751Z" fill="#747474"/>
<path d="M73.3881 15.9999V8.21992C73.3881 7.56659 73.2347 7.08659 72.9281 6.77992C72.6347 6.47326 72.1347 6.31992 71.4281 6.31992C70.9481 6.31992 70.4947 6.38659 70.0681 6.51992C69.6547 6.63992 69.2547 6.81326 68.8681 7.03992V5.43992C69.1347 5.30659 69.5147 5.17325 70.0081 5.03992C70.5014 4.90659 71.0881 4.83992 71.7681 4.83992C72.4614 4.83992 73.0614 4.93992 73.5681 5.13992C74.0747 5.33992 74.4681 5.67326 74.7481 6.13992C75.0281 6.59326 75.1681 7.19992 75.1681 7.95992V15.9999H73.3881Z" fill="#747474"/>
<path d="M84.0381 15.9999V8.99992C84.0381 7.65326 84.3981 6.62659 85.1181 5.91992C85.8381 5.19992 86.9847 4.83992 88.5581 4.83992C90.1447 4.83992 91.2914 5.19992 91.9981 5.91992C92.7181 6.62659 93.0781 7.65326 93.0781 8.99992V15.9999H91.2981V8.99992C91.2981 8.10659 91.0647 7.43992 90.5981 6.99992C90.1314 6.54659 89.4447 6.31992 88.5381 6.31992C87.6447 6.31992 86.9647 6.54659 86.4981 6.99992C86.0447 7.43992 85.8181 8.10659 85.8181 8.99992V11.2199L85.8781 11.2399C86.1714 10.7199 86.5314 10.3799 86.9581 10.2199C87.3847 10.0466 87.9847 9.95992 88.7581 9.95992H89.4181V11.4199H88.7581C87.9447 11.4199 87.3247 11.5333 86.8981 11.7599C86.4847 11.9866 86.1981 12.2866 86.0381 12.6599C85.8914 13.0199 85.8181 13.4266 85.8181 13.8799V15.9999H84.0381Z" fill="#747474"/>
<path d="M98.5832 16.1999C98.2099 16.1999 97.8499 16.1399 97.5032 16.0199C97.1699 15.8999 96.8966 15.6866 96.6832 15.3799C96.4832 15.0733 96.3832 14.6466 96.3832 14.0999V12.1599C96.3832 11.3333 96.5565 10.7333 96.9032 10.3599C97.2632 9.98659 97.7299 9.72659 98.3032 9.57992L98.3232 9.51992L96.0232 8.67992V8.01992C96.0232 7.43326 96.1965 6.89992 96.5432 6.41992C96.9032 5.93992 97.4032 5.55992 98.0432 5.27992C98.6966 4.98659 99.4566 4.83992 100.323 4.83992C101.057 4.83992 101.75 4.95992 102.403 5.19992C103.07 5.43992 103.61 5.83992 104.023 6.39992C104.437 6.94659 104.643 7.67992 104.643 8.59992V12.4199C104.643 13.2199 104.823 13.7999 105.183 14.1599C105.557 14.5199 106.05 14.6999 106.663 14.6999C107.197 14.6999 107.663 14.5666 108.063 14.2999C108.463 14.0199 108.777 13.6399 109.003 13.1599C109.23 12.6666 109.343 12.0933 109.343 11.4399V5.03992H111.123V15.9999H109.663L109.563 14.2599H109.463C109.237 14.8733 108.83 15.3533 108.243 15.6999C107.67 16.0333 107.023 16.1999 106.303 16.1999C105.29 16.1999 104.463 15.9199 103.823 15.3599C103.183 14.7999 102.863 13.8666 102.863 12.5599V8.77992C102.863 8.13992 102.743 7.63992 102.503 7.27992C102.263 6.91992 101.943 6.67326 101.543 6.53992C101.157 6.39326 100.743 6.31992 100.303 6.31992C99.5965 6.31992 99.0099 6.47326 98.5432 6.77992C98.0899 7.08659 97.8566 7.53326 97.8432 8.11992L100.123 9.19992L99.9632 10.1599C99.4699 10.1599 99.0432 10.3133 98.6832 10.6199C98.3366 10.9266 98.1632 11.4333 98.1632 12.1399V13.8999C98.1632 14.1933 98.2299 14.4066 98.3632 14.5399C98.4966 14.6733 98.7099 14.7399 99.0032 14.7399C99.1366 14.7399 99.2632 14.7333 99.3832 14.7199C99.5165 14.6933 99.6366 14.6599 99.7432 14.6199L100.003 15.8999C99.7499 16.0199 99.5032 16.0999 99.2632 16.1399C99.0365 16.1799 98.8099 16.1999 98.5832 16.1999Z" fill="#747474"/>
<path d="M115.947 9.11992C115.4 9.11992 114.953 9.03992 114.607 8.87992C114.273 8.70659 114.033 8.49326 113.887 8.23992C113.74 7.97326 113.667 7.69326 113.667 7.39992C113.667 7.19992 113.693 6.99326 113.747 6.77992C113.813 6.56659 113.893 6.38659 113.987 6.23992L115.487 6.47992C115.46 6.54659 115.427 6.63992 115.387 6.75992C115.36 6.87992 115.347 6.99992 115.347 7.11992C115.347 7.29326 115.393 7.43992 115.487 7.55992C115.58 7.66659 115.753 7.71992 116.007 7.71992H118.867V9.11992H115.947ZM115.947 14.7199C115.4 14.7199 114.953 14.6399 114.607 14.4799C114.273 14.3066 114.033 14.0933 113.887 13.8399C113.74 13.5733 113.667 13.2933 113.667 12.9999C113.667 12.7999 113.693 12.5933 113.747 12.3799C113.813 12.1666 113.893 11.9866 113.987 11.8399L115.487 12.0799C115.46 12.1466 115.427 12.2399 115.387 12.3599C115.36 12.4799 115.347 12.5999 115.347 12.7199C115.347 12.8933 115.393 13.0399 115.487 13.1599C115.58 13.2666 115.753 13.3199 116.007 13.3199H118.867V14.7199H115.947Z" fill="#747474"/>
<path d="M121.265 15.9999V8.99992C121.265 7.65326 121.625 6.62659 122.345 5.91992C123.065 5.19992 124.211 4.83992 125.785 4.83992C126.531 4.83992 127.171 4.93326 127.705 5.11992C128.238 5.29326 128.658 5.59326 128.965 6.01992C129.445 6.25992 129.785 6.63992 129.985 7.15992C130.198 7.67992 130.305 8.29326 130.305 8.99992V15.9999H128.525V8.99992C128.525 8.10659 128.291 7.43992 127.825 6.99992C127.371 6.54659 126.691 6.31992 125.785 6.31992C124.878 6.31992 124.191 6.54659 123.725 6.99992C123.271 7.43992 123.045 8.10659 123.045 8.99992V11.2199L123.105 11.2399C123.411 10.7199 123.771 10.3799 124.185 10.2199C124.611 10.0466 125.211 9.95992 125.985 9.95992H126.645V11.4199H125.985C125.185 11.4199 124.571 11.5333 124.145 11.7599C123.718 11.9866 123.425 12.2866 123.265 12.6599C123.118 13.0199 123.045 13.4266 123.045 13.8799V15.9999H121.265ZM128.965 6.57992L127.965 5.63992C128.311 5.58659 128.638 5.45326 128.945 5.23992C129.251 5.02659 129.405 4.71992 129.405 4.31992H131.145C131.145 4.73325 131.045 5.09992 130.845 5.41992C130.645 5.72659 130.378 5.97992 130.045 6.17992C129.725 6.36659 129.365 6.49992 128.965 6.57992Z" fill="#747474"/>
<path d="M121.708 3.29992V2.51992L123.168 1.87992H130.208V3.29992H121.708Z" fill="#747474"/>
<path d="M140.243 15.9999V8.69992C140.243 7.83326 140.043 7.21992 139.643 6.85992C139.257 6.48659 138.603 6.29992 137.683 6.29992C137.017 6.29992 136.377 6.39326 135.763 6.57992C135.163 6.75326 134.59 6.99992 134.043 7.31992V5.65992C134.43 5.45992 134.95 5.27326 135.603 5.09992C136.27 4.92659 137.017 4.83992 137.843 4.83992C138.55 4.83992 139.163 4.91992 139.683 5.07992C140.203 5.22659 140.63 5.45326 140.963 5.75992C141.31 6.06659 141.57 6.45992 141.743 6.93992C141.917 7.40659 142.003 7.95992 142.003 8.59992V15.9999H140.243ZM136.803 16.1999C135.63 16.1999 134.73 15.9333 134.103 15.3999C133.49 14.8533 133.183 14.0733 133.183 13.0599C133.183 11.9533 133.583 11.0999 134.383 10.4999C135.197 9.89992 136.51 9.54659 138.323 9.43992L140.603 9.29992V10.7799L138.563 10.9199C137.203 11.0133 136.263 11.2266 135.743 11.5599C135.237 11.8933 134.983 12.3799 134.983 13.0199C134.983 13.6199 135.17 14.0599 135.543 14.3399C135.93 14.6199 136.463 14.7599 137.143 14.7599C137.37 14.7599 137.577 14.7466 137.763 14.7199C137.95 14.6799 138.13 14.6333 138.303 14.5799L138.583 15.9199C138.33 16.0133 138.05 16.0799 137.743 16.1199C137.45 16.1733 137.137 16.1999 136.803 16.1999Z" fill="#747474"/>
<path d="M149.649 16.1999C148.076 16.1999 146.949 15.8399 146.269 15.1199C145.589 14.3999 145.249 13.3733 145.249 12.0399V5.03992H147.029V12.0599C147.029 12.9533 147.242 13.6199 147.669 14.0599C148.096 14.4999 148.756 14.7199 149.649 14.7199C150.556 14.7199 151.222 14.4999 151.649 14.0599C152.089 13.6199 152.309 12.9533 152.309 12.0599V1.09992H154.089V12.0399C154.089 13.3733 153.742 14.3999 153.049 15.1199C152.369 15.8399 151.236 16.1999 149.649 16.1999Z" fill="#747474"/>
<path d="M157.358 15.9999V8.99992C157.358 7.65326 157.718 6.62659 158.438 5.91992C159.158 5.19992 160.305 4.83992 161.878 4.83992C162.625 4.83992 163.265 4.93326 163.798 5.11992C164.332 5.29326 164.752 5.59326 165.058 6.01992C165.538 6.25992 165.878 6.63992 166.078 7.15992C166.292 7.67992 166.398 8.29326 166.398 8.99992V15.9999H164.618V8.99992C164.618 8.10659 164.385 7.43992 163.918 6.99992C163.465 6.54659 162.785 6.31992 161.878 6.31992C160.972 6.31992 160.285 6.54659 159.818 6.99992C159.365 7.43992 159.138 8.10659 159.138 8.99992V11.2199L159.198 11.2399C159.505 10.7199 159.865 10.3799 160.278 10.2199C160.705 10.0466 161.305 9.95992 162.078 9.95992H162.738V11.4199H162.078C161.278 11.4199 160.665 11.5333 160.238 11.7599C159.812 11.9866 159.518 12.2866 159.358 12.6599C159.212 13.0199 159.138 13.4266 159.138 13.8799V15.9999H157.358ZM165.058 6.57992L164.058 5.63992C164.405 5.58659 164.732 5.45326 165.038 5.23992C165.345 5.02659 165.498 4.71992 165.498 4.31992H167.238C167.238 4.73325 167.138 5.09992 166.938 5.41992C166.738 5.72659 166.472 5.97992 166.138 6.17992C165.818 6.36659 165.458 6.49992 165.058 6.57992Z" fill="#747474"/>
<path d="M173.017 15.9999V8.21992C173.017 7.56659 172.864 7.08659 172.557 6.77992C172.264 6.47326 171.764 6.31992 171.057 6.31992C170.577 6.31992 170.124 6.38659 169.697 6.51992C169.284 6.63992 168.884 6.81326 168.497 7.03992V5.43992C168.764 5.30659 169.144 5.17325 169.637 5.03992C170.13 4.90659 170.717 4.83992 171.397 4.83992C172.09 4.83992 172.69 4.93992 173.197 5.13992C173.704 5.33992 174.097 5.67326 174.377 6.13992C174.657 6.59326 174.797 7.19992 174.797 7.95992V15.9999H173.017Z" fill="#747474"/>
<path d="M184.462 15.9999V8.69992C184.462 7.83326 184.262 7.21992 183.862 6.85992C183.475 6.48659 182.822 6.29992 181.902 6.29992C181.235 6.29992 180.595 6.39326 179.982 6.57992C179.382 6.75326 178.809 6.99992 178.262 7.31992V5.65992C178.649 5.45992 179.169 5.27326 179.822 5.09992C180.489 4.92659 181.235 4.83992 182.062 4.83992C182.769 4.83992 183.369 4.91992 183.862 5.07992C184.369 5.23992 184.742 5.53326 184.982 5.95992C185.449 6.17325 185.769 6.50659 185.942 6.95992C186.129 7.41326 186.222 7.95992 186.222 8.59992V15.9999H184.462ZM181.022 16.1999C179.849 16.1999 178.949 15.9333 178.322 15.3999C177.709 14.8533 177.402 14.0733 177.402 13.0599C177.402 11.9533 177.802 11.0999 178.602 10.4999C179.415 9.89992 180.729 9.54659 182.542 9.43992L184.822 9.29992V10.7799L182.782 10.9199C181.422 11.0133 180.482 11.2266 179.962 11.5599C179.455 11.8933 179.202 12.3799 179.202 13.0199C179.202 13.6199 179.389 14.0599 179.762 14.3399C180.149 14.6199 180.682 14.7599 181.362 14.7599C181.589 14.7599 181.795 14.7466 181.982 14.7199C182.169 14.6799 182.349 14.6333 182.522 14.5799L182.802 15.9199C182.549 16.0133 182.269 16.0799 181.962 16.1199C181.669 16.1733 181.355 16.1999 181.022 16.1999ZM184.922 6.57992L183.922 5.63992C184.269 5.58659 184.595 5.45326 184.902 5.23992C185.209 5.02659 185.362 4.71992 185.362 4.31992H187.102C187.102 4.73325 187.002 5.09992 186.802 5.41992C186.615 5.72659 186.355 5.97992 186.022 6.17992C185.689 6.36659 185.322 6.49992 184.922 6.57992Z" fill="#747474"/>
<path d="M193.367 16.1999C192.247 16.1999 191.381 15.9466 190.767 15.4399C190.154 14.9199 189.727 14.2199 189.487 13.3399C189.247 12.4466 189.127 11.4333 189.127 10.2999C189.127 8.99326 189.247 7.93992 189.487 7.13992C189.741 6.33992 190.107 5.75992 190.587 5.39992C191.067 5.02659 191.654 4.83992 192.347 4.83992C192.814 4.83992 193.207 4.91992 193.527 5.07992C193.861 5.23992 194.094 5.50659 194.227 5.87992H194.307C194.441 5.49326 194.681 5.22659 195.027 5.07992C195.374 4.91992 195.781 4.83992 196.247 4.83992C197.114 4.83992 197.781 5.07326 198.247 5.53992C198.727 5.99326 198.967 6.69326 198.967 7.63992V15.9999H197.187V7.65992C197.187 7.13992 197.074 6.78659 196.847 6.59992C196.621 6.41326 196.334 6.31992 195.987 6.31992C195.601 6.31992 195.314 6.41326 195.127 6.59992C194.954 6.78659 194.847 7.09326 194.807 7.51992H193.687C193.634 7.05326 193.494 6.73992 193.267 6.57992C193.041 6.40659 192.787 6.31992 192.507 6.31992C191.974 6.31992 191.574 6.63326 191.307 7.25992C191.041 7.87326 190.907 8.89326 190.907 10.3199C190.907 11.2399 190.974 12.0266 191.107 12.6799C191.254 13.3333 191.521 13.8399 191.907 14.1999C192.294 14.5466 192.854 14.7199 193.587 14.7199C193.854 14.7199 194.074 14.7066 194.247 14.6799C194.421 14.6533 194.587 14.6199 194.747 14.5799L194.927 15.9399C194.727 16.0333 194.487 16.0999 194.207 16.1399C193.927 16.1799 193.647 16.1999 193.367 16.1999Z" fill="#747474"/>
<path d="M205.282 16.1999C204.495 16.1999 203.762 16.1266 203.082 15.9799C202.415 15.8199 201.849 15.6333 201.382 15.4199L201.902 13.9799C202.182 14.0866 202.502 14.1999 202.862 14.3199C203.222 14.4399 203.609 14.5399 204.022 14.6199C204.449 14.6866 204.882 14.7199 205.322 14.7199C206.029 14.7199 206.615 14.5866 207.082 14.3199C207.549 14.0533 207.782 13.6666 207.782 13.1599C207.782 12.8533 207.695 12.5933 207.522 12.3799C207.362 12.1533 207.109 11.9466 206.762 11.7599C206.415 11.5733 205.969 11.3933 205.422 11.2199C204.582 10.9533 203.869 10.6733 203.282 10.3799C202.709 10.0733 202.269 9.71326 201.962 9.29992C201.669 8.87326 201.522 8.34659 201.522 7.71992C201.522 7.15992 201.669 6.66659 201.962 6.23992C202.269 5.79992 202.735 5.45992 203.362 5.21992C204.002 4.96659 204.815 4.83992 205.802 4.83992C206.442 4.83992 207.042 4.89992 207.602 5.01992C208.175 5.12659 208.622 5.27992 208.942 5.47992V6.97992C208.715 6.87326 208.429 6.76659 208.082 6.65992C207.749 6.55326 207.382 6.46659 206.982 6.39992C206.582 6.33326 206.169 6.29992 205.742 6.29992C204.849 6.29992 204.215 6.43992 203.842 6.71992C203.482 6.98659 203.302 7.29326 203.302 7.63992C203.302 7.93326 203.382 8.17992 203.542 8.37992C203.715 8.57992 204.002 8.77326 204.402 8.95992C204.815 9.14659 205.369 9.35992 206.062 9.59992C206.702 9.81326 207.289 10.0599 207.822 10.3399C208.355 10.6199 208.775 10.9733 209.082 11.3999C209.402 11.8133 209.562 12.3466 209.562 12.9999C209.562 13.5599 209.422 14.0866 209.142 14.5799C208.875 15.0599 208.429 15.4533 207.802 15.7599C207.175 16.0533 206.335 16.1999 205.282 16.1999Z" fill="#747474"/>
<path d="M206.264 3.87992C206.171 3.73326 206.098 3.54659 206.044 3.31992C205.978 3.07992 205.944 2.84659 205.944 2.61992C205.944 2.33992 206.004 2.07992 206.124 1.83992C206.244 1.58659 206.458 1.37992 206.764 1.21992C207.071 1.05992 207.498 0.979922 208.044 0.979922H210.784V2.35992H208.504C208.238 2.35992 208.024 2.41326 207.864 2.51992C207.704 2.61326 207.624 2.77992 207.624 3.01992C207.624 3.11326 207.644 3.21326 207.684 3.31992C207.711 3.42659 207.751 3.53326 207.804 3.63992L206.264 3.87992Z" fill="#747474"/>
<path d="M222.873 16.1999C222.019 16.1999 221.279 16.0333 220.653 15.6999C220.039 15.3533 219.619 14.8733 219.393 14.2599H219.313L219.213 15.9999H217.753V5.03992H219.533V11.3799C219.533 12.0466 219.646 12.6333 219.873 13.1399C220.113 13.6333 220.453 14.0199 220.893 14.2999C221.346 14.5666 221.886 14.6999 222.513 14.6999C223.299 14.6999 223.886 14.4933 224.273 14.0799C224.659 13.6666 224.853 13.0599 224.853 12.2599V5.03992H226.633V12.3799C226.633 13.2599 226.479 13.9799 226.173 14.5399C225.879 15.0999 225.453 15.5199 224.893 15.7999C224.333 16.0666 223.659 16.1999 222.873 16.1999Z" fill="#747474"/>
<path d="M230.038 15.9999V5.03992H231.818V9.77992H231.878L236.438 5.03992H238.518V5.09992L231.818 11.8799V15.9999H230.038ZM236.838 15.9999V12.1399C236.838 11.3533 236.598 10.7399 236.118 10.2999C235.638 9.85992 234.845 9.63992 233.738 9.63992L234.778 8.33992C235.618 8.33992 236.318 8.49326 236.878 8.79992C237.451 9.09326 237.885 9.51992 238.178 10.0799C238.471 10.6399 238.618 11.3133 238.618 12.0999V15.9999H236.838Z" fill="#747474"/>
<path d="M244.716 15.9999V8.21992C244.716 7.56659 244.563 7.08659 244.256 6.77992C243.963 6.47326 243.463 6.31992 242.756 6.31992C242.276 6.31992 241.823 6.38659 241.396 6.51992C240.983 6.63992 240.583 6.81326 240.196 7.03992V5.43992C240.463 5.30659 240.843 5.17325 241.336 5.03992C241.83 4.90659 242.416 4.83992 243.096 4.83992C243.79 4.83992 244.39 4.93992 244.896 5.13992C245.403 5.33992 245.796 5.67326 246.076 6.13992C246.356 6.59326 246.496 7.19992 246.496 7.95992V15.9999H244.716Z" fill="#747474"/>
<path d="M251.941 16.1999C251.421 16.1999 250.915 16.1466 250.421 16.0399C249.941 15.9333 249.428 15.7333 248.881 15.4399L249.441 14.0799C249.735 14.2533 250.068 14.4066 250.441 14.5399C250.815 14.6599 251.248 14.7199 251.741 14.7199C252.728 14.7199 253.495 14.3599 254.041 13.6399C254.601 12.9066 254.881 11.8533 254.881 10.4799C254.881 9.13326 254.595 8.10659 254.021 7.39992C253.461 6.67992 252.595 6.31992 251.421 6.31992C250.995 6.31992 250.561 6.36659 250.121 6.45992C249.681 6.55326 249.295 6.69326 248.961 6.87992V5.37992C249.348 5.17992 249.768 5.03992 250.221 4.95992C250.688 4.87992 251.155 4.83992 251.621 4.83992C252.821 4.83992 253.795 5.07992 254.541 5.55992C255.288 6.02659 255.835 6.67992 256.181 7.51992C256.528 8.35992 256.701 9.34659 256.701 10.4799C256.701 12.2399 256.301 13.6333 255.501 14.6599C254.715 15.6866 253.528 16.1999 251.941 16.1999Z" fill="#747474"/>
<path d="M247.88 3.29992V2.51992L249.34 1.87992H256.38V3.29992H247.88Z" fill="#747474"/>
<path d="M259.645 15.9999V5.03992H260.885L261.205 6.77992H261.285C261.512 6.17992 261.925 5.70659 262.525 5.35992C263.125 5.01326 263.852 4.83992 264.705 4.83992C265.505 4.83992 266.185 4.97992 266.745 5.25992C267.318 5.52659 267.758 5.93992 268.065 6.49992C268.372 7.05992 268.525 7.78659 268.525 8.67992V15.9999H266.745V8.77992C266.745 7.97992 266.545 7.37325 266.145 6.95992C265.745 6.54659 265.152 6.33992 264.365 6.33992C263.738 6.33992 263.205 6.48659 262.765 6.77992C262.325 7.07326 261.992 7.47326 261.765 7.97992C261.538 8.47326 261.425 9.03326 261.425 9.65992V15.9999H259.645Z" fill="#747474"/>
<path d="M275.992 16.1799C274.912 16.1799 274.046 16.0399 273.392 15.7599C272.752 15.4799 272.286 15.0866 271.992 14.5799C271.712 14.0733 271.572 13.4733 271.572 12.7799C271.572 12.1666 271.659 11.6799 271.832 11.3199C272.019 10.9466 272.246 10.6733 272.512 10.4999C272.792 10.3266 273.079 10.2133 273.372 10.1599V10.0799C273.106 9.99992 272.826 9.86659 272.532 9.67992C272.239 9.49326 271.992 9.23326 271.792 8.89992C271.606 8.56659 271.512 8.14659 271.512 7.63992C271.512 7.17326 271.619 6.73326 271.832 6.31992C272.046 5.90659 272.392 5.56659 272.872 5.29992C273.352 5.03326 273.986 4.89992 274.772 4.89992C275.092 4.89992 275.426 4.92659 275.772 4.97992C276.119 5.01992 276.386 5.09326 276.572 5.19992L276.252 6.57992C276.106 6.52659 275.912 6.47992 275.672 6.43992C275.446 6.38659 275.206 6.35992 274.952 6.35992C274.392 6.35992 273.979 6.49326 273.712 6.75992C273.446 7.01326 273.312 7.35326 273.312 7.77992C273.312 8.24659 273.426 8.59992 273.652 8.83992C273.892 9.07992 274.192 9.24659 274.552 9.33992C274.926 9.41992 275.312 9.45992 275.712 9.45992H276.092V10.7599H275.712C274.912 10.7599 274.319 10.9066 273.932 11.1999C273.559 11.4799 273.372 11.9533 273.372 12.6199C273.372 13.0066 273.446 13.3599 273.592 13.6799C273.752 13.9999 274.019 14.2533 274.392 14.4399C274.779 14.6266 275.312 14.7199 275.992 14.7199C276.672 14.7199 277.199 14.6266 277.572 14.4399C277.959 14.2533 278.232 13.9866 278.392 13.6399C278.552 13.2799 278.632 12.8533 278.632 12.3599V5.03992H280.412V12.2399C280.412 13.6399 280.052 14.6466 279.332 15.2599C278.626 15.8733 277.512 16.1799 275.992 16.1799Z" fill="#747474"/>
<path d="M286.747 15.9999V8.21992C286.747 7.56659 286.594 7.08659 286.287 6.77992C285.994 6.47326 285.494 6.31992 284.787 6.31992C284.307 6.31992 283.854 6.38659 283.427 6.51992C283.014 6.63992 282.614 6.81326 282.227 7.03992V5.43992C282.494 5.30659 282.874 5.17325 283.367 5.03992C283.861 4.90659 284.447 4.83992 285.127 4.83992C285.821 4.83992 286.421 4.93992 286.927 5.13992C287.434 5.33992 287.827 5.67326 288.107 6.13992C288.387 6.59326 288.527 7.19992 288.527 7.95992V15.9999H286.747Z" fill="#747474"/>
<path d="M298.192 15.9999V8.69992C298.192 7.83326 297.992 7.21992 297.592 6.85992C297.206 6.48659 296.552 6.29992 295.632 6.29992C294.966 6.29992 294.326 6.39326 293.712 6.57992C293.112 6.75326 292.539 6.99992 291.992 7.31992V5.65992C292.379 5.45992 292.899 5.27326 293.552 5.09992C294.219 4.92659 294.966 4.83992 295.792 4.83992C296.499 4.83992 297.112 4.91992 297.632 5.07992C298.152 5.22659 298.579 5.45326 298.912 5.75992C299.259 6.06659 299.519 6.45992 299.692 6.93992C299.866 7.40659 299.952 7.95992 299.952 8.59992V15.9999H298.192ZM294.752 16.1999C293.579 16.1999 292.679 15.9333 292.052 15.3999C291.439 14.8533 291.132 14.0733 291.132 13.0599C291.132 11.9533 291.532 11.0999 292.332 10.4999C293.146 9.89992 294.459 9.54659 296.272 9.43992L298.552 9.29992V10.7799L296.512 10.9199C295.152 11.0133 294.212 11.2266 293.692 11.5599C293.186 11.8933 292.932 12.3799 292.932 13.0199C292.932 13.6199 293.119 14.0599 293.492 14.3399C293.879 14.6199 294.412 14.7599 295.092 14.7599C295.319 14.7599 295.526 14.7466 295.712 14.7199C295.899 14.6799 296.079 14.6333 296.252 14.5799L296.532 15.9199C296.279 16.0133 295.999 16.0799 295.692 16.1199C295.399 16.1733 295.086 16.1999 294.752 16.1999Z" fill="#747474"/>
<path d="M297.121 3.29992C296.561 3.29992 296.115 3.21992 295.781 3.05992C295.448 2.89992 295.208 2.69326 295.061 2.43992C294.901 2.18659 294.822 1.91992 294.822 1.63992C294.822 1.43992 294.855 1.22659 294.922 0.999922C294.975 0.759922 295.048 0.566589 295.142 0.419922L296.642 0.679922C296.615 0.733256 296.588 0.826589 296.561 0.959922C296.535 1.07992 296.521 1.19326 296.521 1.29992C296.521 1.47326 296.575 1.62659 296.681 1.75992C296.788 1.87992 296.968 1.93992 297.221 1.93992H302.281V3.29992H297.121Z" fill="#747474"/>
<path d="M307.418 16.1799C306.338 16.1799 305.472 16.0399 304.818 15.7599C304.178 15.4799 303.712 15.0866 303.418 14.5799C303.138 14.0733 302.998 13.4733 302.998 12.7799C302.998 12.1666 303.085 11.6799 303.258 11.3199C303.445 10.9466 303.672 10.6733 303.938 10.4999C304.218 10.3266 304.505 10.2133 304.798 10.1599V10.0799C304.532 9.99992 304.252 9.86659 303.958 9.67992C303.665 9.49326 303.418 9.23326 303.218 8.89992C303.032 8.56659 302.938 8.14659 302.938 7.63992C302.938 7.17326 303.045 6.73326 303.258 6.31992C303.472 5.90659 303.818 5.56659 304.298 5.29992C304.778 5.03326 305.412 4.89992 306.198 4.89992C306.518 4.89992 306.852 4.92659 307.198 4.97992C307.545 5.01992 307.812 5.09326 307.998 5.19992L307.678 6.57992C307.532 6.52659 307.338 6.47992 307.098 6.43992C306.872 6.38659 306.632 6.35992 306.378 6.35992C305.818 6.35992 305.405 6.49326 305.138 6.75992C304.872 7.01326 304.738 7.35326 304.738 7.77992C304.738 8.24659 304.852 8.59992 305.078 8.83992C305.318 9.07992 305.618 9.24659 305.978 9.33992C306.352 9.41992 306.738 9.45992 307.138 9.45992H307.518V10.7599H307.138C306.338 10.7599 305.745 10.9066 305.358 11.1999C304.985 11.4799 304.798 11.9533 304.798 12.6199C304.798 13.0066 304.872 13.3599 305.018 13.6799C305.178 13.9999 305.445 14.2533 305.818 14.4399C306.205 14.6266 306.738 14.7199 307.418 14.7199C308.098 14.7199 308.625 14.6266 308.998 14.4399C309.385 14.2533 309.658 13.9866 309.818 13.6399C309.978 13.2799 310.058 12.8533 310.058 12.3599V5.03992H311.838V12.2399C311.838 13.6399 311.478 14.6466 310.758 15.2599C310.052 15.8733 308.938 16.1799 307.418 16.1799Z" fill="#747474"/>
<path d="M316.253 15.9999L314.273 5.03992H316.093L316.873 9.79992C316.94 10.1866 317.007 10.6866 317.073 11.2999C317.14 11.9133 317.22 12.6399 317.313 13.4799H317.373C317.493 12.9066 317.607 12.3933 317.713 11.9399C317.833 11.4866 317.94 11.0799 318.033 10.7199C318.14 10.3466 318.233 10.0199 318.313 9.73992L319.653 5.03992H321.113L322.473 9.73992C322.553 10.0199 322.64 10.3466 322.733 10.7199C322.84 11.0799 322.947 11.4866 323.053 11.9399C323.173 12.3933 323.293 12.9066 323.413 13.4799H323.493C323.573 12.6399 323.647 11.9133 323.713 11.2999C323.78 10.6866 323.847 10.1866 323.913 9.79992L324.713 5.03992H326.533L324.553 15.9999H322.813L320.973 10.0399C320.88 9.70659 320.787 9.35992 320.693 8.99992C320.613 8.63992 320.533 8.16659 320.453 7.57992H320.373C320.32 7.96659 320.26 8.30659 320.193 8.59992C320.127 8.89326 320.06 9.15326 319.993 9.37992C319.927 9.60659 319.86 9.82659 319.793 10.0399L317.993 15.9999H316.253Z" fill="#747474"/>
<path d="M330.419 9.11992C329.873 9.11992 329.426 9.03992 329.079 8.87992C328.746 8.70659 328.506 8.49326 328.359 8.23992C328.213 7.97326 328.139 7.69326 328.139 7.39992C328.139 7.19992 328.166 6.99326 328.219 6.77992C328.286 6.56659 328.366 6.38659 328.459 6.23992L329.959 6.47992C329.933 6.54659 329.899 6.63992 329.859 6.75992C329.833 6.87992 329.819 6.99992 329.819 7.11992C329.819 7.29326 329.866 7.43992 329.959 7.55992C330.053 7.66659 330.226 7.71992 330.479 7.71992H333.339V9.11992H330.419ZM330.419 14.7199C329.873 14.7199 329.426 14.6399 329.079 14.4799C328.746 14.3066 328.506 14.0933 328.359 13.8399C328.213 13.5733 328.139 13.2933 328.139 12.9999C328.139 12.7999 328.166 12.5933 328.219 12.3799C328.286 12.1666 328.366 11.9866 328.459 11.8399L329.959 12.0799C329.933 12.1466 329.899 12.2399 329.859 12.3599C329.833 12.4799 329.819 12.5999 329.819 12.7199C329.819 12.8933 329.866 13.0399 329.959 13.1599C330.053 13.2666 330.226 13.3199 330.479 13.3199H333.339V14.7199H330.419Z" fill="#747474"/>
<path d="M338.217 16.1999C337.857 16.1999 337.511 16.1399 337.177 16.0199C336.844 15.8999 336.571 15.6866 336.357 15.3799C336.144 15.0733 336.037 14.6466 336.037 14.0999V5.03992H337.817V13.8799C337.817 14.1866 337.884 14.4066 338.017 14.5399C338.151 14.6733 338.364 14.7399 338.657 14.7399C338.777 14.7399 338.904 14.7266 339.037 14.6999C339.171 14.6733 339.297 14.6399 339.417 14.5999L339.657 15.8999C339.404 16.0199 339.157 16.0999 338.917 16.1399C338.677 16.1799 338.444 16.1999 338.217 16.1999Z" fill="#747474"/>
<path d="M345.25 16.1799C344.17 16.1799 343.304 16.0399 342.65 15.7599C342.01 15.4799 341.544 15.0866 341.25 14.5799C340.97 14.0733 340.83 13.4733 340.83 12.7799C340.83 12.1666 340.917 11.6799 341.09 11.3199C341.277 10.9466 341.504 10.6733 341.77 10.4999C342.05 10.3266 342.337 10.2133 342.63 10.1599V10.0799C342.364 9.99992 342.084 9.86659 341.79 9.67992C341.497 9.49326 341.25 9.23326 341.05 8.89992C340.864 8.56659 340.77 8.14659 340.77 7.63992C340.77 7.17326 340.877 6.73326 341.09 6.31992C341.304 5.90659 341.65 5.56659 342.13 5.29992C342.61 5.03326 343.244 4.89992 344.03 4.89992C344.35 4.89992 344.684 4.92659 345.03 4.97992C345.377 5.01992 345.644 5.09326 345.83 5.19992L345.51 6.57992C345.364 6.52659 345.17 6.47992 344.93 6.43992C344.704 6.38659 344.464 6.35992 344.21 6.35992C343.65 6.35992 343.237 6.49326 342.97 6.75992C342.704 7.01326 342.57 7.35326 342.57 7.77992C342.57 8.24659 342.684 8.59992 342.91 8.83992C343.15 9.07992 343.45 9.24659 343.81 9.33992C344.184 9.41992 344.57 9.45992 344.97 9.45992H345.35V10.7599H344.97C344.17 10.7599 343.577 10.9066 343.19 11.1999C342.817 11.4799 342.63 11.9533 342.63 12.6199C342.63 13.0066 342.704 13.3599 342.85 13.6799C343.01 13.9999 343.277 14.2533 343.65 14.4399C344.037 14.6266 344.57 14.7199 345.25 14.7199C345.93 14.7199 346.457 14.6266 346.83 14.4399C347.217 14.2533 347.49 13.9866 347.65 13.6399C347.81 13.2799 347.89 12.8533 347.89 12.3599V5.03992H349.67V12.2399C349.67 13.6399 349.31 14.6466 348.59 15.2599C347.884 15.8733 346.77 16.1799 345.25 16.1799Z" fill="#747474"/>
<path d="M356.005 15.9999V8.21992C356.005 7.56659 355.852 7.08659 355.545 6.77992C355.252 6.47326 354.752 6.31992 354.045 6.31992C353.565 6.31992 353.112 6.38659 352.685 6.51992C352.272 6.63992 351.872 6.81326 351.485 7.03992V5.43992C351.752 5.30659 352.132 5.17325 352.625 5.03992C353.119 4.90659 353.705 4.83992 354.385 4.83992C355.079 4.83992 355.679 4.93992 356.185 5.13992C356.692 5.33992 357.085 5.67326 357.365 6.13992C357.645 6.59326 357.785 7.19992 357.785 7.95992V15.9999H356.005Z" fill="#747474"/>
<path d="M5.61941 25.4545V39.9999H3.85804V27.3011H3.77282L0.22168 29.659V27.8692L3.85804 25.4545H5.61941Z" fill="#747474"/>
<path d="M14.4333 25.2556C15.0299 25.2603 15.6265 25.374 16.2231 25.5965C16.8197 25.819 17.3642 26.1884 17.8566 26.7045C18.349 27.2158 18.7444 27.9142 19.0427 28.7996C19.341 29.6851 19.4901 30.7954 19.4901 32.1306C19.4901 33.4232 19.367 34.5714 19.1208 35.5752C18.8793 36.5743 18.529 37.4171 18.0697 38.1036C17.6151 38.7902 17.0612 39.311 16.4078 39.6661C15.7591 40.0212 15.0252 40.1988 14.2061 40.1988C13.3917 40.1988 12.6649 40.0378 12.0257 39.7158C11.3912 39.3891 10.8704 38.937 10.4632 38.3593C10.0607 37.7769 9.80264 37.1022 9.68901 36.3352H11.422C11.5782 37.0028 11.8883 37.5544 12.3524 37.99C12.8211 38.4208 13.439 38.6363 14.2061 38.6363C15.3282 38.6363 16.2136 38.1462 16.8623 37.1661C17.5157 36.186 17.8424 34.8011 17.8424 33.0113H17.7288C17.4636 33.409 17.1488 33.7523 16.7842 34.0411C16.4196 34.3299 16.0148 34.5525 15.5697 34.7087C15.1246 34.865 14.6511 34.9431 14.1492 34.9431C13.3159 34.9431 12.5512 34.7371 11.8552 34.3252C11.1639 33.9085 10.6099 33.338 10.1933 32.6136C9.78134 31.8844 9.57537 31.0511 9.57537 30.1136C9.57537 29.2234 9.77424 28.409 10.172 27.6704C10.5744 26.927 11.1379 26.3351 11.8623 25.8948C12.5915 25.4545 13.4485 25.2414 14.4333 25.2556ZM14.4333 26.8181C13.8367 26.8181 13.2993 26.9673 12.8211 27.2655C12.3476 27.5591 11.9712 27.9568 11.6919 28.4587C11.4172 28.9559 11.2799 29.5075 11.2799 30.1136C11.2799 30.7196 11.4125 31.2712 11.6776 31.7684C11.9475 32.2608 12.3145 32.6538 12.7785 32.9474C13.2472 33.2362 13.7799 33.3806 14.3765 33.3806C14.8263 33.3806 15.2454 33.293 15.6336 33.1178C16.0219 32.9379 16.3604 32.6941 16.6492 32.3863C16.9428 32.0738 17.1724 31.721 17.3382 31.328C17.5039 30.9303 17.5867 30.516 17.5867 30.0852C17.5867 29.517 17.4494 28.9843 17.1748 28.4871C16.9049 27.99 16.5309 27.5875 16.0526 27.2798C15.5792 26.972 15.0394 26.8181 14.4333 26.8181Z" fill="#747474"/>
<path d="M28.1824 39.9999V29.0399H29.9624V33.7799H30.0224L34.5824 29.0399H36.6624V29.0999L29.9624 35.8799V39.9999H28.1824ZM34.9824 39.9999V36.1399C34.9824 35.3533 34.7424 34.7399 34.2624 34.2999C33.7824 33.8599 32.9891 33.6399 31.8824 33.6399L32.9224 32.3399C33.7624 32.3399 34.4624 32.4933 35.0224 32.7999C35.5958 33.0933 36.0291 33.5199 36.3224 34.0799C36.6158 34.6399 36.7624 35.3133 36.7624 36.0999V39.9999H34.9824Z" fill="#747474"/>
<path d="M45.0407 40.1999C44.1874 40.1999 43.4474 40.0333 42.8207 39.6999C42.2074 39.3533 41.7874 38.8733 41.5607 38.2599H41.4807L41.3807 39.9999H39.9207V29.0399H41.7007V35.3799C41.7007 36.0466 41.814 36.6333 42.0407 37.1399C42.2807 37.6333 42.6207 38.0199 43.0607 38.2999C43.514 38.5666 44.054 38.6999 44.6807 38.6999C45.4674 38.6999 46.054 38.4933 46.4407 38.0799C46.8274 37.6666 47.0207 37.0599 47.0207 36.2599V29.0399H48.8007V36.3799C48.8007 37.2599 48.6474 37.9799 48.3407 38.5399C48.0474 39.0999 47.6207 39.5199 47.0607 39.7999C46.5007 40.0666 45.8274 40.1999 45.0407 40.1999Z" fill="#747474"/>
<path d="M45.7529 45.2999C44.8996 45.2999 44.2529 45.1266 43.8129 44.7799C43.3596 44.4466 43.1329 43.9666 43.1329 43.3399V42.9999C43.1329 42.7733 43.0796 42.6333 42.9729 42.5799C42.8529 42.5399 42.6929 42.5466 42.4929 42.5999L42.3729 41.3999C42.5596 41.3466 42.7462 41.3133 42.9329 41.2999C43.1062 41.2866 43.2396 41.2799 43.3329 41.2799C43.8129 41.2799 44.1596 41.3866 44.3729 41.5999C44.5729 41.8133 44.6729 42.1133 44.6729 42.4999V43.1799C44.6729 43.4333 44.7529 43.6466 44.9129 43.8199C45.0729 43.9933 45.3462 44.0799 45.7329 44.0799C46.1329 44.0799 46.4129 43.9933 46.5729 43.8199C46.7196 43.6466 46.7929 43.4333 46.7929 43.1799V41.3399H48.3529V43.2799C48.3529 43.9333 48.1329 44.4333 47.6929 44.7799C47.2529 45.1266 46.6062 45.2999 45.7529 45.2999Z" fill="#747474"/>
<path d="M47.0221 27.2999V23.0799H48.7821V27.2999H47.0221Z" fill="#747474"/>
<path d="M57.5565 39.9999V38.7215L62.3577 33.4658C62.9211 32.8503 63.3851 32.3153 63.7497 31.8607C64.1143 31.4014 64.3842 30.9706 64.5594 30.5681C64.7393 30.1609 64.8293 29.7348 64.8293 29.2897C64.8293 28.7783 64.7062 28.3356 64.46 27.9616C64.2185 27.5875 63.887 27.2987 63.4656 27.0951C63.0442 26.8915 62.5708 26.7897 62.0452 26.7897C61.4865 26.7897 60.9988 26.9057 60.5821 27.1377C60.1702 27.365 59.8506 27.6846 59.6233 28.0965C59.4008 28.5084 59.2895 28.9914 59.2895 29.5454H57.6134C57.6134 28.6931 57.8099 27.945 58.2029 27.3011C58.5959 26.6571 59.1309 26.1552 59.808 25.7954C60.4898 25.4355 61.2545 25.2556 62.102 25.2556C62.9543 25.2556 63.7095 25.4355 64.3676 25.7954C65.0258 26.1552 65.5419 26.6405 65.9159 27.2513C66.29 27.8621 66.477 28.5416 66.477 29.2897C66.477 29.8247 66.3799 30.3479 66.1858 30.8593C65.9964 31.3659 65.665 31.9317 65.1915 32.5567C64.7227 33.177 64.0717 33.9346 63.2384 34.8295L59.9713 38.3238V38.4374H66.7327V39.9999H57.5565Z" fill="#747474"/>
<path d="M79.2852 40.1999C78.1652 40.1999 77.2986 39.9466 76.6852 39.4399C76.0719 38.9199 75.6452 38.2199 75.4053 37.3399C75.1653 36.4466 75.0452 35.4333 75.0452 34.2999C75.0452 32.9933 75.1653 31.9399 75.4053 31.1399C75.6586 30.3399 76.0252 29.7599 76.5052 29.3999C76.9853 29.0266 77.5719 28.8399 78.2653 28.8399C78.7319 28.8399 79.1253 28.9199 79.4453 29.0799C79.7786 29.2399 80.0119 29.5066 80.1452 29.8799H80.2253C80.3586 29.4933 80.5986 29.2266 80.9453 29.0799C81.2919 28.9199 81.6986 28.8399 82.1652 28.8399C83.0319 28.8399 83.6986 29.0733 84.1653 29.5399C84.6452 29.9933 84.8852 30.6933 84.8852 31.6399V39.9999H83.1052V31.6599C83.1052 31.1399 82.9919 30.7866 82.7653 30.5999C82.5386 30.4133 82.2519 30.3199 81.9053 30.3199C81.5186 30.3199 81.2319 30.4133 81.0452 30.5999C80.8719 30.7866 80.7653 31.0933 80.7253 31.5199H79.6052C79.5519 31.0533 79.4119 30.7399 79.1852 30.5799C78.9586 30.4066 78.7052 30.3199 78.4252 30.3199C77.8919 30.3199 77.4919 30.6333 77.2253 31.2599C76.9586 31.8733 76.8252 32.8933 76.8252 34.3199C76.8252 35.2399 76.8919 36.0266 77.0252 36.6799C77.1719 37.3333 77.4386 37.8399 77.8252 38.1999C78.2119 38.5466 78.7719 38.7199 79.5052 38.7199C79.7719 38.7199 79.9919 38.7066 80.1652 38.6799C80.3386 38.6533 80.5052 38.6199 80.6652 38.5799L80.8452 39.9399C80.6452 40.0333 80.4052 40.0999 80.1252 40.1399C79.8452 40.1799 79.5652 40.1999 79.2852 40.1999Z" fill="#747474"/>
<path d="M83.222 27.7799C82.5553 27.7799 82.0286 27.6266 81.642 27.3199C81.2553 26.9999 81.062 26.5533 81.062 25.9799C81.062 25.3933 81.2553 24.9466 81.642 24.6399C82.0286 24.3333 82.5553 24.1799 83.222 24.1799C83.8886 24.1799 84.422 24.3333 84.822 24.6399C85.222 24.9466 85.422 25.3933 85.422 25.9799C85.422 26.5533 85.222 26.9999 84.822 27.3199C84.422 27.6266 83.8886 27.7799 83.222 27.7799ZM83.222 26.8399C83.542 26.8399 83.7886 26.7599 83.962 26.5999C84.122 26.4399 84.202 26.2333 84.202 25.9799C84.202 25.7133 84.122 25.5066 83.962 25.3599C83.7886 25.1999 83.542 25.1199 83.222 25.1199C82.9153 25.1199 82.682 25.1999 82.522 25.3599C82.3486 25.5066 82.262 25.7133 82.262 25.9799C82.262 26.2333 82.3486 26.4399 82.522 26.5999C82.682 26.7599 82.9153 26.8399 83.222 26.8399Z" fill="#747474"/>
<path d="M91.2201 39.9999V32.2199C91.2201 31.5666 91.0668 31.0866 90.7601 30.7799C90.4668 30.4733 89.9668 30.3199 89.2601 30.3199C88.7801 30.3199 88.3268 30.3866 87.9001 30.5199C87.4868 30.6399 87.0868 30.8133 86.7001 31.0399V29.4399C86.9668 29.3066 87.3468 29.1733 87.8401 29.0399C88.3334 28.9066 88.9201 28.8399 89.6001 28.8399C90.2934 28.8399 90.8934 28.9399 91.4001 29.1399C91.9068 29.3399 92.3001 29.6733 92.5801 30.1399C92.8601 30.5933 93.0001 31.1999 93.0001 31.9599V39.9999H91.2201Z" fill="#747474"/>
<path d="M100.645 40.1999C99.0718 40.1999 97.9451 39.8399 97.2651 39.1199C96.5851 38.3999 96.2451 37.3733 96.2451 36.0399V29.0399H98.0251V36.0599C98.0251 36.9533 98.2384 37.6199 98.6651 38.0599C99.0918 38.4999 99.7518 38.7199 100.645 38.7199C101.552 38.7199 102.218 38.4999 102.645 38.0599C103.085 37.6199 103.305 36.9533 103.305 36.0599V29.0399H105.085V36.0399C105.085 37.3733 104.738 38.3999 104.045 39.1199C103.365 39.8399 102.232 40.1999 100.645 40.1999Z" fill="#747474"/>
<path d="M114.735 39.9999V32.6999C114.735 31.8333 114.535 31.2199 114.135 30.8599C113.749 30.4866 113.095 30.2999 112.175 30.2999C111.509 30.2999 110.869 30.3933 110.255 30.5799C109.655 30.7533 109.082 30.9999 108.535 31.3199V29.6599C108.922 29.4599 109.442 29.2733 110.095 29.0999C110.762 28.9266 111.509 28.8399 112.335 28.8399C113.042 28.8399 113.655 28.9199 114.175 29.0799C114.695 29.2266 115.122 29.4533 115.455 29.7599C115.802 30.0666 116.062 30.4599 116.235 30.9399C116.409 31.4066 116.495 31.9599 116.495 32.5999V39.9999H114.735ZM111.295 40.1999C110.122 40.1999 109.222 39.9333 108.595 39.3999C107.982 38.8533 107.675 38.0733 107.675 37.0599C107.675 35.9533 108.075 35.0999 108.875 34.4999C109.689 33.8999 111.002 33.5466 112.815 33.4399L115.095 33.2999V34.7799L113.055 34.9199C111.695 35.0133 110.755 35.2266 110.235 35.5599C109.729 35.8933 109.475 36.3799 109.475 37.0199C109.475 37.6199 109.662 38.0599 110.035 38.3399C110.422 38.6199 110.955 38.7599 111.635 38.7599C111.862 38.7599 112.069 38.7466 112.255 38.7199C112.442 38.6799 112.622 38.6333 112.795 38.5799L113.075 39.9199C112.822 40.0133 112.542 40.0799 112.235 40.1199C111.942 40.1733 111.629 40.1999 111.295 40.1999Z" fill="#747474"/>
<path d="M122.221 40.1999C121.861 40.1999 121.515 40.1399 121.181 40.0199C120.848 39.8999 120.575 39.6866 120.361 39.3799C120.148 39.0733 120.041 38.6466 120.041 38.0999V29.0399H121.821V37.8799C121.821 38.1866 121.888 38.4066 122.021 38.5399C122.155 38.6733 122.368 38.7399 122.661 38.7399C122.781 38.7399 122.908 38.7266 123.041 38.6999C123.175 38.6733 123.301 38.6399 123.421 38.5999L123.661 39.8999C123.408 40.0199 123.161 40.0999 122.921 40.1399C122.681 40.1799 122.448 40.1999 122.221 40.1999ZM127.681 40.1999C127.321 40.1999 126.975 40.1399 126.641 40.0199C126.308 39.8999 126.035 39.6866 125.821 39.3799C125.608 39.0733 125.501 38.6466 125.501 38.0999V29.0399H127.281V37.8799C127.281 38.1866 127.348 38.4066 127.481 38.5399C127.615 38.6733 127.828 38.7399 128.121 38.7399C128.241 38.7399 128.368 38.7266 128.501 38.6999C128.635 38.6733 128.761 38.6399 128.881 38.5999L129.121 39.8999C128.868 40.0199 128.621 40.0999 128.381 40.1399C128.141 40.1799 127.908 40.1999 127.681 40.1999Z" fill="#747474"/>
<path d="M136.388 40.1999C135.535 40.1999 134.795 40.0333 134.168 39.6999C133.555 39.3533 133.135 38.8733 132.908 38.2599H132.828L132.728 39.9999H131.268V29.0399H133.048V35.3799C133.048 36.0466 133.162 36.6333 133.388 37.1399C133.628 37.6333 133.968 38.0199 134.408 38.2999C134.862 38.5666 135.402 38.6999 136.028 38.6999C136.815 38.6999 137.402 38.4933 137.788 38.0799C138.175 37.6666 138.368 37.0599 138.368 36.2599V29.0399H140.148V36.3799C140.148 37.2599 139.995 37.9799 139.688 38.5399C139.395 39.0999 138.968 39.5199 138.408 39.7999C137.848 40.0666 137.175 40.1999 136.388 40.1999Z" fill="#747474"/>
<path d="M138.37 27.2999V23.0799H140.13V27.2999H138.37Z" fill="#747474"/>
<path d="M143.294 39.9999V36.1999C143.294 35.3599 143.48 34.7533 143.854 34.3799C144.227 33.9933 144.7 33.7266 145.274 33.5799L145.294 33.5199L143.094 32.6799V32.0199C143.094 31.4733 143.274 30.9599 143.634 30.4799C143.994 29.9866 144.507 29.5933 145.174 29.2999C145.854 28.9933 146.66 28.8399 147.594 28.8399C148.407 28.8399 149.16 28.9733 149.854 29.2399C150.547 29.4933 151.1 29.8999 151.514 30.4599C151.94 31.0066 152.154 31.7266 152.154 32.6199V39.9999H150.374V32.7999C150.374 31.9066 150.1 31.2733 149.554 30.8999C149.02 30.5133 148.36 30.3199 147.574 30.3199C146.76 30.3199 146.114 30.4933 145.634 30.8399C145.154 31.1733 144.914 31.5999 144.914 32.1199L147.074 33.1999L146.914 34.1599C146.42 34.1599 145.987 34.3266 145.614 34.6599C145.254 34.9799 145.074 35.4933 145.074 36.1999V39.9999H143.294Z" fill="#747474"/>
<path d="M158.486 39.9999V32.2199C158.486 31.5666 158.332 31.0866 158.026 30.7799C157.732 30.4733 157.232 30.3199 156.526 30.3199C156.046 30.3199 155.592 30.3866 155.166 30.5199C154.752 30.6399 154.352 30.8133 153.966 31.0399V29.4399C154.232 29.3066 154.612 29.1733 155.106 29.0399C155.599 28.9066 156.186 28.8399 156.866 28.8399C157.559 28.8399 158.159 28.9399 158.666 29.1399C159.172 29.3399 159.566 29.6733 159.846 30.1399C160.126 30.5933 160.266 31.1999 160.266 31.9599V39.9999H158.486Z" fill="#747474"/>
<path d="M173.016 40.1999C171.576 40.1999 170.496 39.8266 169.776 39.0799C169.069 38.3199 168.716 37.1333 168.716 35.5199C168.716 35.2533 168.722 34.9666 168.736 34.6599C168.762 34.3399 168.789 34.0266 168.816 33.7199H173.016V35.1199H170.496V35.5199C170.496 36.3599 170.589 37.0199 170.776 37.4999C170.962 37.9666 171.236 38.2933 171.596 38.4799C171.969 38.6666 172.429 38.7599 172.976 38.7599C173.576 38.7599 174.096 38.6466 174.536 38.4199C174.976 38.1933 175.316 37.7799 175.556 37.1799C175.796 36.5799 175.916 35.7199 175.916 34.5999C175.916 33.6133 175.809 32.8066 175.596 32.1799C175.382 31.5533 175.029 31.0866 174.536 30.7799C174.056 30.4733 173.402 30.3199 172.576 30.3199C172.149 30.3199 171.736 30.3599 171.336 30.4399C170.936 30.5066 170.549 30.6133 170.176 30.7599C169.802 30.8933 169.436 31.0666 169.076 31.2799V29.6199C169.342 29.4733 169.669 29.3466 170.056 29.2399C170.442 29.1199 170.869 29.0266 171.336 28.9599C171.802 28.8799 172.289 28.8399 172.796 28.8399C173.969 28.8399 174.916 29.0799 175.636 29.5599C176.369 30.0266 176.902 30.6933 177.236 31.5599C177.569 32.4133 177.736 33.4266 177.736 34.5999C177.736 35.7733 177.582 36.7799 177.276 37.6199C176.969 38.4599 176.469 39.0999 175.776 39.5399C175.096 39.9799 174.176 40.1999 173.016 40.1999Z" fill="#747474"/>
<path d="M175.605 27.7799C174.938 27.7799 174.411 27.6266 174.025 27.3199C173.638 26.9999 173.445 26.5533 173.445 25.9799C173.445 25.3933 173.638 24.9466 174.025 24.6399C174.411 24.3333 174.938 24.1799 175.605 24.1799C176.271 24.1799 176.805 24.3333 177.205 24.6399C177.605 24.9466 177.805 25.3933 177.805 25.9799C177.805 26.5533 177.605 26.9999 177.205 27.3199C176.805 27.6266 176.271 27.7799 175.605 27.7799ZM175.605 26.8399C175.925 26.8399 176.171 26.7599 176.345 26.5999C176.505 26.4399 176.585 26.2333 176.585 25.9799C176.585 25.7133 176.505 25.5066 176.345 25.3599C176.171 25.1999 175.925 25.1199 175.605 25.1199C175.298 25.1199 175.065 25.1999 174.905 25.3599C174.731 25.5066 174.645 25.7133 174.645 25.9799C174.645 26.2333 174.731 26.4399 174.905 26.5999C175.065 26.7599 175.298 26.8399 175.605 26.8399Z" fill="#747474"/>
<path d="M183.72 39.9999V32.2199C183.72 31.5666 183.567 31.0866 183.26 30.7799C182.967 30.4733 182.467 30.3199 181.76 30.3199C181.28 30.3199 180.827 30.3866 180.4 30.5199C179.987 30.6399 179.587 30.8133 179.2 31.0399V29.4399C179.467 29.3066 179.847 29.1733 180.34 29.0399C180.833 28.9066 181.42 28.8399 182.1 28.8399C182.793 28.8399 183.393 28.9399 183.9 29.1399C184.407 29.3399 184.8 29.6733 185.08 30.1399C185.36 30.5933 185.5 31.1999 185.5 31.9599V39.9999H183.72Z" fill="#747474"/>
<path d="M191.225 40.1999C190.865 40.1999 190.518 40.1399 190.185 40.0199C189.852 39.8999 189.578 39.6866 189.365 39.3799C189.152 39.0733 189.045 38.6466 189.045 38.0999V29.0399H190.825V37.8799C190.825 38.1866 190.892 38.4066 191.025 38.5399C191.158 38.6733 191.372 38.7399 191.665 38.7399C191.785 38.7399 191.912 38.7266 192.045 38.6999C192.178 38.6733 192.305 38.6399 192.425 38.5999L192.665 39.8999C192.412 40.0199 192.165 40.0999 191.925 40.1399C191.685 40.1799 191.452 40.1999 191.225 40.1999Z" fill="#747474"/>
<path d="M194.784 40.1999C194.544 40.1999 194.31 40.1733 194.084 40.1199C193.857 40.0799 193.63 40.0066 193.404 39.8999L193.604 38.6599C193.697 38.6866 193.804 38.7133 193.924 38.7399C194.044 38.7666 194.157 38.7799 194.264 38.7799C194.477 38.7799 194.63 38.7199 194.724 38.5999C194.817 38.4666 194.864 38.2599 194.864 37.9799V36.1199C194.864 35.2933 195.017 34.6999 195.324 34.3399C195.63 33.9666 196.07 33.7133 196.644 33.5799L196.664 33.5199L194.364 32.6799V32.0199C194.364 31.4733 194.537 30.9599 194.884 30.4799C195.244 29.9866 195.764 29.5933 196.444 29.2999C197.124 28.9933 197.937 28.8399 198.884 28.8399C199.71 28.8399 200.47 28.9733 201.164 29.2399C201.857 29.4933 202.41 29.8999 202.824 30.4599C203.25 31.0066 203.464 31.7266 203.464 32.6199V39.9999H201.684V32.7999C201.684 31.9066 201.41 31.2733 200.864 30.8999C200.317 30.5133 199.65 30.3199 198.864 30.3199C198.037 30.3199 197.384 30.4933 196.904 30.8399C196.424 31.1733 196.184 31.5999 196.184 32.1199L198.464 33.1999L198.304 34.1599C197.81 34.1599 197.41 34.3199 197.104 34.6399C196.797 34.9599 196.644 35.4733 196.644 36.1799V38.1199C196.644 38.9333 196.464 39.4866 196.104 39.7799C195.744 40.0599 195.304 40.1999 194.784 40.1999Z" fill="#747474"/>
<path d="M210.574 40.1999C209.134 40.1999 208.054 39.8266 207.334 39.0799C206.628 38.3199 206.274 37.1333 206.274 35.5199C206.274 35.2533 206.281 34.9666 206.294 34.6599C206.321 34.3399 206.348 34.0266 206.374 33.7199H210.574V35.1199H208.054V35.5199C208.054 36.3599 208.148 37.0199 208.334 37.4999C208.521 37.9666 208.794 38.2933 209.154 38.4799C209.528 38.6666 209.988 38.7599 210.534 38.7599C211.134 38.7599 211.654 38.6466 212.094 38.4199C212.534 38.1933 212.874 37.7799 213.114 37.1799C213.354 36.5799 213.474 35.7199 213.474 34.5999C213.474 33.6133 213.368 32.8066 213.154 32.1799C212.941 31.5533 212.588 31.0866 212.094 30.7799C211.614 30.4733 210.961 30.3199 210.134 30.3199C209.708 30.3199 209.294 30.3599 208.894 30.4399C208.494 30.5066 208.108 30.6133 207.734 30.7599C207.361 30.8933 206.994 31.0666 206.634 31.2799V29.6199C206.901 29.4733 207.228 29.3466 207.614 29.2399C208.001 29.1199 208.428 29.0266 208.894 28.9599C209.361 28.8799 209.848 28.8399 210.354 28.8399C211.528 28.8399 212.474 29.0799 213.194 29.5599C213.928 30.0266 214.461 30.6933 214.794 31.5599C215.128 32.4133 215.294 33.4266 215.294 34.5999C215.294 35.7733 215.141 36.7799 214.834 37.6199C214.528 38.4599 214.028 39.0999 213.334 39.5399C212.654 39.9799 211.734 40.1999 210.574 40.1999Z" fill="#747474"/>
<path d="M220.659 40.1999C220.299 40.1999 219.952 40.1399 219.619 40.0199C219.285 39.8999 219.012 39.6866 218.799 39.3799C218.585 39.0733 218.479 38.6466 218.479 38.0999V29.0399H220.259V37.8799C220.259 38.1866 220.325 38.4066 220.459 38.5399C220.592 38.6733 220.805 38.7399 221.099 38.7399C221.219 38.7399 221.345 38.7266 221.479 38.6999C221.612 38.6733 221.739 38.6399 221.859 38.5999L222.099 39.8999C221.845 40.0199 221.599 40.0999 221.359 40.1399C221.119 40.1799 220.885 40.1999 220.659 40.1999Z" fill="#747474"/>
<path d="M229.357 40.1999C228.504 40.1999 227.764 40.0333 227.137 39.6999C226.524 39.3533 226.104 38.8733 225.877 38.2599H225.797L225.697 39.9999H224.237V29.0399H226.017V35.3799C226.017 36.0466 226.13 36.6333 226.357 37.1399C226.597 37.6333 226.937 38.0199 227.377 38.2999C227.83 38.5666 228.37 38.6999 228.997 38.6999C229.784 38.6999 230.37 38.4933 230.757 38.0799C231.144 37.6666 231.337 37.0599 231.337 36.2599V29.0399H233.117V36.3799C233.117 37.2599 232.964 37.9799 232.657 38.5399C232.364 39.0999 231.937 39.5199 231.377 39.7999C230.817 40.0666 230.144 40.1999 229.357 40.1999Z" fill="#747474"/>
<path d="M224.619 27.2999V26.5199L226.079 25.8799H233.119V27.2999H224.619ZM228.739 26.5199V24.2599H230.219V26.5199H228.739ZM231.659 26.5199V24.2599H233.119V26.5199H231.659Z" fill="#747474"/>
<path d="M240.242 40.1999C238.802 40.1999 237.722 39.8266 237.002 39.0799C236.296 38.3199 235.942 37.1333 235.942 35.5199C235.942 35.2533 235.949 34.9666 235.962 34.6599C235.989 34.3399 236.016 34.0266 236.042 33.7199H240.242V35.1199H237.722V35.5199C237.722 36.3599 237.816 37.0199 238.002 37.4999C238.189 37.9666 238.462 38.2933 238.822 38.4799C239.196 38.6666 239.656 38.7599 240.202 38.7599C240.802 38.7599 241.322 38.6466 241.762 38.4199C242.202 38.1933 242.542 37.7799 242.782 37.1799C243.022 36.5799 243.142 35.7199 243.142 34.5999C243.142 33.6133 243.036 32.8066 242.822 32.1799C242.609 31.5533 242.256 31.0866 241.762 30.7799C241.282 30.4733 240.629 30.3199 239.802 30.3199C239.376 30.3199 238.962 30.3599 238.562 30.4399C238.162 30.5066 237.776 30.6133 237.402 30.7599C237.029 30.8933 236.662 31.0666 236.302 31.2799V29.6199C236.569 29.4733 236.896 29.3466 237.282 29.2399C237.669 29.1199 238.096 29.0266 238.562 28.9599C239.029 28.8799 239.516 28.8399 240.022 28.8399C241.196 28.8399 242.142 29.0799 242.862 29.5599C243.596 30.0266 244.129 30.6933 244.462 31.5599C244.796 32.4133 244.962 33.4266 244.962 34.5999C244.962 35.7733 244.809 36.7799 244.502 37.6199C244.196 38.4599 243.696 39.0999 243.002 39.5399C242.322 39.9799 241.402 40.1999 240.242 40.1999Z" fill="#747474"/>
<path d="M249.647 39.9999L246.227 29.0399H248.027L250.987 38.4599H251.227C251.547 38.4599 251.86 38.3866 252.167 38.2399C252.473 38.0799 252.733 37.8799 252.947 37.6399C253.347 37.1999 253.64 36.6466 253.827 35.9799C254.013 35.2999 254.107 34.6333 254.107 33.9799C254.107 32.8733 253.853 32.0066 253.347 31.3799C252.853 30.7399 252.167 30.4199 251.287 30.4199C251.113 30.4199 250.94 30.4333 250.767 30.4599C250.607 30.4866 250.473 30.5199 250.367 30.5599L249.927 29.1399C250.207 29.0599 250.467 29.0066 250.707 28.9799C250.96 28.9533 251.187 28.9399 251.387 28.9399C252.053 28.9399 252.647 29.0399 253.167 29.2399C253.7 29.4266 254.153 29.7066 254.527 30.0799C254.993 30.5333 255.333 31.0999 255.547 31.7799C255.773 32.4599 255.887 33.2133 255.887 34.0399C255.887 35.0799 255.727 36.0066 255.407 36.8199C255.087 37.6199 254.687 38.2599 254.207 38.7399C253.82 39.1266 253.347 39.4333 252.787 39.6599C252.227 39.8866 251.513 39.9999 250.647 39.9999H249.647Z" fill="#747474"/>
<path d="M259.769 39.9999L257.789 29.0399H259.609L260.389 33.7999C260.456 34.1866 260.522 34.6866 260.589 35.2999C260.656 35.9133 260.736 36.6399 260.829 37.4799H260.889C261.009 36.9066 261.122 36.3933 261.229 35.9399C261.349 35.4866 261.456 35.0799 261.549 34.7199C261.655 34.3466 261.749 34.0199 261.829 33.7399L263.169 29.0399H264.629L265.989 33.7399C266.069 34.0199 266.156 34.3466 266.249 34.7199C266.355 35.0799 266.462 35.4866 266.569 35.9399C266.689 36.3933 266.809 36.9066 266.929 37.4799H267.009C267.089 36.6399 267.162 35.9133 267.229 35.2999C267.296 34.6866 267.362 34.1866 267.429 33.7999L268.229 29.0399H270.049L268.069 39.9999H266.329L264.489 34.0399C264.396 33.7066 264.302 33.3599 264.209 32.9999C264.129 32.6399 264.049 32.1666 263.969 31.5799H263.889C263.836 31.9666 263.776 32.3066 263.709 32.5999C263.642 32.8933 263.576 33.1533 263.509 33.3799C263.442 33.6066 263.376 33.8266 263.309 34.0399L261.509 39.9999H259.769Z" fill="#747474"/>
<path d="M273.935 33.1199C273.388 33.1199 272.942 33.0399 272.595 32.8799C272.262 32.7066 272.022 32.4933 271.875 32.2399C271.728 31.9733 271.655 31.6933 271.655 31.3999C271.655 31.1999 271.682 30.9933 271.735 30.7799C271.802 30.5666 271.882 30.3866 271.975 30.2399L273.475 30.4799C273.448 30.5466 273.415 30.6399 273.375 30.7599C273.348 30.8799 273.335 30.9999 273.335 31.1199C273.335 31.2933 273.382 31.4399 273.475 31.5599C273.568 31.6666 273.742 31.7199 273.995 31.7199H276.855V33.1199H273.935ZM273.935 38.7199C273.388 38.7199 272.942 38.6399 272.595 38.4799C272.262 38.3066 272.022 38.0933 271.875 37.8399C271.728 37.5733 271.655 37.2933 271.655 36.9999C271.655 36.7999 271.682 36.5933 271.735 36.3799C271.802 36.1666 271.882 35.9866 271.975 35.8399L273.475 36.0799C273.448 36.1466 273.415 36.2399 273.375 36.3599C273.348 36.4799 273.335 36.5999 273.335 36.7199C273.335 36.8933 273.382 37.0399 273.475 37.1599C273.568 37.2666 273.742 37.3199 273.995 37.3199H276.855V38.7199H273.935Z" fill="#747474"/>
<path d="M281.733 40.1999C281.373 40.1999 281.026 40.1399 280.693 40.0199C280.36 39.8999 280.086 39.6866 279.873 39.3799C279.66 39.0733 279.553 38.6466 279.553 38.0999V29.0399H281.333V37.8799C281.333 38.1866 281.4 38.4066 281.533 38.5399C281.666 38.6733 281.88 38.7399 282.173 38.7399C282.293 38.7399 282.42 38.7266 282.553 38.6999C282.686 38.6733 282.813 38.6399 282.933 38.5999L283.173 39.8999C282.92 40.0199 282.673 40.0999 282.433 40.1399C282.193 40.1799 281.96 40.1999 281.733 40.1999Z" fill="#747474"/>
<path d="M288.766 40.1799C287.686 40.1799 286.819 40.0399 286.166 39.7599C285.526 39.4799 285.059 39.0866 284.766 38.5799C284.486 38.0733 284.346 37.4733 284.346 36.7799C284.346 36.1666 284.433 35.6799 284.606 35.3199C284.793 34.9466 285.019 34.6733 285.286 34.4999C285.566 34.3266 285.853 34.2133 286.146 34.1599V34.0799C285.879 33.9999 285.599 33.8666 285.306 33.6799C285.013 33.4933 284.766 33.2333 284.566 32.8999C284.379 32.5666 284.286 32.1466 284.286 31.6399C284.286 31.1733 284.393 30.7333 284.606 30.3199C284.819 29.9066 285.166 29.5666 285.646 29.2999C286.126 29.0333 286.759 28.8999 287.546 28.8999C287.866 28.8999 288.199 28.9266 288.546 28.9799C288.893 29.0199 289.159 29.0933 289.346 29.1999L289.026 30.5799C288.879 30.5266 288.686 30.4799 288.446 30.4399C288.219 30.3866 287.979 30.3599 287.726 30.3599C287.166 30.3599 286.753 30.4933 286.486 30.7599C286.219 31.0133 286.086 31.3533 286.086 31.7799C286.086 32.2466 286.199 32.5999 286.426 32.8399C286.666 33.0799 286.966 33.2466 287.326 33.3399C287.699 33.4199 288.086 33.4599 288.486 33.4599H288.866V34.7599H288.486C287.686 34.7599 287.093 34.9066 286.706 35.1999C286.333 35.4799 286.146 35.9533 286.146 36.6199C286.146 37.0066 286.219 37.3599 286.366 37.6799C286.526 37.9999 286.793 38.2533 287.166 38.4399C287.553 38.6266 288.086 38.7199 288.766 38.7199C289.446 38.7199 289.973 38.6266 290.346 38.4399C290.733 38.2533 291.006 37.9866 291.166 37.6399C291.326 37.2799 291.406 36.8533 291.406 36.3599V29.0399H293.186V36.2399C293.186 37.6399 292.826 38.6466 292.106 39.2599C291.399 39.8733 290.286 40.1799 288.766 40.1799Z" fill="#747474"/>
<path d="M299.521 39.9999V32.2199C299.521 31.5666 299.368 31.0866 299.061 30.7799C298.768 30.4733 298.268 30.3199 297.561 30.3199C297.081 30.3199 296.628 30.3866 296.201 30.5199C295.788 30.6399 295.388 30.8133 295.001 31.0399V29.4399C295.268 29.3066 295.648 29.1733 296.141 29.0399C296.634 28.9066 297.221 28.8399 297.901 28.8399C298.594 28.8399 299.194 28.9399 299.701 29.1399C300.208 29.3399 300.601 29.6733 300.881 30.1399C301.161 30.5933 301.301 31.1999 301.301 31.9599V39.9999H299.521Z" fill="#747474"/>
<path d="M311.491 39.9999V35.1199H309.971V33.7199H313.191V38.5599H313.451C314.051 38.5599 314.551 38.4266 314.951 38.1599C315.351 37.8933 315.651 37.4599 315.851 36.8599C316.051 36.2599 316.151 35.4666 316.151 34.4799C316.151 33.4933 316.038 32.6933 315.811 32.0799C315.598 31.4666 315.244 31.0199 314.751 30.7399C314.271 30.4599 313.618 30.3199 312.791 30.3199C312.164 30.3199 311.558 30.4066 310.971 30.5799C310.398 30.7399 309.844 30.9933 309.311 31.3399V29.6799C309.711 29.4399 310.238 29.2399 310.891 29.0799C311.544 28.9199 312.251 28.8399 313.011 28.8399C314.224 28.8399 315.191 29.0666 315.911 29.5199C316.644 29.9599 317.171 30.5999 317.491 31.4399C317.811 32.2799 317.971 33.2999 317.971 34.4999C317.971 35.6599 317.811 36.6533 317.491 37.4799C317.184 38.2933 316.678 38.9199 315.971 39.3599C315.278 39.7866 314.344 39.9999 313.171 39.9999H311.491Z" fill="#747474"/>
<path d="M315.051 27.2999C314.491 27.2999 314.045 27.2199 313.711 27.0599C313.378 26.8999 313.138 26.6933 312.991 26.4399C312.831 26.1866 312.751 25.9199 312.751 25.6399C312.751 25.4399 312.785 25.2266 312.851 24.9999C312.905 24.7599 312.978 24.5666 313.071 24.4199L314.571 24.6799C314.545 24.7333 314.518 24.8266 314.491 24.9599C314.465 25.0799 314.451 25.1933 314.451 25.2999C314.451 25.4733 314.505 25.6266 314.611 25.7599C314.718 25.8799 314.898 25.9399 315.151 25.9399H320.211V27.2999H315.051Z" fill="#747474"/>
<path d="M322.615 39.9999L319.195 29.0399H320.995L323.955 38.4599H324.195C324.515 38.4599 324.829 38.3866 325.135 38.2399C325.442 38.0799 325.702 37.8799 325.915 37.6399C326.315 37.1999 326.609 36.6466 326.795 35.9799C326.982 35.2999 327.075 34.6333 327.075 33.9799C327.075 32.8733 326.822 32.0066 326.315 31.3799C325.822 30.7399 325.135 30.4199 324.255 30.4199C324.082 30.4199 323.909 30.4333 323.735 30.4599C323.575 30.4866 323.442 30.5199 323.335 30.5599L322.895 29.1399C323.175 29.0599 323.435 29.0066 323.675 28.9799C323.929 28.9533 324.155 28.9399 324.355 28.9399C325.022 28.9399 325.615 29.0399 326.135 29.2399C326.669 29.4266 327.122 29.7066 327.495 30.0799C327.962 30.5333 328.302 31.0999 328.515 31.7799C328.742 32.4599 328.855 33.2133 328.855 34.0399C328.855 35.0799 328.695 36.0066 328.375 36.8199C328.055 37.6199 327.655 38.2599 327.175 38.7399C326.789 39.1266 326.315 39.4333 325.755 39.6599C325.195 39.8866 324.482 39.9999 323.615 39.9999H322.615Z" fill="#747474"/>
<path d="M331.718 39.9999V29.0399H333.498V33.7799H333.558L338.118 29.0399H340.198V29.0999L333.498 35.8799V39.9999H331.718ZM338.518 39.9999V36.1399C338.518 35.3533 338.278 34.7399 337.798 34.2999C337.318 33.8599 336.524 33.6399 335.418 33.6399L336.458 32.3399C337.298 32.3399 337.998 32.4933 338.558 32.7999C339.131 33.0933 339.564 33.5199 339.858 34.0799C340.151 34.6399 340.298 35.3133 340.298 36.0999V39.9999H338.518Z" fill="#747474"/>
<path d="M345.496 40.1999C344.976 40.1999 344.469 40.1466 343.976 40.0399C343.496 39.9333 342.983 39.7333 342.436 39.4399L342.996 38.0799C343.289 38.2533 343.623 38.4066 343.996 38.5399C344.369 38.6599 344.803 38.7199 345.296 38.7199C346.283 38.7199 347.049 38.3599 347.596 37.6399C348.156 36.9066 348.436 35.8533 348.436 34.4799C348.436 33.1333 348.149 32.1066 347.576 31.3999C347.016 30.6799 346.149 30.3199 344.976 30.3199C344.549 30.3199 344.116 30.3666 343.676 30.4599C343.236 30.5533 342.849 30.6933 342.516 30.8799V29.3799C342.903 29.1799 343.323 29.0399 343.776 28.9599C344.243 28.8799 344.709 28.8399 345.176 28.8399C346.376 28.8399 347.349 29.0799 348.096 29.5599C348.843 30.0266 349.389 30.6799 349.736 31.5199C350.083 32.3599 350.256 33.3466 350.256 34.4799C350.256 36.2399 349.856 37.6333 349.056 38.6599C348.269 39.6866 347.083 40.1999 345.496 40.1999Z" fill="#747474"/>
<path d="M347.395 27.2999C346.835 27.2999 346.388 27.2199 346.055 27.0599C345.722 26.8999 345.482 26.6933 345.335 26.4399C345.175 26.1866 345.095 25.9199 345.095 25.6399C345.095 25.4399 345.128 25.2266 345.195 24.9999C345.248 24.7599 345.322 24.5666 345.415 24.4199L346.915 24.6799C346.888 24.7333 346.862 24.8266 346.835 24.9599C346.808 25.0799 346.795 25.1933 346.795 25.2999C346.795 25.4733 346.848 25.6266 346.955 25.7599C347.062 25.8799 347.242 25.9399 347.495 25.9399H352.555V27.2999H347.395Z" fill="#747474"/>
<path d="M356.88 40.1999C355.813 40.1999 354.973 39.9533 354.36 39.4599C353.76 38.9533 353.333 38.2733 353.08 37.4199C352.84 36.5666 352.72 35.6266 352.72 34.5999C352.72 33.4666 352.833 32.5333 353.06 31.7999C353.3 31.0533 353.633 30.4666 354.06 30.0399C354.5 29.5999 355.02 29.2933 355.62 29.1199C356.233 28.9333 356.906 28.8399 357.64 28.8399C358.706 28.8399 359.573 28.9999 360.24 29.3199C360.92 29.6266 361.42 30.0666 361.74 30.6399C362.06 31.2133 362.22 31.8999 362.22 32.6999V39.9999H360.46V32.8599C360.46 32.0333 360.253 31.4066 359.84 30.9799C359.426 30.5399 358.713 30.3199 357.7 30.3199C357.086 30.3199 356.533 30.4333 356.04 30.6599C355.56 30.8866 355.18 31.3066 354.9 31.9199C354.633 32.5333 354.5 33.4333 354.5 34.6199C354.5 35.3933 354.573 36.0933 354.72 36.7199C354.88 37.3333 355.153 37.8199 355.54 38.1799C355.926 38.5399 356.466 38.7199 357.16 38.7199C357.36 38.7199 357.546 38.7066 357.72 38.6799C357.893 38.6533 358.06 38.6133 358.22 38.5599L358.4 39.9399C358.186 40.0333 357.94 40.0999 357.66 40.1399C357.393 40.1799 357.133 40.1999 356.88 40.1999Z" fill="#747474"/>
<path d="M366.644 39.9999L364.664 29.0399H366.484L367.264 33.7999C367.331 34.1866 367.397 34.6866 367.464 35.2999C367.531 35.9133 367.611 36.6399 367.704 37.4799H367.764C367.884 36.9066 367.997 36.3933 368.104 35.9399C368.224 35.4866 368.331 35.0799 368.424 34.7199C368.53 34.3466 368.624 34.0199 368.704 33.7399L370.044 29.0399H371.504L372.864 33.7399C372.944 34.0199 373.031 34.3466 373.124 34.7199C373.23 35.0799 373.337 35.4866 373.444 35.9399C373.564 36.3933 373.684 36.9066 373.804 37.4799H373.884C373.964 36.6399 374.037 35.9133 374.104 35.2999C374.171 34.6866 374.237 34.1866 374.304 33.7999L375.104 29.0399H376.924L374.944 39.9999H373.204L371.364 34.0399C371.271 33.7066 371.177 33.3599 371.084 32.9999C371.004 32.6399 370.924 32.1666 370.844 31.5799H370.764C370.711 31.9666 370.651 32.3066 370.584 32.5999C370.517 32.8933 370.451 33.1533 370.384 33.3799C370.317 33.6066 370.251 33.8266 370.184 34.0399L368.384 39.9999H366.644Z" fill="#747474"/>
<path d="M380.81 33.1199C380.263 33.1199 379.817 33.0399 379.47 32.8799C379.137 32.7066 378.897 32.4933 378.75 32.2399C378.603 31.9733 378.53 31.6933 378.53 31.3999C378.53 31.1999 378.557 30.9933 378.61 30.7799C378.677 30.5666 378.757 30.3866 378.85 30.2399L380.35 30.4799C380.323 30.5466 380.29 30.6399 380.25 30.7599C380.223 30.8799 380.21 30.9999 380.21 31.1199C380.21 31.2933 380.257 31.4399 380.35 31.5599C380.443 31.6666 380.617 31.7199 380.87 31.7199H383.73V33.1199H380.81ZM380.81 38.7199C380.263 38.7199 379.817 38.6399 379.47 38.4799C379.137 38.3066 378.897 38.0933 378.75 37.8399C378.603 37.5733 378.53 37.2933 378.53 36.9999C378.53 36.7999 378.557 36.5933 378.61 36.3799C378.677 36.1666 378.757 35.9866 378.85 35.8399L380.35 36.0799C380.323 36.1466 380.29 36.2399 380.25 36.3599C380.223 36.4799 380.21 36.5999 380.21 36.7199C380.21 36.8933 380.257 37.0399 380.35 37.1599C380.443 37.2666 380.617 37.3199 380.87 37.3199H383.73V38.7199H380.81Z" fill="#747474"/>
<path d="M388.608 40.1999C388.248 40.1999 387.901 40.1399 387.568 40.0199C387.235 39.8999 386.961 39.6866 386.748 39.3799C386.535 39.0733 386.428 38.6466 386.428 38.0999V29.0399H388.208V37.8799C388.208 38.1866 388.275 38.4066 388.408 38.5399C388.541 38.6733 388.755 38.7399 389.048 38.7399C389.168 38.7399 389.295 38.7266 389.428 38.6999C389.561 38.6733 389.688 38.6399 389.808 38.5999L390.048 39.8999C389.795 40.0199 389.548 40.0999 389.308 40.1399C389.068 40.1799 388.835 40.1999 388.608 40.1999Z" fill="#747474"/>
<path d="M395.641 40.1799C394.561 40.1799 393.694 40.0399 393.041 39.7599C392.401 39.4799 391.934 39.0866 391.641 38.5799C391.361 38.0733 391.221 37.4733 391.221 36.7799C391.221 36.1666 391.308 35.6799 391.481 35.3199C391.668 34.9466 391.894 34.6733 392.161 34.4999C392.441 34.3266 392.728 34.2133 393.021 34.1599V34.0799C392.754 33.9999 392.474 33.8666 392.181 33.6799C391.888 33.4933 391.641 33.2333 391.441 32.8999C391.254 32.5666 391.161 32.1466 391.161 31.6399C391.161 31.1733 391.268 30.7333 391.481 30.3199C391.694 29.9066 392.041 29.5666 392.521 29.2999C393.001 29.0333 393.634 28.8999 394.421 28.8999C394.741 28.8999 395.074 28.9266 395.421 28.9799C395.768 29.0199 396.034 29.0933 396.221 29.1999L395.901 30.5799C395.754 30.5266 395.561 30.4799 395.321 30.4399C395.094 30.3866 394.854 30.3599 394.601 30.3599C394.041 30.3599 393.628 30.4933 393.361 30.7599C393.094 31.0133 392.961 31.3533 392.961 31.7799C392.961 32.2466 393.074 32.5999 393.301 32.8399C393.541 33.0799 393.841 33.2466 394.201 33.3399C394.574 33.4199 394.961 33.4599 395.361 33.4599H395.741V34.7599H395.361C394.561 34.7599 393.968 34.9066 393.581 35.1999C393.208 35.4799 393.021 35.9533 393.021 36.6199C393.021 37.0066 393.094 37.3599 393.241 37.6799C393.401 37.9999 393.668 38.2533 394.041 38.4399C394.428 38.6266 394.961 38.7199 395.641 38.7199C396.321 38.7199 396.848 38.6266 397.221 38.4399C397.608 38.2533 397.881 37.9866 398.041 37.6399C398.201 37.2799 398.281 36.8533 398.281 36.3599V29.0399H400.061V36.2399C400.061 37.6399 399.701 38.6466 398.981 39.2599C398.274 39.8733 397.161 40.1799 395.641 40.1799Z" fill="#747474"/>
<path d="M406.396 39.9999V32.2199C406.396 31.5666 406.243 31.0866 405.936 30.7799C405.643 30.4733 405.143 30.3199 404.436 30.3199C403.956 30.3199 403.503 30.3866 403.076 30.5199C402.663 30.6399 402.263 30.8133 401.876 31.0399V29.4399C402.143 29.3066 402.523 29.1733 403.016 29.0399C403.509 28.9066 404.096 28.8399 404.776 28.8399C405.469 28.8399 406.069 28.9399 406.576 29.1399C407.083 29.3399 407.476 29.6733 407.756 30.1399C408.036 30.5933 408.176 31.1999 408.176 31.9599V39.9999H406.396Z" fill="#747474"/>
<path d="M421.477 40.1988C420.644 40.1988 419.893 40.0331 419.226 39.7016C418.558 39.3702 418.023 38.9156 417.62 38.338C417.218 37.7603 416.998 37.1022 416.96 36.3636H418.665C418.731 37.0217 419.029 37.5662 419.559 37.9971C420.094 38.4232 420.734 38.6363 421.477 38.6363C422.074 38.6363 422.604 38.4966 423.068 38.2173C423.537 37.9379 423.904 37.5544 424.169 37.0667C424.439 36.5743 424.574 36.0179 424.574 35.3977C424.574 34.7632 424.434 34.1974 424.155 33.7002C423.88 33.1983 423.501 32.803 423.018 32.5141C422.535 32.2253 421.984 32.0785 421.363 32.0738C420.918 32.0691 420.461 32.1377 419.993 32.2798C419.524 32.4171 419.138 32.5946 418.835 32.8124L417.187 32.6136L418.068 25.4545H425.625V27.017H419.545L419.034 31.3067H419.119C419.417 31.07 419.791 30.8735 420.241 30.7173C420.691 30.561 421.16 30.4829 421.647 30.4829C422.538 30.4829 423.331 30.6959 424.027 31.1221C424.727 31.5435 425.277 32.1211 425.674 32.855C426.077 33.5889 426.278 34.427 426.278 35.3692C426.278 36.2973 426.07 37.1259 425.653 37.855C425.241 38.5795 424.673 39.1524 423.949 39.5738C423.224 39.9905 422.4 40.1988 421.477 40.1988Z" fill="#747474"/>
<path d="M433.929 40.1988C433.332 40.1893 432.736 40.0757 432.139 39.8579C431.543 39.6401 430.998 39.2731 430.506 38.757C430.013 38.2362 429.618 37.5331 429.32 36.6477C429.021 35.7575 428.872 34.6401 428.872 33.2954C428.872 32.0075 428.993 30.8664 429.234 29.8721C429.476 28.873 429.826 28.0326 430.286 27.3508C430.745 26.6642 431.299 26.1434 431.948 25.7883C432.601 25.4332 433.337 25.2556 434.156 25.2556C434.971 25.2556 435.695 25.419 436.33 25.7457C436.969 26.0676 437.49 26.5174 437.892 27.0951C438.295 27.6727 438.555 28.338 438.673 29.0908H436.94C436.779 28.4374 436.467 27.8953 436.003 27.4644C435.539 27.0335 434.923 26.8181 434.156 26.8181C433.029 26.8181 432.142 27.3082 431.493 28.2883C430.849 29.2684 430.525 30.6439 430.52 32.4147H430.634C430.899 32.0122 431.214 31.669 431.578 31.3849C431.948 31.096 432.355 30.8735 432.8 30.7173C433.245 30.561 433.716 30.4829 434.213 30.4829C435.047 30.4829 435.809 30.6912 436.5 31.1079C437.191 31.5198 437.745 32.0904 438.162 32.8195C438.579 33.544 438.787 34.3749 438.787 35.3124C438.787 36.212 438.586 37.0359 438.183 37.784C437.781 38.5274 437.215 39.1192 436.486 39.5596C435.761 39.9952 434.909 40.2083 433.929 40.1988ZM433.929 38.6363C434.526 38.6363 435.061 38.4871 435.534 38.1888C436.012 37.8905 436.389 37.4905 436.663 36.9886C436.943 36.4867 437.082 35.928 437.082 35.3124C437.082 34.7111 436.948 34.1642 436.678 33.6718C436.413 33.1746 436.046 32.7793 435.577 32.4857C435.113 32.1922 434.582 32.0454 433.986 32.0454C433.536 32.0454 433.117 32.1353 432.729 32.3153C432.341 32.4905 432 32.7319 431.706 33.0397C431.417 33.3475 431.19 33.7002 431.024 34.0979C430.859 34.4909 430.776 34.9052 430.776 35.3408C430.776 35.9185 430.911 36.4583 431.18 36.9602C431.455 37.462 431.829 37.8669 432.303 38.1746C432.781 38.4824 433.323 38.6363 433.929 38.6363Z" fill="#747474"/>
<path d="M446.324 40.1988C445.254 40.1988 444.343 39.9076 443.59 39.3252C442.837 38.7381 442.262 37.8882 441.864 36.7755C441.466 35.6581 441.267 34.3086 441.267 32.7272C441.267 31.1552 441.466 29.8129 441.864 28.7002C442.267 27.5828 442.844 26.7305 443.597 26.1434C444.355 25.5515 445.264 25.2556 446.324 25.2556C447.385 25.2556 448.292 25.5515 449.044 26.1434C449.802 26.7305 450.38 27.5828 450.777 28.7002C451.18 29.8129 451.381 31.1552 451.381 32.7272C451.381 34.3086 451.182 35.6581 450.785 36.7755C450.387 37.8882 449.812 38.7381 449.059 39.3252C448.306 39.9076 447.394 40.1988 446.324 40.1988ZM446.324 38.6363C447.385 38.6363 448.209 38.1249 448.796 37.1022C449.383 36.0795 449.677 34.6211 449.677 32.7272C449.677 31.4677 449.542 30.3953 449.272 29.5099C449.007 28.6244 448.623 27.9497 448.121 27.4857C447.624 27.0217 447.025 26.7897 446.324 26.7897C445.273 26.7897 444.452 27.3082 443.86 28.3451C443.268 29.3773 442.972 30.838 442.972 32.7272C442.972 33.9867 443.105 35.0567 443.37 35.9374C443.635 36.8181 444.016 37.4881 444.513 37.9474C445.015 38.4067 445.619 38.6363 446.324 38.6363Z" fill="#747474"/>
<path d="M458.824 40.1988C457.754 40.1988 456.843 39.9076 456.09 39.3252C455.337 38.7381 454.762 37.8882 454.364 36.7755C453.966 35.6581 453.767 34.3086 453.767 32.7272C453.767 31.1552 453.966 29.8129 454.364 28.7002C454.767 27.5828 455.344 26.7305 456.097 26.1434C456.855 25.5515 457.764 25.2556 458.824 25.2556C459.885 25.2556 460.792 25.5515 461.544 26.1434C462.302 26.7305 462.88 27.5828 463.277 28.7002C463.68 29.8129 463.881 31.1552 463.881 32.7272C463.881 34.3086 463.682 35.6581 463.285 36.7755C462.887 37.8882 462.312 38.7381 461.559 39.3252C460.806 39.9076 459.894 40.1988 458.824 40.1988ZM458.824 38.6363C459.885 38.6363 460.709 38.1249 461.296 37.1022C461.883 36.0795 462.177 34.6211 462.177 32.7272C462.177 31.4677 462.042 30.3953 461.772 29.5099C461.507 28.6244 461.123 27.9497 460.621 27.4857C460.124 27.0217 459.525 26.7897 458.824 26.7897C457.773 26.7897 456.952 27.3082 456.36 28.3451C455.768 29.3773 455.472 30.838 455.472 32.7272C455.472 33.9867 455.605 35.0567 455.87 35.9374C456.135 36.8181 456.516 37.4881 457.013 37.9474C457.515 38.4067 458.119 38.6363 458.824 38.6363Z" fill="#747474"/>
<path d="M471.324 40.1988C470.254 40.1988 469.343 39.9076 468.59 39.3252C467.837 38.7381 467.262 37.8882 466.864 36.7755C466.466 35.6581 466.267 34.3086 466.267 32.7272C466.267 31.1552 466.466 29.8129 466.864 28.7002C467.267 27.5828 467.844 26.7305 468.597 26.1434C469.355 25.5515 470.264 25.2556 471.324 25.2556C472.385 25.2556 473.292 25.5515 474.044 26.1434C474.802 26.7305 475.38 27.5828 475.777 28.7002C476.18 29.8129 476.381 31.1552 476.381 32.7272C476.381 34.3086 476.182 35.6581 475.785 36.7755C475.387 37.8882 474.812 38.7381 474.059 39.3252C473.306 39.9076 472.394 40.1988 471.324 40.1988ZM471.324 38.6363C472.385 38.6363 473.209 38.1249 473.796 37.1022C474.383 36.0795 474.677 34.6211 474.677 32.7272C474.677 31.4677 474.542 30.3953 474.272 29.5099C474.007 28.6244 473.623 27.9497 473.121 27.4857C472.624 27.0217 472.025 26.7897 471.324 26.7897C470.273 26.7897 469.452 27.3082 468.86 28.3451C468.268 29.3773 467.972 30.838 467.972 32.7272C467.972 33.9867 468.105 35.0567 468.37 35.9374C468.635 36.8181 469.016 37.4881 469.513 37.9474C470.015 38.4067 470.619 38.6363 471.324 38.6363Z" fill="#747474"/>
</svg>
