<svg width="33" height="15" viewBox="0 0 33 15" fill="none" xmlns="http://www.w3.org/2000/svg">
<path d="M0.616344 5.99997V0.909058H1.23282V5.45309H3.5993V5.99997H0.616344Z" fill="white"/>
<path d="M5.59788 6.08946C5.35593 6.08946 5.13635 6.04388 4.93914 5.95274C4.74194 5.85993 4.58533 5.72653 4.46933 5.55252C4.35332 5.37686 4.29532 5.16474 4.29532 4.91616C4.29532 4.69741 4.33841 4.52009 4.42458 4.3842C4.51076 4.24665 4.62593 4.13893 4.77011 4.06105C4.91428 3.98316 5.07338 3.92516 5.24738 3.88704C5.42304 3.84727 5.59954 3.81578 5.77686 3.79258C6.00886 3.76275 6.19696 3.74038 6.34113 3.72546C6.48696 3.70889 6.59303 3.68155 6.65931 3.64343C6.72726 3.60532 6.76123 3.53903 6.76123 3.44457V3.42468C6.76123 3.17942 6.69411 2.98884 6.55988 2.85295C6.42731 2.71706 6.22596 2.64911 5.95583 2.64911C5.67577 2.64911 5.45619 2.71043 5.2971 2.83306C5.13801 2.9557 5.02615 3.08661 4.96151 3.22582L4.4047 3.02696C4.50413 2.79495 4.6367 2.61431 4.80242 2.48505C4.9698 2.35413 5.15209 2.26299 5.3493 2.21161C5.54816 2.15858 5.74371 2.13207 5.93595 2.13207C6.05858 2.13207 6.19944 2.14698 6.35853 2.17681C6.51928 2.20499 6.67423 2.26382 6.82338 2.3533C6.97418 2.44279 7.0993 2.57786 7.19873 2.75849C7.29816 2.93912 7.34788 3.18107 7.34788 3.48434V5.99997H6.76123V5.48292H6.7314C6.69163 5.56578 6.62534 5.65444 6.53254 5.7489C6.43973 5.84336 6.31627 5.92374 6.16215 5.99002C6.00803 6.05631 5.81994 6.08946 5.59788 6.08946ZM5.68737 5.56247C5.91937 5.56247 6.11492 5.51689 6.27401 5.42575C6.43476 5.3346 6.55574 5.21694 6.63694 5.07277C6.7198 4.92859 6.76123 4.77696 6.76123 4.61786V4.08093C6.73637 4.11076 6.68168 4.13811 6.59717 4.16296C6.51431 4.18616 6.41819 4.20688 6.30882 4.22511C6.2011 4.24168 6.09587 4.2566 5.99312 4.26985C5.89203 4.28145 5.81 4.2914 5.74703 4.29968C5.59456 4.31957 5.45205 4.35188 5.31947 4.39663C5.18855 4.43972 5.08249 4.50517 5.00129 4.59301C4.92174 4.67918 4.88197 4.79684 4.88197 4.94599C4.88197 5.14982 4.95737 5.30394 5.10818 5.40835C5.26064 5.51109 5.4537 5.56247 5.68737 5.56247Z" fill="white"/>
<path d="M9.00528 3.70309V5.99997H8.41863V2.18178H8.9854V2.77838H9.03511C9.1246 2.58448 9.26049 2.42871 9.44278 2.31105C9.62507 2.19173 9.8604 2.13207 10.1487 2.13207C10.4073 2.13207 10.6335 2.1851 10.8274 2.29116C11.0213 2.39556 11.1721 2.55465 11.2798 2.76843C11.3875 2.98055 11.4414 3.24902 11.4414 3.57383V5.99997H10.8547V3.6136C10.8547 3.31365 10.7768 3.07999 10.621 2.91261C10.4653 2.74357 10.2515 2.65906 9.97971 2.65906C9.79245 2.65906 9.62507 2.69966 9.47758 2.78086C9.33175 2.86206 9.21657 2.98055 9.13206 3.13633C9.04754 3.29211 9.00528 3.48103 9.00528 3.70309Z" fill="white"/>
<path d="M14.0546 7.51133C13.7712 7.51133 13.5276 7.47487 13.3237 7.40196C13.1199 7.3307 12.95 7.23624 12.8141 7.11857C12.6799 7.00257 12.573 6.87828 12.4935 6.74571L12.9608 6.41758C13.0138 6.48718 13.081 6.56673 13.1622 6.65622C13.2434 6.74736 13.3544 6.82608 13.4952 6.89237C13.6378 6.96031 13.8242 6.99428 14.0546 6.99428C14.3628 6.99428 14.6172 6.91971 14.8177 6.77056C15.0182 6.62142 15.1185 6.38775 15.1185 6.06957V5.294H15.0688C15.0257 5.3636 14.9644 5.44978 14.8848 5.55252C14.8069 5.65361 14.6942 5.74393 14.5467 5.82348C14.4009 5.90136 14.2037 5.94031 13.9551 5.94031C13.6469 5.94031 13.3701 5.86739 13.1249 5.72156C12.8813 5.57572 12.6882 5.3636 12.5457 5.08519C12.4048 4.80678 12.3344 4.46872 12.3344 4.07099C12.3344 3.67989 12.4032 3.33934 12.5407 3.04933C12.6783 2.75766 12.8697 2.53228 13.1149 2.37319C13.3602 2.21244 13.6436 2.13207 13.9651 2.13207C14.2136 2.13207 14.4109 2.1735 14.5567 2.25636C14.7042 2.33756 14.8169 2.43036 14.8948 2.53477C14.9743 2.63751 15.0356 2.72203 15.0787 2.78832H15.1384V2.18178H15.7051V6.10934C15.7051 6.43747 15.6305 6.70428 15.4814 6.90977C15.3339 7.11692 15.135 7.26855 14.8848 7.36467C14.6362 7.46244 14.3595 7.51133 14.0546 7.51133ZM14.0347 5.41332C14.27 5.41332 14.4689 5.35946 14.6313 5.25174C14.7937 5.14402 14.9171 4.98908 15.0016 4.7869C15.0862 4.58472 15.1284 4.34277 15.1284 4.06105C15.1284 3.78595 15.087 3.54317 15.0041 3.33271C14.9213 3.12224 14.7986 2.95735 14.6362 2.83803C14.4738 2.71872 14.2733 2.65906 14.0347 2.65906C13.7861 2.65906 13.5789 2.72203 13.4132 2.84798C13.2492 2.97393 13.1257 3.14296 13.0428 3.35508C12.9616 3.5672 12.921 3.80252 12.921 4.06105C12.921 4.3262 12.9625 4.56069 13.0453 4.76453C13.1298 4.9667 13.2541 5.1258 13.4182 5.2418C13.5839 5.35615 13.7894 5.41332 14.0347 5.41332Z" fill="white"/>
<path d="M19.1852 4.43889V2.18178H19.7719V5.99997H19.1852V5.35366H19.1455C19.056 5.54755 18.9168 5.71244 18.7278 5.84833C18.5389 5.98257 18.3003 6.04968 18.0119 6.04968C17.7733 6.04968 17.5612 5.99748 17.3756 5.89308C17.19 5.78702 17.0441 5.62793 16.9381 5.4158C16.832 5.20203 16.779 4.93273 16.779 4.60792V2.18178H17.3656V4.56815C17.3656 4.84656 17.4435 5.06862 17.5993 5.23434C17.7567 5.40006 17.9573 5.48292 18.2009 5.48292C18.3467 5.48292 18.495 5.44563 18.6458 5.37106C18.7983 5.29649 18.9259 5.18214 19.0286 5.02802C19.133 4.8739 19.1852 4.67752 19.1852 4.43889Z" fill="white"/>
<path d="M21.9699 6.08946C21.728 6.08946 21.5084 6.04388 21.3112 5.95274C21.114 5.85993 20.9574 5.72653 20.8414 5.55252C20.7254 5.37686 20.6674 5.16474 20.6674 4.91616C20.6674 4.69741 20.7105 4.52009 20.7967 4.3842C20.8828 4.24665 20.998 4.13893 21.1422 4.06105C21.2864 3.98316 21.4454 3.92516 21.6195 3.88704C21.7951 3.84727 21.9716 3.81578 22.1489 3.79258C22.3809 3.76275 22.569 3.74038 22.7132 3.72546C22.859 3.70889 22.9651 3.68155 23.0314 3.64343C23.0993 3.60532 23.1333 3.53903 23.1333 3.44457V3.42468C23.1333 3.17942 23.0662 2.98884 22.932 2.85295C22.7994 2.71706 22.598 2.64911 22.3279 2.64911C22.0478 2.64911 21.8283 2.71043 21.6692 2.83306C21.5101 2.9557 21.3982 3.08661 21.3336 3.22582L20.7768 3.02696C20.8762 2.79495 21.0088 2.61431 21.1745 2.48505C21.3419 2.35413 21.5242 2.26299 21.7214 2.21161C21.9202 2.15858 22.1158 2.13207 22.308 2.13207C22.4306 2.13207 22.5715 2.14698 22.7306 2.17681C22.8913 2.20499 23.0463 2.26382 23.1954 2.3533C23.3463 2.44279 23.4714 2.57786 23.5708 2.75849C23.6702 2.93912 23.7199 3.18107 23.7199 3.48434V5.99997H23.1333V5.48292H23.1035C23.0637 5.56578 22.9974 5.65444 22.9046 5.7489C22.8118 5.84336 22.6883 5.92374 22.5342 5.99002C22.3801 6.05631 22.192 6.08946 21.9699 6.08946ZM22.0594 5.56247C22.2914 5.56247 22.487 5.51689 22.6461 5.42575C22.8068 5.3346 22.9278 5.21694 23.009 5.07277C23.0919 4.92859 23.1333 4.77696 23.1333 4.61786V4.08093C23.1084 4.11076 23.0538 4.13811 22.9692 4.16296C22.8864 4.18616 22.7903 4.20688 22.6809 4.22511C22.5732 4.24168 22.4679 4.2566 22.3652 4.26985C22.2641 4.28145 22.1821 4.2914 22.1191 4.29968C21.9666 4.31957 21.8241 4.35188 21.6915 4.39663C21.5606 4.43972 21.4546 4.50517 21.3734 4.59301C21.2938 4.67918 21.254 4.79684 21.254 4.94599C21.254 5.14982 21.3294 5.30394 21.4802 5.40835C21.6327 5.51109 21.8258 5.56247 22.0594 5.56247Z" fill="white"/>
<path d="M26.3319 7.51133C26.0485 7.51133 25.8049 7.47487 25.6011 7.40196C25.3972 7.3307 25.2274 7.23624 25.0915 7.11857C24.9573 7.00257 24.8504 6.87828 24.7708 6.74571L25.2381 6.41758C25.2912 6.48718 25.3583 6.56673 25.4395 6.65622C25.5207 6.74736 25.6317 6.82608 25.7726 6.89237C25.9151 6.96031 26.1015 6.99428 26.3319 6.99428C26.6401 6.99428 26.8945 6.91971 27.095 6.77056C27.2956 6.62142 27.3958 6.38775 27.3958 6.06957V5.294H27.3461C27.303 5.3636 27.2417 5.44978 27.1622 5.55252C27.0843 5.65361 26.9716 5.74393 26.8241 5.82348C26.6783 5.90136 26.481 5.94031 26.2325 5.94031C25.9242 5.94031 25.6475 5.86739 25.4022 5.72156C25.1586 5.57572 24.9655 5.3636 24.823 5.08519C24.6822 4.80678 24.6117 4.46872 24.6117 4.07099C24.6117 3.67989 24.6805 3.33934 24.818 3.04933C24.9556 2.75766 25.147 2.53228 25.3923 2.37319C25.6375 2.21244 25.9209 2.13207 26.2424 2.13207C26.491 2.13207 26.6882 2.1735 26.834 2.25636C26.9815 2.33756 27.0942 2.43036 27.1721 2.53477C27.2516 2.63751 27.313 2.72203 27.356 2.78832H27.4157V2.18178H27.9825V6.10934C27.9825 6.43747 27.9079 6.70428 27.7587 6.90977C27.6113 7.11692 27.4124 7.26855 27.1622 7.36467C26.9136 7.46244 26.6368 7.51133 26.3319 7.51133ZM26.312 5.41332C26.5473 5.41332 26.7462 5.35946 26.9086 5.25174C27.071 5.14402 27.1945 4.98908 27.279 4.7869C27.3635 4.58472 27.4058 4.34277 27.4058 4.06105C27.4058 3.78595 27.3643 3.54317 27.2815 3.33271C27.1986 3.12224 27.076 2.95735 26.9136 2.83803C26.7512 2.71872 26.5506 2.65906 26.312 2.65906C26.0634 2.65906 25.8563 2.72203 25.6906 2.84798C25.5265 2.97393 25.403 3.14296 25.3202 3.35508C25.239 3.5672 25.1984 3.80252 25.1984 4.06105C25.1984 4.3262 25.2398 4.56069 25.3227 4.76453C25.4072 4.9667 25.5315 5.1258 25.6955 5.2418C25.8613 5.35615 26.0667 5.41332 26.312 5.41332Z" fill="white"/>
<path d="M30.6572 6.07951C30.2893 6.07951 29.9719 5.99831 29.7051 5.8359C29.44 5.67184 29.2353 5.44315 29.0911 5.14983C28.9486 4.85484 28.8774 4.5118 28.8774 4.12071C28.8774 3.72961 28.9486 3.38491 29.0911 3.08661C29.2353 2.78666 29.4358 2.553 29.6927 2.38562C29.9512 2.21659 30.2528 2.13207 30.5975 2.13207C30.7964 2.13207 30.9928 2.16521 31.1867 2.2315C31.3805 2.29779 31.557 2.40551 31.7161 2.55465C31.8752 2.70214 32.002 2.89769 32.0965 3.1413C32.1909 3.38491 32.2381 3.68486 32.2381 4.04116V4.28974H29.295V3.78264H31.6416C31.6416 3.5672 31.5985 3.37497 31.5123 3.20593C31.4278 3.0369 31.3068 2.90349 31.1494 2.80572C30.9936 2.70794 30.8096 2.65906 30.5975 2.65906C30.3639 2.65906 30.1617 2.71706 29.991 2.83306C29.822 2.94741 29.6919 3.09656 29.6007 3.28051C29.5096 3.46446 29.464 3.66166 29.464 3.87213V4.21019C29.464 4.49855 29.5137 4.74298 29.6131 4.9435C29.7142 5.14237 29.8543 5.294 30.0332 5.3984C30.2122 5.50115 30.4202 5.55252 30.6572 5.55252C30.8113 5.55252 30.9505 5.53098 31.0748 5.48789C31.2007 5.44315 31.3093 5.37686 31.4004 5.28903C31.4916 5.19954 31.562 5.08851 31.6117 4.95593L32.1785 5.11502C32.1188 5.30726 32.0186 5.47629 31.8777 5.62213C31.7368 5.7663 31.5628 5.87899 31.3557 5.96019C31.1485 6.03974 30.9157 6.07951 30.6572 6.07951Z" fill="white"/>
<path d="M4.71294 10.5H4.09646C4.06 10.3226 3.9962 10.1669 3.90505 10.0326C3.81556 9.8984 3.70619 9.78571 3.57693 9.69457C3.44932 9.60177 3.30763 9.53216 3.15186 9.48576C2.99608 9.43936 2.83367 9.41616 2.66464 9.41616C2.3564 9.41616 2.07716 9.49405 1.82693 9.64982C1.57835 9.8056 1.38031 10.0351 1.23282 10.3384C1.08699 10.6417 1.01407 11.0137 1.01407 11.4545C1.01407 11.8953 1.08699 12.2674 1.23282 12.5706C1.38031 12.8739 1.57835 13.1034 1.82693 13.2592C2.07716 13.415 2.3564 13.4929 2.66464 13.4929C2.83367 13.4929 2.99608 13.4697 3.15186 13.4233C3.30763 13.3769 3.44932 13.3081 3.57693 13.2169C3.70619 13.1241 3.81556 13.0106 3.90505 12.8764C3.9962 12.7405 4.06 12.5847 4.09646 12.4091H4.71294C4.66653 12.6692 4.58202 12.9021 4.45938 13.1076C4.33675 13.3131 4.18429 13.4879 4.002 13.6321C3.81971 13.7746 3.61504 13.8831 3.38801 13.9577C3.16263 14.0323 2.92151 14.0696 2.66464 14.0696C2.23045 14.0696 1.84433 13.9635 1.50626 13.7514C1.16819 13.5393 0.902211 13.2377 0.708319 12.8466C0.514427 12.4555 0.41748 11.9914 0.41748 11.4545C0.41748 10.9176 0.514427 10.4536 0.708319 10.0625C0.902211 9.67137 1.16819 9.36976 1.50626 9.15764C1.84433 8.94552 2.23045 8.83945 2.66464 8.83945C2.92151 8.83945 3.16263 8.87674 3.38801 8.95132C3.61504 9.02589 3.81971 9.13526 4.002 9.27944C4.18429 9.42196 4.33675 9.59597 4.45938 9.80146C4.58202 10.0053 4.66653 10.2381 4.71294 10.5Z" fill="white"/>
<path d="M7.23042 14.0795C6.86253 14.0795 6.54517 13.9983 6.27836 13.8359C6.01321 13.6718 5.80855 13.4431 5.66437 13.1498C5.52185 12.8548 5.45059 12.5118 5.45059 12.1207C5.45059 11.7296 5.52185 11.3849 5.66437 11.0866C5.80855 10.7867 6.00907 10.553 6.26594 10.3856C6.52446 10.2166 6.82607 10.1321 7.17077 10.1321C7.36963 10.1321 7.56601 10.1652 7.7599 10.2315C7.95379 10.2978 8.13028 10.4055 8.28937 10.5547C8.44846 10.7021 8.57524 10.8977 8.6697 11.1413C8.76416 11.3849 8.81139 11.6849 8.81139 12.0412V12.2897H5.86821V11.7826H8.2148C8.2148 11.5672 8.17171 11.375 8.08554 11.2059C8.00102 11.0369 7.88005 10.9035 7.72261 10.8057C7.56684 10.7079 7.38289 10.6591 7.17077 10.6591C6.9371 10.6591 6.73492 10.7171 6.56423 10.8331C6.3952 10.9474 6.26511 11.0966 6.17396 11.2805C6.08282 11.4645 6.03724 11.6617 6.03724 11.8721V12.2102C6.03724 12.4985 6.08696 12.743 6.18639 12.9435C6.28748 13.1424 6.42751 13.294 6.60649 13.3984C6.78547 13.5012 6.99345 13.5525 7.23042 13.5525C7.38454 13.5525 7.52375 13.531 7.64804 13.4879C7.77399 13.4431 7.88253 13.3769 7.97368 13.289C8.06482 13.1995 8.13525 13.0885 8.18497 12.9559L8.75173 13.115C8.69207 13.3073 8.59181 13.4763 8.45095 13.6221C8.31009 13.7663 8.13608 13.879 7.92893 13.9602C7.72178 14.0397 7.48895 14.0795 7.23042 14.0795Z" fill="white"/>
<path d="M10.2904 11.7031V14H9.70379V10.1818H10.2706V10.7784H10.3203C10.4098 10.5845 10.5456 10.4287 10.7279 10.311C10.9102 10.1917 11.1456 10.1321 11.4339 10.1321C11.6924 10.1321 11.9186 10.1851 12.1125 10.2912C12.3064 10.3956 12.4572 10.5547 12.5649 10.7684C12.6727 10.9806 12.7265 11.249 12.7265 11.5738V14H12.1399V11.6136C12.1399 11.3137 12.062 11.08 11.9062 10.9126C11.7504 10.7436 11.5366 10.6591 11.2649 10.6591C11.0776 10.6591 10.9102 10.6997 10.7627 10.7809C10.6169 10.8621 10.5017 10.9806 10.4172 11.1363C10.3327 11.2921 10.2904 11.481 10.2904 11.7031Z" fill="white"/>
<path d="M15.459 10.1818V10.6789H13.4803V10.1818H15.459ZM14.057 9.26701H14.6437V12.9062C14.6437 13.0719 14.6677 13.1962 14.7158 13.2791C14.7655 13.3603 14.8285 13.415 14.9047 13.4431C14.9826 13.4697 15.0646 13.4829 15.1508 13.4829C15.2154 13.4829 15.2685 13.4796 15.3099 13.473C15.3513 13.4647 15.3845 13.4581 15.4093 13.4531L15.5286 13.9801C15.4889 13.995 15.4333 14.0099 15.3621 14.0248C15.2908 14.0414 15.2005 14.0497 15.0911 14.0497C14.9254 14.0497 14.763 14.0141 14.6039 13.9428C14.4465 13.8715 14.3156 13.763 14.2112 13.6172C14.1084 13.4713 14.057 13.2874 14.057 13.0653V9.26701Z" fill="white"/>
<path d="M16.3415 14V10.1818H16.9082V10.7585H16.948C17.0176 10.5696 17.1436 10.4163 17.3259 10.2986C17.5082 10.181 17.7136 10.1221 17.9423 10.1221C17.9854 10.1221 18.0393 10.123 18.1039 10.1246C18.1685 10.1263 18.2174 10.1288 18.2506 10.1321V10.7287C18.2307 10.7237 18.1851 10.7162 18.1139 10.7063C18.0443 10.6947 17.9705 10.6889 17.8926 10.6889C17.707 10.6889 17.5413 10.7278 17.3955 10.8057C17.2513 10.882 17.1369 10.988 17.0524 11.1239C16.9696 11.2581 16.9281 11.4114 16.9281 11.5838V14H16.3415Z" fill="white"/>
<path d="M20.4306 14.0795C20.0627 14.0795 19.7454 13.9983 19.4786 13.8359C19.2134 13.6718 19.0087 13.4431 18.8646 13.1498C18.722 12.8548 18.6508 12.5118 18.6508 12.1207C18.6508 11.7296 18.722 11.3849 18.8646 11.0866C19.0087 10.7867 19.2093 10.553 19.4661 10.3856C19.7247 10.2166 20.0263 10.1321 20.371 10.1321C20.5698 10.1321 20.7662 10.1652 20.9601 10.2315C21.154 10.2978 21.3305 10.4055 21.4896 10.5547C21.6487 10.7021 21.7754 10.8977 21.8699 11.1413C21.9644 11.3849 22.0116 11.6849 22.0116 12.0412V12.2897H19.0684V11.7826H21.415C21.415 11.5672 21.3719 11.375 21.2857 11.2059C21.2012 11.0369 21.0802 10.9035 20.9228 10.8057C20.767 10.7079 20.5831 10.6591 20.371 10.6591C20.1373 10.6591 19.9351 10.7171 19.7644 10.8331C19.5954 10.9474 19.4653 11.0966 19.3742 11.2805C19.283 11.4645 19.2374 11.6617 19.2374 11.8721V12.2102C19.2374 12.4985 19.2872 12.743 19.3866 12.9435C19.4877 13.1424 19.6277 13.294 19.8067 13.3984C19.9857 13.5012 20.1936 13.5525 20.4306 13.5525C20.5847 13.5525 20.7239 13.531 20.8482 13.4879C20.9742 13.4431 21.0827 13.3769 21.1739 13.289C21.265 13.1995 21.3354 13.0885 21.3852 12.9559L21.9519 13.115C21.8923 13.3073 21.792 13.4763 21.6511 13.6221C21.5103 13.7663 21.3363 13.879 21.1291 13.9602C20.922 14.0397 20.6891 14.0795 20.4306 14.0795Z" fill="white"/>
</svg>
