<svg width="188" height="20" viewBox="0 0 188 20" fill="none" xmlns="http://www.w3.org/2000/svg">
<path d="M2.21032 0.454545V15H0.53418V0.454545H2.21032Z" fill="#747474"/>
<path d="M5.28027 15V4.09091H6.95641V15H5.28027ZM6.13255 2.27273C5.80584 2.27273 5.52412 2.16146 5.28738 1.93892C5.05537 1.71638 4.93936 1.44886 4.93936 1.13636C4.93936 0.823864 5.05537 0.556344 5.28738 0.333806C5.52412 0.111269 5.80584 0 6.13255 0C6.45925 0 6.73861 0.111269 6.97061 0.333806C7.20736 0.556344 7.32573 0.823864 7.32573 1.13636C7.32573 1.44886 7.20736 1.71638 6.97061 1.93892C6.73861 2.16146 6.45925 2.27273 6.13255 2.27273Z" fill="#747474"/>
<path d="M10.2536 15V0.454545H11.9298V5.82386H12.0718C12.1949 5.63447 12.3654 5.39299 12.5832 5.09943C12.8057 4.80114 13.123 4.53599 13.5349 4.30398C13.9516 4.06724 14.515 3.94886 15.2252 3.94886C16.1438 3.94886 16.9535 4.1785 17.6542 4.63778C18.355 5.09706 18.9018 5.74811 19.2948 6.59091C19.6878 7.43371 19.8843 8.42803 19.8843 9.57386C19.8843 10.7292 19.6878 11.7306 19.2948 12.5781C18.9018 13.4209 18.3573 14.0743 17.6613 14.5384C16.9653 14.9976 16.1627 15.2273 15.2536 15.2273C14.5529 15.2273 13.9918 15.1113 13.5704 14.8793C13.149 14.6425 12.8247 14.375 12.5974 14.0767C12.3701 13.7737 12.1949 13.5227 12.0718 13.3239H11.873V15H10.2536ZM11.9014 9.54545C11.9014 10.3693 12.0221 11.0961 12.2636 11.7259C12.5051 12.3509 12.8578 12.8409 13.3218 13.196C13.7858 13.5464 14.354 13.7216 15.0264 13.7216C15.7271 13.7216 16.3119 13.5369 16.7806 13.1676C17.2541 12.7936 17.6092 12.2917 17.846 11.6619C18.0874 11.0275 18.2082 10.322 18.2082 9.54545C18.2082 8.77841 18.0898 8.08712 17.8531 7.47159C17.6211 6.85133 17.2683 6.36127 16.7948 6.00142C16.3261 5.63684 15.7366 5.45455 15.0264 5.45455C14.3446 5.45455 13.7716 5.62737 13.3076 5.97301C12.8436 6.31392 12.4932 6.79214 12.2565 7.40767C12.0197 8.01847 11.9014 8.73106 11.9014 9.54545Z" fill="#747474"/>
<path d="M25.6585 15.2557C24.9672 15.2557 24.3398 15.1255 23.7764 14.8651C23.2129 14.5999 22.7655 14.2187 22.434 13.7216C22.1026 13.2197 21.9369 12.6136 21.9369 11.9034C21.9369 11.2784 22.06 10.7718 22.3062 10.3835C22.5524 9.99053 22.8815 9.68277 23.2934 9.46023C23.7053 9.23769 24.1599 9.07197 24.657 8.96307C25.1589 8.84943 25.6632 8.75947 26.1698 8.69318C26.8327 8.60795 27.3701 8.54403 27.7821 8.50142C28.1987 8.45407 28.5017 8.37595 28.6911 8.26705C28.8853 8.15814 28.9823 7.96875 28.9823 7.69886V7.64205C28.9823 6.94129 28.7906 6.39678 28.4071 6.00852C28.0283 5.62026 27.453 5.42614 26.6812 5.42614C25.881 5.42614 25.2536 5.60133 24.7991 5.9517C24.3445 6.30208 24.0249 6.67614 23.8403 7.07386L22.2494 6.50568C22.5335 5.8428 22.9123 5.3267 23.3857 4.95739C23.864 4.58333 24.3848 4.32292 24.9482 4.17614C25.5164 4.02462 26.0751 3.94886 26.6244 3.94886C26.9748 3.94886 27.3772 3.99148 27.8318 4.0767C28.291 4.1572 28.7338 4.32528 29.1599 4.58097C29.5908 4.83665 29.9482 5.22254 30.2323 5.73864C30.5164 6.25473 30.6585 6.94602 30.6585 7.8125V15H28.9823V13.5227H28.8971C28.7835 13.7595 28.5941 14.0128 28.3289 14.2827C28.0638 14.5526 27.711 14.7822 27.2707 14.9716C26.8303 15.161 26.2929 15.2557 25.6585 15.2557ZM25.9142 13.75C26.577 13.75 27.1357 13.6198 27.5903 13.3594C28.0496 13.099 28.3952 12.7628 28.6272 12.3509C28.864 11.9389 28.9823 11.5057 28.9823 11.0511V9.51705C28.9113 9.60227 28.7551 9.6804 28.5136 9.75142C28.2768 9.81771 28.0022 9.87689 27.6897 9.92898C27.382 9.97633 27.0813 10.0189 26.7877 10.0568C26.4989 10.09 26.2645 10.1184 26.0846 10.142C25.649 10.1989 25.2418 10.2912 24.863 10.419C24.489 10.5421 24.1859 10.7292 23.9539 10.9801C23.7267 11.2263 23.613 11.5625 23.613 11.9886C23.613 12.571 23.8285 13.0114 24.2593 13.3097C24.6949 13.6032 25.2465 13.75 25.9142 13.75Z" fill="#747474"/>
<path d="M33.7178 15V4.09091H35.3371V5.73864H35.4507C35.6496 5.19886 36.0094 4.76089 36.5303 4.42472C37.0511 4.08854 37.6382 3.92045 38.2916 3.92045C38.4147 3.92045 38.5686 3.92282 38.7533 3.92756C38.9379 3.93229 39.0776 3.93939 39.1723 3.94886V5.65341C39.1155 5.6392 38.9853 5.6179 38.7817 5.58949C38.5828 5.55634 38.3721 5.53977 38.1496 5.53977C37.6193 5.53977 37.1458 5.65104 36.7291 5.87358C36.3172 6.09138 35.9905 6.39441 35.749 6.78267C35.5123 7.16619 35.3939 7.60417 35.3939 8.09659V15H33.7178Z" fill="#747474"/>
<path d="M46.5871 4.09091V5.51136H40.9337V4.09091H46.5871ZM42.5814 1.47727H44.2575V11.875C44.2575 12.3485 44.3262 12.7036 44.4635 12.9403C44.6056 13.1723 44.7855 13.3286 45.0033 13.4091C45.2258 13.4848 45.4602 13.5227 45.7064 13.5227C45.8911 13.5227 46.0426 13.5133 46.161 13.4943C46.2793 13.4706 46.374 13.4517 46.445 13.4375L46.786 14.9432C46.6723 14.9858 46.5137 15.0284 46.3101 15.071C46.1065 15.1184 45.8485 15.142 45.536 15.142C45.0625 15.142 44.5985 15.0402 44.1439 14.8366C43.6941 14.633 43.32 14.3229 43.0218 13.9062C42.7282 13.4896 42.5814 12.964 42.5814 12.3295V1.47727Z" fill="#747474"/>
<path d="M56.6404 6.53409L55.1347 6.96023C55.04 6.70928 54.9003 6.46544 54.7156 6.22869C54.5357 5.98722 54.2895 5.78835 53.977 5.6321C53.6645 5.47585 53.2644 5.39773 52.7767 5.39773C52.1091 5.39773 51.5528 5.55161 51.1077 5.85938C50.6673 6.16241 50.4472 6.5483 50.4472 7.01705C50.4472 7.43371 50.5987 7.76278 50.9017 8.00426C51.2048 8.24574 51.6782 8.44697 52.3222 8.60795L53.9415 9.00568C54.9169 9.24242 55.6437 9.60464 56.1219 10.0923C56.6001 10.5753 56.8392 11.1979 56.8392 11.9602C56.8392 12.5852 56.6593 13.1439 56.2994 13.6364C55.9443 14.1288 55.4472 14.517 54.808 14.8011C54.1688 15.0852 53.4254 15.2273 52.5779 15.2273C51.4652 15.2273 50.5442 14.9858 49.8151 14.5028C49.0859 14.0199 48.6243 13.3144 48.4301 12.3864L50.021 11.9886C50.1726 12.5758 50.459 13.0161 50.8804 13.3097C51.3065 13.6032 51.8629 13.75 52.5494 13.75C53.3307 13.75 53.951 13.5843 54.4102 13.2528C54.8743 12.9167 55.1063 12.5142 55.1063 12.0455C55.1063 11.6667 54.9737 11.3494 54.7085 11.0938C54.4434 10.8333 54.0362 10.6392 53.4869 10.5114L51.6688 10.0852C50.6697 9.84848 49.9358 9.48153 49.4671 8.98438C49.003 8.48248 48.771 7.85511 48.771 7.10227C48.771 6.48674 48.9439 5.94223 49.2895 5.46875C49.6399 4.99527 50.1157 4.62358 50.7171 4.35369C51.3231 4.08381 52.0097 3.94886 52.7767 3.94886C53.8563 3.94886 54.7038 4.18561 55.3193 4.65909C55.9396 5.13258 56.3799 5.75758 56.6404 6.53409Z" fill="#747474"/>
<path d="M61.0384 0.454545V15H59.3623V0.454545H61.0384Z" fill="#747474"/>
<path d="M68.5402 15.2273C67.5175 15.2273 66.6368 14.9858 65.8982 14.5028C65.1595 14.0199 64.5913 13.3546 64.1936 12.5071C63.7959 11.6596 63.597 10.6913 63.597 9.60227C63.597 8.49432 63.8006 7.51657 64.2078 6.66903C64.6198 5.81676 65.1927 5.15152 65.9266 4.6733C66.6652 4.19034 67.527 3.94886 68.5118 3.94886C69.2789 3.94886 69.9701 4.09091 70.5857 4.375C71.2012 4.65909 71.7055 5.05682 72.0985 5.56818C72.4914 6.07955 72.7353 6.67614 72.83 7.35795H71.1539C71.026 6.8608 70.7419 6.42045 70.3016 6.03693C69.866 5.64867 69.2789 5.45455 68.5402 5.45455C67.8868 5.45455 67.3139 5.625 66.8215 5.96591C66.3338 6.30208 65.9526 6.77794 65.678 7.39347C65.4081 8.00426 65.2732 8.72159 65.2732 9.54545C65.2732 10.3883 65.4057 11.1222 65.6709 11.7472C65.9408 12.3722 66.3196 12.8575 66.8073 13.2031C67.2997 13.5488 67.8773 13.7216 68.5402 13.7216C68.9758 13.7216 69.3712 13.6458 69.7263 13.4943C70.0814 13.3428 70.3821 13.125 70.6283 12.8409C70.8745 12.5568 71.0497 12.2159 71.1539 11.8182H72.83C72.7353 12.4621 72.5009 13.0421 72.1269 13.5582C71.7576 14.0696 71.2675 14.4768 70.6567 14.7798C70.0506 15.0781 69.3451 15.2273 68.5402 15.2273Z" fill="#747474"/>
<path d="M83.661 18.8352C82.2121 18.8352 80.9313 18.6364 79.8186 18.2386C78.7059 17.8456 77.7708 17.2656 77.0132 16.4986C76.2557 15.7315 75.6827 14.7917 75.2945 13.679C74.9062 12.5663 74.7121 11.2926 74.7121 9.85795C74.7121 8.47064 74.9086 7.23011 75.3016 6.13636C75.6993 5.04261 76.2746 4.11458 77.0274 3.35227C77.785 2.58523 78.7036 2.00047 79.7831 1.59801C80.8674 1.19555 82.0937 0.994318 83.4621 0.994318C84.7926 0.994318 85.9574 1.21212 86.9564 1.64773C87.9602 2.0786 88.7983 2.66335 89.4706 3.40199C90.1477 4.13589 90.6543 4.96212 90.9905 5.88068C91.3314 6.79924 91.5019 7.74621 91.5019 8.72159C91.5019 9.40814 91.4687 10.1042 91.4024 10.8097C91.3362 11.5152 91.1965 12.1638 90.9834 12.7557C90.7703 13.3428 90.4413 13.8163 89.9962 14.1761C89.5558 14.536 88.9593 14.7159 88.2064 14.7159C87.875 14.7159 87.5104 14.6638 87.1127 14.5597C86.7149 14.4555 86.3622 14.2827 86.0544 14.0412C85.7467 13.7997 85.5644 13.4754 85.5075 13.0682H85.4223C85.3087 13.3428 85.1335 13.6032 84.8968 13.8494C84.6647 14.0956 84.3594 14.2921 83.9806 14.4389C83.6065 14.5857 83.1496 14.6496 82.6098 14.6307C81.9943 14.607 81.4521 14.4697 80.9834 14.2188C80.5146 13.9631 80.1217 13.6174 79.8044 13.1818C79.4919 12.7415 79.2552 12.2325 79.0942 11.6548C78.938 11.0724 78.8598 10.4451 78.8598 9.77273C78.8598 9.13352 78.9545 8.54877 79.1439 8.01847C79.3333 7.48816 79.5961 7.02415 79.9323 6.62642C80.2732 6.22869 80.6709 5.91146 81.1255 5.67472C81.5847 5.43324 82.0795 5.28409 82.6098 5.22727C83.0833 5.17992 83.5142 5.20123 83.9024 5.29119C84.2907 5.37642 84.6103 5.50663 84.8612 5.68182C85.1122 5.85227 85.2708 6.04167 85.3371 6.25H85.4223V5.45455H86.928V11.875C86.928 12.2727 87.0393 12.6231 87.2618 12.9261C87.4844 13.2292 87.8087 13.3807 88.2348 13.3807C88.7178 13.3807 89.0871 13.215 89.3428 12.8835C89.6032 12.5521 89.7808 12.0407 89.8755 11.3494C89.9749 10.6581 90.0246 9.77273 90.0246 8.69318C90.0246 8.05871 89.937 7.43371 89.7618 6.81818C89.5914 6.19792 89.3309 5.6179 88.9806 5.07812C88.6349 4.53835 88.1969 4.0625 87.6666 3.65057C87.1363 3.23864 86.5137 2.91667 85.7987 2.68466C85.0885 2.44792 84.2812 2.32955 83.3769 2.32955C82.2642 2.32955 81.2675 2.50237 80.3868 2.84801C79.5109 3.18892 78.7651 3.68845 78.1496 4.34659C77.5388 5 77.0724 5.79545 76.7505 6.73295C76.4332 7.66572 76.2746 8.72633 76.2746 9.91477C76.2746 11.1222 76.4332 12.1946 76.7505 13.1321C77.0724 14.0696 77.5459 14.8603 78.1709 15.5043C78.8006 16.1482 79.5795 16.6359 80.5075 16.9673C81.4356 17.3035 82.5057 17.4716 83.7178 17.4716C84.2386 17.4716 84.7523 17.4219 85.259 17.3224C85.7656 17.223 86.213 17.1141 86.6013 16.9957C86.9896 16.8774 87.2689 16.7898 87.4394 16.733L87.8371 18.0398C87.5435 18.1629 87.16 18.286 86.6865 18.4091C86.2178 18.5322 85.7159 18.634 85.1808 18.7145C84.6505 18.795 84.1439 18.8352 83.661 18.8352ZM82.8371 13.1818C83.4716 13.1818 83.9853 13.054 84.3783 12.7983C84.7713 12.5426 85.0577 12.1567 85.2377 11.6406C85.4176 11.1245 85.5075 10.4735 85.5075 9.6875C85.5075 8.89205 85.4081 8.27178 85.2093 7.8267C85.0104 7.38163 84.7168 7.06913 84.3286 6.8892C83.9403 6.70928 83.4621 6.61932 82.8939 6.61932C82.3541 6.61932 81.8925 6.76136 81.509 7.04545C81.1302 7.32481 80.839 7.69886 80.6354 8.16761C80.4365 8.63163 80.3371 9.13826 80.3371 9.6875C80.3371 10.2936 80.4176 10.8641 80.5786 11.3991C80.7396 11.9295 81.0023 12.3603 81.3669 12.6918C81.7315 13.0185 82.2216 13.1818 82.8371 13.1818Z" fill="#747474"/>
<path d="M98.4142 19.3182C97.6045 19.3182 96.9085 19.214 96.3261 19.0057C95.7437 18.8021 95.2584 18.5322 94.8701 18.196C94.4866 17.8646 94.1812 17.5095 93.9539 17.1307L95.2892 16.1932C95.4407 16.392 95.6324 16.6193 95.8644 16.875C96.0965 17.1354 96.4137 17.3603 96.8161 17.5497C97.2233 17.7438 97.756 17.8409 98.4142 17.8409C99.2948 17.8409 100.022 17.6278 100.595 17.2017C101.167 16.7756 101.454 16.108 101.454 15.1989V12.983H101.312C101.189 13.1818 101.014 13.428 100.786 13.7216C100.564 14.0104 100.242 14.2685 99.8204 14.4957C99.4037 14.7183 98.8403 14.8295 98.1301 14.8295C97.2494 14.8295 96.4587 14.6212 95.7579 14.2045C95.0619 13.7879 94.5103 13.1818 94.1031 12.3864C93.7006 11.5909 93.4994 10.625 93.4994 9.48864C93.4994 8.37121 93.6959 7.3982 94.0889 6.5696C94.4819 5.73627 95.0287 5.09233 95.7295 4.63778C96.4303 4.1785 97.2399 3.94886 98.1585 3.94886C98.8687 3.94886 99.4322 4.06724 99.8488 4.30398C100.27 4.53599 100.592 4.80114 100.815 5.09943C101.042 5.39299 101.217 5.63447 101.34 5.82386H101.511V4.09091H103.13V15.3125C103.13 16.25 102.917 17.0123 102.491 17.5994C102.069 18.1913 101.501 18.6245 100.786 18.8991C100.076 19.1785 99.2854 19.3182 98.4142 19.3182ZM98.3573 13.3239C99.0297 13.3239 99.5979 13.17 100.062 12.8622C100.526 12.5545 100.879 12.1117 101.12 11.5341C101.362 10.9564 101.482 10.2652 101.482 9.46023C101.482 8.67424 101.364 7.98059 101.127 7.37926C100.89 6.77794 100.54 6.30682 100.076 5.96591C99.6121 5.625 99.0392 5.45455 98.3573 5.45455C97.6471 5.45455 97.0553 5.63447 96.5818 5.99432C96.113 6.35417 95.7603 6.83712 95.5235 7.44318C95.2915 8.04924 95.1755 8.72159 95.1755 9.46023C95.1755 10.2178 95.2939 10.8878 95.5306 11.4702C95.7721 12.0478 96.1272 12.5024 96.596 12.8338C97.0695 13.1605 97.6566 13.3239 98.3573 13.3239Z" fill="#747474"/>
<path d="M106.198 15V4.09091H107.818V5.79545H107.96C108.187 5.21307 108.554 4.76089 109.06 4.43892C109.567 4.11222 110.176 3.94886 110.886 3.94886C111.605 3.94886 112.204 4.11222 112.683 4.43892C113.166 4.76089 113.542 5.21307 113.812 5.79545H113.926C114.205 5.23201 114.624 4.78456 115.183 4.45312C115.741 4.11695 116.411 3.94886 117.193 3.94886C118.168 3.94886 118.966 4.25426 119.586 4.86506C120.206 5.47112 120.516 6.41572 120.516 7.69886V15H118.84V7.69886C118.84 6.89394 118.62 6.31866 118.18 5.97301C117.739 5.62737 117.221 5.45455 116.624 5.45455C115.857 5.45455 115.263 5.68655 114.842 6.15057C114.42 6.60985 114.21 7.19223 114.21 7.89773V15H112.505V7.52841C112.505 6.90814 112.304 6.40862 111.901 6.02983C111.499 5.64631 110.98 5.45455 110.346 5.45455C109.91 5.45455 109.503 5.57055 109.124 5.80256C108.75 6.03456 108.447 6.35653 108.215 6.76847C107.988 7.17566 107.874 7.64678 107.874 8.18182V15H106.198Z" fill="#747474"/>
<path d="M126.791 15.2557C126.1 15.2557 125.473 15.1255 124.909 14.8651C124.346 14.5999 123.898 14.2187 123.567 13.7216C123.235 13.2197 123.07 12.6136 123.07 11.9034C123.07 11.2784 123.193 10.7718 123.439 10.3835C123.685 9.99053 124.014 9.68277 124.426 9.46023C124.838 9.23769 125.293 9.07197 125.79 8.96307C126.292 8.84943 126.796 8.75947 127.303 8.69318C127.966 8.60795 128.503 8.54403 128.915 8.50142C129.332 8.45407 129.635 8.37595 129.824 8.26705C130.018 8.15814 130.115 7.96875 130.115 7.69886V7.64205C130.115 6.94129 129.923 6.39678 129.54 6.00852C129.161 5.62026 128.586 5.42614 127.814 5.42614C127.014 5.42614 126.386 5.60133 125.932 5.9517C125.477 6.30208 125.158 6.67614 124.973 7.07386L123.382 6.50568C123.666 5.8428 124.045 5.3267 124.519 4.95739C124.997 4.58333 125.518 4.32292 126.081 4.17614C126.649 4.02462 127.208 3.94886 127.757 3.94886C128.108 3.94886 128.51 3.99148 128.965 4.0767C129.424 4.1572 129.867 4.32528 130.293 4.58097C130.724 4.83665 131.081 5.22254 131.365 5.73864C131.649 6.25473 131.791 6.94602 131.791 7.8125V15H130.115V13.5227H130.03C129.916 13.7595 129.727 14.0128 129.462 14.2827C129.197 14.5526 128.844 14.7822 128.404 14.9716C127.963 15.161 127.426 15.2557 126.791 15.2557ZM127.047 13.75C127.71 13.75 128.269 13.6198 128.723 13.3594C129.182 13.099 129.528 12.7628 129.76 12.3509C129.997 11.9389 130.115 11.5057 130.115 11.0511V9.51705C130.044 9.60227 129.888 9.6804 129.646 9.75142C129.41 9.81771 129.135 9.87689 128.823 9.92898C128.515 9.97633 128.214 10.0189 127.921 10.0568C127.632 10.09 127.397 10.1184 127.217 10.142C126.782 10.1989 126.375 10.2912 125.996 10.419C125.622 10.5421 125.319 10.7292 125.087 10.9801C124.859 11.2263 124.746 11.5625 124.746 11.9886C124.746 12.571 124.961 13.0114 125.392 13.3097C125.828 13.6032 126.379 13.75 127.047 13.75Z" fill="#747474"/>
<path d="M134.851 15V4.09091H136.527V15H134.851ZM135.703 2.27273C135.376 2.27273 135.094 2.16146 134.858 1.93892C134.626 1.71638 134.51 1.44886 134.51 1.13636C134.51 0.823864 134.626 0.556344 134.858 0.333806C135.094 0.111269 135.376 0 135.703 0C136.03 0 136.309 0.111269 136.541 0.333806C136.778 0.556344 136.896 0.823864 136.896 1.13636C136.896 1.44886 136.778 1.71638 136.541 1.93892C136.309 2.16146 136.03 2.27273 135.703 2.27273Z" fill="#747474"/>
<path d="M141.273 0.454545V15H139.597V0.454545H141.273Z" fill="#747474"/>
<path d="M145.564 15.1136C145.214 15.1136 144.913 14.9882 144.662 14.7372C144.411 14.4863 144.286 14.1856 144.286 13.8352C144.286 13.4848 144.411 13.1842 144.662 12.9332C144.913 12.6823 145.214 12.5568 145.564 12.5568C145.915 12.5568 146.215 12.6823 146.466 12.9332C146.717 13.1842 146.843 13.4848 146.843 13.8352C146.843 14.0672 146.784 14.2803 146.665 14.4744C146.552 14.6686 146.398 14.8248 146.204 14.9432C146.014 15.0568 145.801 15.1136 145.564 15.1136Z" fill="#747474"/>
<path d="M154.282 15.2273C153.26 15.2273 152.379 14.9858 151.64 14.5028C150.902 14.0199 150.334 13.3546 149.936 12.5071C149.538 11.6596 149.339 10.6913 149.339 9.60227C149.339 8.49432 149.543 7.51657 149.95 6.66903C150.362 5.81676 150.935 5.15152 151.669 4.6733C152.407 4.19034 153.269 3.94886 154.254 3.94886C155.021 3.94886 155.712 4.09091 156.328 4.375C156.943 4.65909 157.448 5.05682 157.841 5.56818C158.234 6.07955 158.477 6.67614 158.572 7.35795H156.896C156.768 6.8608 156.484 6.42045 156.044 6.03693C155.608 5.64867 155.021 5.45455 154.282 5.45455C153.629 5.45455 153.056 5.625 152.564 5.96591C152.076 6.30208 151.695 6.77794 151.42 7.39347C151.15 8.00426 151.015 8.72159 151.015 9.54545C151.015 10.3883 151.148 11.1222 151.413 11.7472C151.683 12.3722 152.062 12.8575 152.549 13.2031C153.042 13.5488 153.62 13.7216 154.282 13.7216C154.718 13.7216 155.113 13.6458 155.468 13.4943C155.824 13.3428 156.124 13.125 156.37 12.8409C156.617 12.5568 156.792 12.2159 156.896 11.8182H158.572C158.477 12.4621 158.243 13.0421 157.869 13.5582C157.5 14.0696 157.01 14.4768 156.399 14.7798C155.793 15.0781 155.087 15.2273 154.282 15.2273Z" fill="#747474"/>
<path d="M165.454 15.2273C164.469 15.2273 163.605 14.9929 162.862 14.5241C162.123 14.0554 161.546 13.3996 161.129 12.5568C160.717 11.714 160.511 10.7292 160.511 9.60227C160.511 8.46591 160.717 7.47396 161.129 6.62642C161.546 5.77888 162.123 5.12074 162.862 4.65199C163.605 4.18324 164.469 3.94886 165.454 3.94886C166.439 3.94886 167.301 4.18324 168.04 4.65199C168.783 5.12074 169.361 5.77888 169.772 6.62642C170.189 7.47396 170.397 8.46591 170.397 9.60227C170.397 10.7292 170.189 11.714 169.772 12.5568C169.361 13.3996 168.783 14.0554 168.04 14.5241C167.301 14.9929 166.439 15.2273 165.454 15.2273ZM165.454 13.7216C166.202 13.7216 166.818 13.5298 167.301 13.1463C167.784 12.7628 168.141 12.2585 168.373 11.6335C168.605 11.0085 168.721 10.3314 168.721 9.60227C168.721 8.87311 168.605 8.19366 168.373 7.56392C168.141 6.93419 167.784 6.42519 167.301 6.03693C166.818 5.64867 166.202 5.45455 165.454 5.45455C164.706 5.45455 164.091 5.64867 163.608 6.03693C163.125 6.42519 162.767 6.93419 162.535 7.56392C162.303 8.19366 162.187 8.87311 162.187 9.60227C162.187 10.3314 162.303 11.0085 162.535 11.6335C162.767 12.2585 163.125 12.7628 163.608 13.1463C164.091 13.5298 164.706 13.7216 165.454 13.7216Z" fill="#747474"/>
<path d="M172.956 15V4.09091H174.575V5.79545H174.717C174.945 5.21307 175.312 4.76089 175.818 4.43892C176.325 4.11222 176.933 3.94886 177.644 3.94886C178.363 3.94886 178.962 4.11222 179.44 4.43892C179.923 4.76089 180.3 5.21307 180.57 5.79545H180.683C180.963 5.23201 181.382 4.78456 181.94 4.45312C182.499 4.11695 183.169 3.94886 183.95 3.94886C184.926 3.94886 185.724 4.25426 186.344 4.86506C186.964 5.47112 187.274 6.41572 187.274 7.69886V15H185.598V7.69886C185.598 6.89394 185.378 6.31866 184.938 5.97301C184.497 5.62737 183.979 5.45455 183.382 5.45455C182.615 5.45455 182.021 5.68655 181.6 6.15057C181.178 6.60985 180.967 7.19223 180.967 7.89773V15H179.263V7.52841C179.263 6.90814 179.062 6.40862 178.659 6.02983C178.257 5.64631 177.738 5.45455 177.104 5.45455C176.668 5.45455 176.261 5.57055 175.882 5.80256C175.508 6.03456 175.205 6.35653 174.973 6.76847C174.746 7.17566 174.632 7.64678 174.632 8.18182V15H172.956Z" fill="#747474"/>
</svg>
