<svg width="1147" height="107" viewBox="0 0 1147 107" fill="none" xmlns="http://www.w3.org/2000/svg">
<g filter="url(#filter0_d_240_21)">
<path d="M4 5C4 2.23858 6.22296 0 8.96513 0H1138.03C1140.78 0 1143 2.23858 1143 5V94C1143 96.7614 1140.78 99 1138.03 99H8.96511C6.22295 99 4 96.7614 4 94V5Z" fill="#FFF4F4" fill-opacity="0.62" shape-rendering="crispEdges"/>
<path d="M4.5 5C4.5 2.51141 6.5024 0.5 8.96513 0.5H1138.03C1140.5 0.5 1142.5 2.51141 1142.5 5V94C1142.5 96.4886 1140.5 98.5 1138.03 98.5H8.96511C6.50239 98.5 4.5 96.4886 4.5 94V5Z" stroke="black" shape-rendering="crispEdges"/>
</g>
<defs>
<filter id="filter0_d_240_21" x="0" y="0" width="1147" height="107" filterUnits="userSpaceOnUse" color-interpolation-filters="sRGB">
<feFlood flood-opacity="0" result="BackgroundImageFix"/>
<feColorMatrix in="SourceAlpha" type="matrix" values="0 0 0 0 0 0 0 0 0 0 0 0 0 0 0 0 0 0 127 0" result="hardAlpha"/>
<feOffset dy="4"/>
<feGaussianBlur stdDeviation="2"/>
<feComposite in2="hardAlpha" operator="out"/>
<feColorMatrix type="matrix" values="0 0 0 0 0 0 0 0 0 0 0 0 0 0 0 0 0 0 0.25 0"/>
<feBlend mode="normal" in2="BackgroundImageFix" result="effect1_dropShadow_240_21"/>
<feBlend mode="normal" in="SourceGraphic" in2="effect1_dropShadow_240_21" result="shape"/>
</filter>
</defs>
</svg>
